<?xml version="1.0" encoding="UTF-8" standalone="no"?>
<!-- Created with Inkscape (http://www.inkscape.org/) -->

<svg
   width="210mm"
   height="297mm"
   viewBox="0 0 210 297"
   version="1.1"
   id="svg5"
   inkscape:version="1.1.1 (c3084ef, 2021-09-22)"
   sodipodi:docname="abdomen.svg"
   xmlns:inkscape="http://www.inkscape.org/namespaces/inkscape"
   xmlns:sodipodi="http://sodipodi.sourceforge.net/DTD/sodipodi-0.dtd"
   xmlns="http://www.w3.org/2000/svg"
   xmlns:svg="http://www.w3.org/2000/svg">
  <sodipodi:namedview
     id="namedview7"
     pagecolor="#ffffff"
     bordercolor="#999999"
     borderopacity="1"
     inkscape:pageshadow="0"
     inkscape:pageopacity="0"
     inkscape:pagecheckerboard="0"
     inkscape:document-units="mm"
     showgrid="false"
     inkscape:zoom="4.2426407"
     inkscape:cx="339.0577"
     inkscape:cy="299.45972"
     inkscape:window-width="3760"
     inkscape:window-height="2107"
     inkscape:window-x="80"
     inkscape:window-y="25"
     inkscape:window-maximized="0"
     inkscape:current-layer="layer1"
     inkscape:snap-global="false" />
  <defs
     id="defs2" />
  <g
     inkscape:label="Lager 1"
     inkscape:groupmode="layer"
     id="layer1">
    <path
       style="fill:#008000;stroke:#000000;stroke-width:0.268946px;stroke-linecap:butt;stroke-linejoin:miter;stroke-opacity:1"
       d="m 78.167736,133.57477 h 7.536263 l 3.799796,-0.31727 h 2.659858 l 3.039838,-0.57107 3.356487,0.1269 3.293152,0.57108 3.10316,-0.12691 2.9132,-0.44417 2.65984,-0.0635 4.81309,0.698 3.67312,0.2538 7.72626,0.1269 6.7763,-0.19035 5.00307,-0.50762 6.71298,-1.58634 6.333,-2.34777 3.10316,-2.03048 5.19306,-4.06102 3.22981,-4.12446 2.7232,-5.26659 2.08987,-5.20317 1.39329,-5.8377 0.63328,-5.330052 0.25332,-7.23366 -0.0634,-5.774236 -0.50664,-6.028051 -1.51991,-7.10675 -2.08989,-7.424017 -2.34321,-6.154956 -3.35648,-6.218407 -4.11645,-5.710786 -4.74974,-4.885889 -5.57303,-4.758988 -7.53626,-4.568625 -7.09296,-2.982299 -7.66294,-2.220862 -7.15626,-0.951796 -8.04291,-0.126907 -9.246173,0.126907 -7.726254,-0.126907 -4.876406,0.190361 -6.839633,1.269061 -6.079673,1.967047 -6.079675,2.538127 -6.269665,3.553376 -6.206335,4.441721 -5.509703,5.393518 -5.003066,6.789487 -3.229827,6.154953 -2.533199,6.408769 -1.963228,8.566177 -1.393259,7.487469 -0.696628,8.312362 0.126659,7.550925 0.823289,6.535678 1.393258,6.02805 3.166498,7.86819 3.483147,5.01279 3.736465,3.93409 4.749747,3.10921 5.763026,2.60157 6.269664,1.58635 6.712973,1.0787 4.496427,0.0635 z"
       id="path5569" />
    <path
       style="fill:#ffe680;stroke:#000000;stroke-width:0.264583px;stroke-linecap:butt;stroke-linejoin:miter;stroke-opacity:1"
       d="m 78.577241,132.77059 h 7.421184 l 3.741771,-0.31181 h 2.619243 l 2.993419,-0.56127 3.305233,0.12473 3.242869,0.56126 3.05578,-0.12472 2.8687,-0.43654 2.61924,-0.0624 4.73958,0.686 3.61704,0.24945 7.60828,0.12472 6.67282,-0.18709 4.92667,-0.4989 6.61047,-1.55907 6.23629,-2.30743 3.05578,-1.99561 5.11376,-3.99123 3.1805,-4.05358 2.68161,-5.17612 2.05797,-5.11376 1.37199,-5.73739 0.62363,-5.238479 0.24945,-7.10937 -0.0624,-5.675022 -0.4989,-5.924476 -1.49671,-6.984642 -2.05797,-7.296457 -2.30743,-6.049201 -3.30523,-6.111562 -4.05359,-5.612662 -4.67722,-4.801941 -5.48793,-4.677217 -7.42118,-4.490128 -6.98465,-2.931056 -7.54591,-2.182702 -7.04701,-0.935443 -7.92008,-0.124726 -9.104983,0.124726 -7.608273,-0.124726 -4.801942,0.187089 -6.735193,1.247257 -5.986836,1.933249 -5.986838,2.494516 -6.173927,3.492322 -6.111563,4.365403 -5.42557,5.300845 -4.926668,6.672829 -3.180509,6.0492 -2.494515,6.298652 -1.93325,8.418992 -1.371984,7.358819 -0.68599,8.169539 0.124725,7.421184 0.810717,6.423378 1.371984,5.92447 3.118144,7.733 3.42996,4.92667 3.679409,3.8665 4.677217,3.05578 5.675024,2.55688 6.173925,1.55907 6.610467,1.06017 4.427765,0.0624 z"
       id="path5416" />
    <path
       style="fill:#ff8080;stroke:#000000;stroke-width:0.264583px;stroke-linecap:butt;stroke-linejoin:miter;stroke-opacity:1"
       d="m 140.93472,89.517359 -7.76111,-10.583333 -21.34305,-8.113887 -6.79098,2.02847 -6.790971,0.440973 -5.115277,-1.234723 -4.7625,-2.293053 -4.056943,2.116666 -0.881946,1.940277 0.440973,3.086806 2.20486,2.645834 4.674306,0.705554 4.497917,-2.822221 5.027081,-1.058333 5.55625,0.08819 4.67431,2.293057 3.35139,3.79236 5.73264,3.175 5.11527,0.97014 7.76111,-1.234723 2.99861,1.499306 0.70556,2.116667 -1.5875,1.852083 -4.05694,0.08819 -4.58611,-1.058334 -3.70417,-0.61736 -6.79097,0.352777 -5.20347,-1.76389 -4.58612,-2.38125 h -3.52777 l -3.439588,1.14653 -3.175,-1.94028 -2.99861,-1.675693 -3.086806,0.176389 -3.439584,1.852084 -1.940277,2.293053 -2.557639,3.615974 -7.32014,2.910416 -5.37986,4.14514 -3.439583,5.291665 -1.76389,5.55625 0.17639,6.17361 -3.792361,-0.97014 -4.145139,-2.46944 -3.880557,-5.20348 -2.20486,-4.14513 -1.41111,-6.614585 -1.058333,-8.554863 -0.0882,-9.34861 1.411113,-7.849306 3.175,-8.466667 4.145137,-6.96736 6.085417,-6.879167 6.967363,-5.203473 7.849303,-3.527776 7.584723,-1.5875 7.14375,-1.234724 -2.55764,3.439584 2.116667,0.0882 2.645833,-3.96875 9.260421,-0.529167 13.40556,1.234721 12.52361,2.822223 9.17222,4.674306 6.43819,4.7625 6.52639,9.084027 3.61597,8.90764 2.46945,10.230553 0.44097,11.818057 -1.6757,9.789583 -3.175,7.055564 -3.0868,2.55763 -4.05694,0.44098 -3.08681,-0.35278 -0.79375,-4.32153 -1.5875,-4.056948 -4.7625,-4.58611 -1.41111,-1.058333 2.73403,-1.14653 z"
       id="path3099" />
    <path
       style="fill:#552200;stroke:#000000;stroke-width:0.264583px;stroke-linecap:butt;stroke-linejoin:miter;stroke-opacity:1"
       d="m 65.087499,112.80069 1.631597,1.14653 1.631597,0.0882 4.45382,-0.12473 4.453819,-0.93361 5.73264,-3.26319 2.557637,-3.52778 0.79375,-5.11528 -0.705554,-3.439581 -1.184358,-1.502439 -2.431615,-0.878811 -6.790973,0.61736 -3.79236,1.76389 -2.55764,2.910421 -1.5875,2.91041 -1.499303,3.52778 -0.79375,2.99861 -0.264584,1.49931 z"
       id="path3691"
       sodipodi:nodetypes="ccccccccccccccccccc" />
    <path
       style="fill:#aa4400;stroke:#000000;stroke-width:0.264583px;stroke-linecap:butt;stroke-linejoin:miter;stroke-opacity:1"
       d="m 78.316666,104.86319 4.409723,-0.26458 0.529166,-2.55764 -1.499306,-1.94028 -2.55764,2.02848 -1.940277,1.85208 1.940277,-3.26319 0.0882,-2.116671 -1.322916,-0.617363 -2.293057,0.440973 -0.881943,1.322916 0.08819,3.263195 -0.529166,-0.44097 -0.705557,-2.29306 -1.058333,-0.352775 -2.02847,1.322915 -0.79375,1.49931 1.322916,1.4993 1.146527,1.6757 -2.55764,-0.70556 -1.41111,0.35278 -0.79375,2.02847 0.79375,0.44097 1.76389,-0.70555 -1.14653,1.32292 -0.881943,1.76388 2.20486,0.88195 1.058333,-0.44097 1.234723,-2.64584 -0.264583,2.11667 2.99861,-0.0882 -0.08819,-1.6757 2.734027,1.76389 2.204862,-0.97014 1.234721,-1.76389 -0.08819,-1.14653 z"
       id="path3522" />
    <path
       style="fill:#800000;stroke:#000000;stroke-width:0.264583px;stroke-linecap:butt;stroke-linejoin:miter;stroke-opacity:1"
       d="m 60.192708,110.46354 1.455208,-2.38125 2.116667,-8.466666 9.260416,-7.540625 6.614583,-6.217708 3.307292,-2.248959 -0.264583,-6.879166 -2.778125,-5.291667 2.910416,-0.661458 2.38125,-1.719792 h 3.704167 l 3.836458,-1.719792 3.571875,2.248959 6.217708,-0.396875 6.87917,-3.307292 5.82083,-10.715625 5.55625,-7.805208 6.35,-3.96875 -1.98437,-2.116667 -14.41979,-2.844271 -16.007298,-0.46302 -15.742708,2.910416 -11.509375,6.085417 -7.408333,6.746875 -5.953125,10.186458 -4.101042,15.213542 0.132292,12.7 3.704167,12.567704 3.96875,5.02709 z"
       id="path1307"
       sodipodi:nodetypes="cccccccccccccccccccccccccccccc" />
    <path
       style="fill:#008000;stroke:#000000;stroke-width:0.264583px;stroke-linecap:butt;stroke-linejoin:miter;stroke-opacity:1"
       d="m 111.125,70.731943 -0.35278,5.027083 0.52917,2.645833 2.64583,2.910417 5.20347,3.175 4.7625,1.322916 8.37847,-1.41111 5.37987,-2.028473 4.85069,-2.293054 4.23333,-6.349999 1.5875,-5.379863 0.0882,-6.35 -1.6757,-4.233333 -6.08541,-7.496527 -5.90903,-3.175 -6.96736,0.08819 -5.20347,2.73403 -4.32153,5.732637 -5.29167,10.406946 z"
       id="path2917" />
    <path
       style="fill:#ff0000;stroke:#000000;stroke-width:0.264583px;stroke-linecap:butt;stroke-linejoin:miter;stroke-opacity:1;fill-opacity:1"
       d="m 138.50937,88.370832 1.19063,-2.116666 3.175,-1.5875 2.64583,-2.116667 3.04271,-5.820833 1.19062,-4.233334 1.85209,-2.116666 1.98437,2.513541 1.45521,6.35 0.13229,6.35 -0.26458,6.35 -1.45521,5.55625 -2.51354,4.894793 -3.04271,2.11667 -3.04271,-0.26459 -2.11666,-2.24896 -1.05834,-3.43958 -1.32291,-4.233333 -1.45521,-3.307291 z"
       id="path1422" />
    <path
       style="fill:#ffffff;stroke:#000000;stroke-width:0.264583px;stroke-linecap:butt;stroke-linejoin:miter;stroke-opacity:1"
       d="m 88.547222,74.215624 -0.35278,-0.926042 0.17639,-1.190625 1.322917,-0.220485 1.190625,0.61736 0.573265,0.97014 -0.132292,0.837846 -1.102431,0.220487 -1.014236,0.0441 z"
       id="path2312" />
    <path
       style="fill:#ffffff;stroke:#000000;stroke-width:0.264583px;stroke-linecap:butt;stroke-linejoin:miter;stroke-opacity:1"
       d="m 85.680901,74.700693 1.014238,-0.308679 0.352777,-0.705557 -0.132292,-0.749651 -0.352777,-0.529167 h -0.97014 l -1.234723,0.573262 -0.308679,0.881946 0.573262,0.837846 z"
       id="path2540" />
    <path
       style="fill:#ffffff;stroke:#000000;stroke-width:0.264583px;stroke-linecap:butt;stroke-linejoin:miter;stroke-opacity:1"
       d="m 88.767707,78.978124 -1.41111,-0.17639 -1.543405,-0.881943 -0.220485,-1.411111 0.61736,-0.926041 1.278822,-0.617363 3.130902,0.485071 1.234723,1.190625 0.176387,1.102429 -0.705554,1.014238 -1.234723,0.264583 z"
       id="path2608" />
    <path
       style="fill:#ffffff;stroke:#000000;stroke-width:0.264583px;stroke-linecap:butt;stroke-linejoin:miter;stroke-opacity:1"
       d="m 108.56736,72.672222 0.74965,-0.17639 0.52917,0.529167 -0.22049,0.573265 -0.66146,0.352777 -0.66145,-0.440973 z"
       id="path2643" />
    <path
       style="fill:#ffffff;stroke:#000000;stroke-width:0.264583px;stroke-linecap:butt;stroke-linejoin:miter;stroke-opacity:1"
       d="m 108.61146,75.229859 -0.13229,-0.970137 -0.61736,-0.308681 -0.57327,0.264583 -0.17639,0.61736 0.52917,0.705557 0.52916,-0.0441 z"
       id="path2711" />
    <path
       style="fill:#ffffff;stroke:#000000;stroke-width:0.264583px;stroke-linecap:butt;stroke-linejoin:miter;stroke-opacity:1"
       d="m 108.34687,76.067707 0.61736,-0.440973 0.70556,0.220488 0.44097,0.529167 0.17639,0.79375 -0.0882,0.485068 h -0.57327 l -0.70555,-0.440973 -0.44097,-0.44097 z"
       id="path2746" />
    <path
       style="fill:#ffffff;stroke:#000000;stroke-width:0.264583px;stroke-linecap:butt;stroke-linejoin:miter;stroke-opacity:1"
       d="m 89.914234,83.828818 3.836458,0.440973 1.322917,1.322916 0.926042,2.38125 -0.573262,2.513542 -2.910417,2.160765 -4.32153,0.837845 -2.469443,-0.573262 -1.234723,-1.499306 -0.220485,-1.852084 1.455208,-2.689931 2.20486,-2.072569 z"
       id="path2781" />
    <path
       style="fill:#ffffff;stroke:#000000;stroke-width:0.264583px;stroke-linecap:butt;stroke-linejoin:miter;stroke-opacity:1"
       d="m 100.98264,94.412151 -1.45521,-1.852084 -0.352779,-2.337151 1.367019,-2.116667 2.24895,-1.278819 h 2.51355 l 2.20486,1.411111 0.97014,1.984375 -0.0882,2.557639 -1.45521,1.499304 -2.73403,0.837848 -1.76388,-0.132292 z"
       id="path2816" />
    <path
       style="fill:#1a1a1a;stroke:#000000;stroke-width:0.264583px;stroke-linecap:butt;stroke-linejoin:miter;stroke-opacity:1"
       d="m 128.05833,49.918056 0.61736,-1.234723 0.88195,0.352777 1.4993,-0.881944 1.23472,1.234723 2.73403,-0.352779 0.70556,1.499306 2.29305,0.440973 0.44098,1.234721 2.20486,0.79375 -0.0882,1.146529 1.94028,0.61736 0.17639,1.411111 1.41111,0.970139 -0.17639,1.146527 1.32292,1.322917 -0.35278,1.411113 1.14653,1.058333 0.61736,1.41111 v 1.852084 l -0.61736,0.352776 0.44097,1.058334 -0.88194,1.058333 0.70555,1.322917 -0.97014,1.322916 -0.35278,0.881947 v 1.322916 l -0.97013,0.529167 0.17638,1.058333 -1.14652,1.675694 -0.61736,0.705556 -1.49931,-0.17639 -0.17639,1.146527 -0.70555,0.79375 -0.97014,0.17639 -0.70556,0.440973 -0.70555,0.705554 -0.79375,-0.529167 -0.97014,0.97014 -1.49931,0.264583 -0.52917,0.617361 -2.20486,0.352779 -0.70555,0.705554 -0.79375,-0.61736 -0.79375,1.763889 -2.46945,0.264584 -1.32291,0.352777 -1.14653,-0.352777 -1.41111,-0.0882 -1.94028,-0.705554 -0.97014,0.352777 -0.44097,-1.146527 -0.97014,-0.440973 -0.17639,-1.411111 -1.4993,0.79375 -2.11667,-1.411112 -0.79375,-1.322917 -1.41111,-1.675694 0.79375,-1.41111 -0.35278,-1.675696 0.44097,-1.146527 -0.79375,-2.293056 1.14653,-1.058334 v -1.763887 l 0.97014,-0.97014 0.52917,-1.852083 1.4993,-0.881943 v -1.94028 l 1.32292,-1.23472 0.0882,-1.852084 1.49931,-0.264583 0.52917,-1.852083 0.35277,-0.881946 0.0882,-0.617361 1.4993,-0.705556 0.61736,-1.146527 1.23473,-0.352777 0.44097,-1.76389 1.4993,-0.352777 z"
       id="path2866" />
    <path
       style="fill:#00ffff;stroke:#000000;stroke-width:0.264583px;stroke-linecap:butt;stroke-linejoin:miter;stroke-opacity:1"
       d="m 69.761806,108.39097 2.293053,-0.97014 0.79375,0.61736 0.881947,-0.79375 1.322916,0.52917 0.264583,-1.76389 3.263194,-0.35278 -0.97014,-0.52916 -0.264583,-0.70556 -1.5875,-0.17639 -0.970137,-1.05833 -0.0882,1.14653 -1.146527,0.97014 -0.705557,-0.0882 -1.058333,-0.61736 0.529167,1.32292 -0.529167,0.88194 z"
       id="path3283" />
    <path
       style="fill:#552200;stroke:#000000;stroke-width:0.264583px;stroke-linecap:butt;stroke-linejoin:miter;stroke-opacity:1"
       d="m 131.58611,115.53472 6.35,-1.41111 2.11667,-1.85208 0.0882,-3.52778 -0.44097,-4.93889 -1.5875,-3.175 -1.85209,-2.028471 -4.58611,-3.439584 -4.49791,-1.5875 -2.55764,0.440971 -2.20486,1.322916 -1.76389,1.94028 -1.5875,2.02847 -1.23472,3.880558 0.35277,3.96875 1.41112,2.73403 3.175,2.91041 3.70416,1.76389 2.91042,0.88195 z"
       id="path4197" />
    <path
       style="fill:#552200;stroke:#000000;stroke-width:0.264583px;stroke-linecap:butt;stroke-linejoin:miter;stroke-opacity:1"
       d="m 117.73958,100.10069 0.88195,-2.293051 0.70555,-0.881947 -0.0882,-1.058333 0.88194,-1.058333 1.6757,-0.264584 1.41111,-1.146527 1.94028,-0.881943 0.0882,-0.97014 -1.14653,-0.352777 -1.4993,-0.264583 -1.76389,0.881944 -1.41111,-0.440974 -1.23473,1.5875 -0.17638,-1.322916 -1.85209,-0.352777 -2.29305,0.17639 v 1.499303 l 0.79375,2.204863 1.05833,0.08819 -0.70556,1.146527 0.79375,1.234723 v 1.940277 l 1.32292,1.234728 z"
       id="path4404" />
    <path
       style="fill:#aa4400;stroke:#000000;stroke-width:0.264583px;stroke-linecap:butt;stroke-linejoin:miter;stroke-opacity:1"
       d="m 127.44097,107.68542 -0.97014,3.79236 1.23472,1.05833 3.35139,-1.14653 0.61736,-2.11666 2.64584,1.67569 1.4993,-1.4993 0.26459,-3.175 -4.14514,-0.44098 1.76389,-2.38125 -0.35278,-2.64583 -1.49931,-0.70556 -1.76389,0.70556 -0.61736,2.38125 -0.79375,-0.52917 0.70556,-2.55764 -0.26458,-2.645831 -1.32292,-1.41111 -1.94028,0.352777 -1.14653,0.970139 1.41111,4.145145 -0.17638,0.88194 -3.2632,-3.263195 -1.32292,1.234725 -0.70555,1.94028 0.35278,1.76388 1.67569,0.44098 3.175,0.0882 0.26458,0.61736 -2.73402,0.0882 -2.11667,0.61736 -1.05833,1.23472 0.79375,2.38125 2.02847,1.23472 3.175,-2.11666 z"
       id="path4016" />
    <path
       style="fill:#00ffff;stroke:#000000;stroke-width:0.264583px;stroke-linecap:butt;stroke-linejoin:miter;stroke-opacity:1"
       d="m 131.49792,109.36111 -0.88195,-3.175 2.38125,-0.17639 -2.46944,-0.88194 -1.23473,-0.88195 -0.26458,-0.70555 -0.79375,-0.17639 -2.02847,-1.94028 0.97014,1.94028 -0.79375,0.97014 0.61736,1.4993 0.17639,0.97014 1.41111,-0.79375 1.32292,0.35278 z"
       id="path3318" />
    <path
       style="fill:#aa4400;stroke:#000000;stroke-width:0.264583px;stroke-linecap:butt;stroke-linejoin:miter;stroke-opacity:1"
       d="m 117.21042,97.807639 1.05833,-1.76389 -0.17639,-1.322917 2.02847,-1.234723 1.23472,-0.08819 0.35278,-0.881943 -1.23472,0.08819 -1.49931,1.234723 -1.5875,0.352776 -0.61736,-1.675693 -1.23472,0.176387 0.35278,1.499306 1.14653,0.79375 -0.17639,0.529167 -0.17639,1.234723 z"
       id="path4369" />
    <path
       style="fill:#808000;stroke:#000000;stroke-width:0.264583px;stroke-linecap:butt;stroke-linejoin:miter;stroke-opacity:1"
       d="m 104.06944,125.76528 1.5875,-5.02709 1.94028,-1.5875 2.02847,-0.79375 1.76389,-0.26458 2.20486,-1.49931 2.20486,-0.17638 2.46945,-0.0882 v -1.05833 l -2.99861,-1.5875 -0.79375,-0.26458 -1.05833,-0.35278 -0.97014,-1.05834 0.0882,-1.23472 1.05833,-2.02847 0.26459,-4.23333 -1.41111,-3.175 -2.29306,-2.645838 -3.175,-2.20486 -4.93889,-0.617363 -3.968748,0.881946 -3.263196,2.20486 -1.675694,2.204865 -1.76389,3.175 -0.176387,3.0868 0.264584,1.94028 1.322916,2.29306 -0.264583,1.05833 -0.79375,0.70556 -2.204863,0.52916 -2.293054,1.32292 -0.529166,0.97014 0.705553,0.35277 4.056947,-0.26458 2.116666,1.5875 2.38125,0.97014 1.940277,0.79375 2.204858,1.94028 1.32292,2.73403 0.26458,2.46944 -0.52916,2.73403 v 1.05833 l 0.97014,0.88195 1.67569,-0.44098 0.44097,-1.32291 -0.26458,-2.38125 z"
       id="path4640" />
    <path
       style="fill:#ffff00;stroke:#000000;stroke-width:0.264583px;stroke-linecap:butt;stroke-linejoin:miter;stroke-opacity:1"
       d="m 103.09931,117.91597 3.61597,-1.5875 0.97014,-2.64583 -1.23473,-2.38125 -3.0868,-1.23472 -3.792364,0.61736 -2.38125,1.4993 -0.440971,2.64584 1.852084,1.94027 2.557641,1.23473 z"
       id="path4578" />
    <path
       style="fill:#008000;stroke:#000000;stroke-width:0.264583px;stroke-linecap:butt;stroke-linejoin:miter;stroke-opacity:1;fill-opacity:1"
       d="m 89.178931,102.89877 3.24287,-2.74397 2.61924,-3.492323 3.928864,-5.612659 -0.249451,-0.748356 -1.371984,0.311814 -3.118144,2.494516 -4.178315,5.113758 -1.122532,2.49452 z"
       id="path4901" />
    <path
       style="fill:#008000;stroke:#000000;stroke-width:0.264583px;stroke-linecap:butt;stroke-linejoin:miter;stroke-opacity:1"
       d="m 88.991844,103.5224 2.120336,-1.74616 0.748356,0.43653 -0.436542,1.1849 -1.247256,2.61924 -2.245064,4.30304 -3.367595,3.80414 -3.61705,2.6816 -6.111563,2.36979 -6.298652,0.56127 -5.300845,-0.62363 -3.554685,-1.12253 -6.485739,-3.74178 -5.612662,-7.54591 -2.61924,-7.732995 -1.559073,-8.481353 -0.124725,-9.292071 0.935443,-9.167344 2.494515,-7.920088 3.305233,-7.358819 4.427765,-6.859918 7.047008,-7.171733 10.913504,-5.550296 8.231902,-2.182702 9.666247,-1.309621 5.924476,-0.748356 6.173922,-0.68599 3.92886,0.311814 8.16954,1.122532 8.48136,1.184894 8.79317,2.369791 6.73519,2.806329 6.5481,4.365403 4.42777,4.614855 4.42776,6.485739 3.11814,6.423377 2.30743,6.485741 1.43435,7.296457 0.68599,5.924476 -0.24945,7.670636 -1.24726,8.730803 -3.18051,8.917899 -3.61705,5.11375 -5.05139,4.3654 -5.42557,2.30743 -6.11156,0.81072 -6.61047,-0.43654 -5.61266,-1.74616 -4.30304,-3.24287 -3.61705,-4.05359 -0.81071,-2.80633 0.37417,-1.74616 0.62363,0.18709 1.87089,3.67941 1.6838,1.80852 2.99341,2.55688 4.36541,1.99561 4.42776,1.1849 6.11156,-0.0624 3.8665,-0.43654 4.73959,-1.93325 4.11595,-3.11814 2.86869,-3.8665 2.80633,-6.29865 1.30962,-4.989032 0.93544,-4.801944 0.18709,-6.236287 -0.12472,-7.047008 -0.74836,-5.300845 -1.49671,-4.989031 -2.12034,-5.612659 -2.74396,-5.986838 -3.74178,-5.675024 -5.36321,-5.113755 -4.92666,-3.305234 -6.7352,-3.42996 -10.16515,-2.868692 -10.16515,-1.434346 -8.29426,-0.374179 -8.418993,0.311817 -10.289876,1.371984 -7.421184,2.057974 -6.672828,2.806329 -6.049201,3.429961 -5.17612,4.739579 -4.614855,6.423377 -3.242868,5.924475 -2.993419,8.543714 -1.371983,5.737386 -0.498904,9.229709 0.623628,7.79536 1.496711,6.797556 2.369788,6.672833 2.993419,4.67721 4.178313,3.30524 4.801944,2.30742 6.922281,0.74836 3.866499,0.0624 5.799749,-1.6838 4.427765,-3.11814 3.928861,-3.8665 z"
       id="path5068" />
    <path
       style="fill:#008000;stroke:#000000;stroke-width:0.264583px;stroke-linecap:butt;stroke-linejoin:miter;stroke-opacity:1"
       d="m 115.30898,105.58037 0.74836,-0.87308 -0.31182,-1.87089 -0.87308,-3.55468 -1.30962,-4.240679 -2.36979,-4.614851 -0.68599,-0.997808 -0.99781,-0.06236 -0.43654,1.184894 1.43435,3.118146 2.1827,5.862111 0.87308,3.492317 0.99781,1.93325 z"
       id="path5103" />
    <path
       style="fill:#008000;stroke:#000000;stroke-width:0.264583px;stroke-linecap:butt;stroke-linejoin:miter;stroke-opacity:1"
       d="m 88.430578,116.80569 2.868692,-0.31181 1.933249,1.49671 3.429958,1.43434 1.746163,1.06017 1.6838,1.87089 1.12253,2.30743 -0.0624,2.24506 -0.49891,2.99342 0.12473,1.18489 -0.74835,-0.56126 -2.057982,-2.80633 -3.118143,-1.80853 -1.746163,-1.06017 -1.309619,-2.24506 -0.748355,-3.18051 -0.810718,-1.55907 z"
       id="path5169" />
    <path
       style="fill:#008000;stroke:#000000;stroke-width:0.264583px;stroke-linecap:butt;stroke-linejoin:miter;stroke-opacity:1"
       d="m 98.907543,130.27607 -0.124727,-0.93544 -1.74616,-1.80852 -3.180509,-1.87089 -1.683797,-1.80852 -0.935443,-2.24507 -0.685993,-2.43215 -1.247256,-1.37198 -1.434349,-0.87308 -1.371981,-0.18709 -2.806332,1.55907 -2.931054,1.49671 -3.242871,0.87308 -2.432153,0.31182 -1.247257,0.4989 -0.124727,0.93544 0.561266,1.49671 1.122532,1.30962 1.683798,1.1849 1.122532,1.24725 1.434348,1.1849 2.369788,0.4989 5.113758,0.93544 4.427765,0.12473 h 2.61924 l 1.683798,-0.24945 1.496711,0.31181 1.06017,0.12473 z"
       id="path5204" />
    <path
       style="fill:#008000;stroke:#000000;stroke-width:0.264583px;stroke-linecap:butt;stroke-linejoin:miter;stroke-opacity:1"
       d="m 78.078337,129.34063 0.561266,-0.56126 -1.74616,-1.87089 -1.559073,-1.43435 -1.434346,-1.55907 -0.498904,-1.87089 -0.311814,-0.4989 -2.432153,0.0624 -2.80633,0.24946 h -3.991226 l -2.806329,-0.24946 -1.746161,0.18709 -0.436541,0.62363 2.369791,1.6838 4.178313,1.74616 2.432153,0.87308 3.67941,1.12253 3.180508,0.74836 1.995612,0.4989 z"
       id="path5239" />
    <path
       style="fill:#008000;stroke:#000000;stroke-width:0.264583px;stroke-linecap:butt;stroke-linejoin:miter;stroke-opacity:1"
       d="m 104.20839,130.4008 0.4989,0.56127 1.12253,-0.686 1.49671,-2.05797 2.1827,-1.24726 2.49452,-1.37198 1.37198,-1.62144 0.74836,-2.24506 0.62363,-2.61924 1.30962,-1.62144 0.74835,-0.43654 0.68599,-0.43654 h -1.74616 l -2.30743,0.31182 -1.99561,1.37198 -3.24287,0.99781 -1.80852,1.30962 -0.99781,1.12253 -1.12253,3.24287 -0.37418,1.74616 0.12473,1.80852 z"
       id="path5274" />
    <path
       style="fill:#008000;stroke:#000000;stroke-width:0.264583px;stroke-linecap:butt;stroke-linejoin:miter;stroke-opacity:1"
       d="m 108.26197,127.90629 -0.68599,0.9978 -0.62362,1.30962 0.62362,0.43654 1.6838,-0.4989 2.05798,-0.0624 2.61924,0.24945 2.49451,-0.12473 4.17832,-0.24945 3.24287,-0.56127 1.80852,-0.62362 2.12034,-1.30963 3.11814,-3.05578 0.87309,-2.1827 -0.18709,-0.93544 -1.6838,-0.37418 -4.17832,-0.68599 -3.67941,-1.6838 -3.05578,-1.80852 -1.49671,0.24945 -1.55907,0.99781 -1.12253,1.24725 -0.62363,1.99561 -0.68599,2.55689 -1.37199,1.93324 -2.86869,1.49671 z"
       id="path5309" />
    <path
       style="fill:#008000;stroke:#000000;stroke-width:0.264583px;stroke-linecap:butt;stroke-linejoin:miter;stroke-opacity:1"
       d="m 127.09557,129.27827 -0.24945,-0.62363 2.49451,-1.99561 2.24507,-2.36979 0.56126,-1.74616 0.81072,-0.93545 2.05797,0.18709 3.49233,0.24945 4.11595,-0.24945 3.80413,-0.0624 0.49891,0.56126 -2.12034,1.43435 -4.17831,1.99561 -5.73739,1.74616 -4.67722,1.30963 z"
       id="path5344" />
  </g>
</svg>
