<?xml version="1.0" encoding="UTF-8" standalone="no"?>
<!-- Created with Inkscape (http://www.inkscape.org/) -->

<svg
   width="210mm"
   height="297mm"
   viewBox="0 0 210 297"
   version="1.1"
   id="svg5"
   inkscape:version="1.1.1 (c3084ef, 2021-09-22)"
   sodipodi:docname="abdomen.svg"
   xmlns:inkscape="http://www.inkscape.org/namespaces/inkscape"
   xmlns:sodipodi="http://sodipodi.sourceforge.net/DTD/sodipodi-0.dtd"
   xmlns="http://www.w3.org/2000/svg"
   xmlns:svg="http://www.w3.org/2000/svg">
  <sodipodi:namedview
     id="namedview7"
     pagecolor="#ffffff"
     bordercolor="#999999"
     borderopacity="1"
     inkscape:pageshadow="0"
     inkscape:pageopacity="0"
     inkscape:pagecheckerboard="0"
     inkscape:document-units="mm"
     showgrid="false"
     inkscape:zoom="1"
     inkscape:cx="329.5"
     inkscape:cy="302.5"
     inkscape:window-width="3760"
     inkscape:window-height="2107"
     inkscape:window-x="80"
     inkscape:window-y="25"
     inkscape:window-maximized="0"
     inkscape:current-layer="layer1"
     inkscape:snap-global="false" />
  <defs
     id="defs2" />
  <g
     inkscape:label="Lager 1"
     inkscape:groupmode="layer"
     id="layer1">
    <path
       id="path4935"
       style="fill:#552200;stroke:#000000;stroke-width:0.779724px;stroke-linecap:butt;stroke-linejoin:miter;stroke-opacity:1"
       d="m 40.366126,35.152448 -6.75711,0.51931 v 4.41945 l 2.33917,6.4967 3.1189,0.26041 -2.08027,3.37932 2.33917,3.63821 v 5.71849 l 3.89863,3.63821 1.81986,-2.07876 2.59959,-6.75863 -0.86653,-9.51813 -0.69292,0.42184 0.51931,3.89863 -3.1189,5.19766 -1.55945,-3.1189 0.51931,-3.63821 0.52083,-1.55945 -3.37932,-2.33918 -1.04013,-4.41794 3.63972,-0.52082 1.81835,4.93876 2.61787,-0.58174 -0.27869,-3.05647 -0.51931,-3.89863 z" />
    <path
       id="path4612"
       style="fill:#552200;stroke:#000000;stroke-width:0.779724px;stroke-linecap:butt;stroke-linejoin:miter;stroke-opacity:1"
       d="m 72.854166,41.909558 -7.53684,1.30055 -6.49821,3.89863 -5.19766,5.71697 -4.67835,5.9789 -3.63822,11.43547 1.03863,11.69588 4.15904,8.05766 9.3567,8.57698 10.91615,5.197662 8.57698,2.59959 6.49821,0.2589 0.0762,-17.828602 -1.6356,5.61341 -9.87753,3.37931 -3.63821,-3.1189 2.85849,-11.17656 -3.63821,2.85848 -9.35671,6.23781 -5.97738,-3.63822 -2.33918,-7.01752 3.1189,-3.63822 6.2378,-1.81986 8.05615,-0.26041 -0.77972,-1.81835 -9.3567,-0.26042 -4.93725,-1.29903 -1.04014,-5.19918 2.07876,-5.71698 3.89863,-3.63972 9.61711,9.61711 0.51931,-2.59958 -4.15752,-12.21519 3.3778,-2.85849 5.71849,-1.04014 3.89862,4.15904 0.77973,7.79725 -2.07877,7.53684 2.33918,1.55945 1.81835,-7.01753 4.61438,-1.84576 0.064,-14.78888 z" />
    <path
       id="path3099"
       style="fill:#ff8080;stroke:#000000;stroke-width:0.779724px;stroke-linecap:butt;stroke-linejoin:miter;stroke-opacity:1"
       d="m 1.640276,-130.4097 -27.29038,1.55945 -5.41695,8.12619 8.27544,-1.23812 23.32627001,-0.22691 23.84708999,1.59143 21.89781,3.93061 20.59724,4.45144 3.18437,2.33917 2.66355,3.89863 -18.7134,11.695874 -16.37423,23.001894 -17.15394,31.57887 -20.27286999,9.74656 -18.32354001,1.16959 -10.52629,-6.62766 -11.30601,5.06821 h -10.91615 l -7.01753,5.06821 -8.57698,1.94932 8.18712,15.5944998 0.77972,20.2728602 -6.62766,6.62766 -9.61712,8.38204 -12.99491,9.9415 -13.645186,11.11108 -10.52629,10.46081 -6.2378,13.12589 -3.1189,12.47559 -4.28849,7.01753 -7.01753,-3.11889 -11.69588,-14.81477 -6.36725,-16.95904 -4.5489,-20.07792 -1.23507,-19.75355 0.8452,-17.67326017 4.22301,-23.45723983 7.86274,-21.37696 8.38205,-15.91888 9.16177,-14.10054 11.0456,-11.761356 11.43697,-9.030809 16.179296,-10.006973 18.25806,-6.88808 21.76683,-5.19767 9.83489,-1.47112 4.13619,-6.06572 0.12946,-1.55944 -2.59959,0.12946 -18.45299,3.50876 -22.35162,4.67835 -23.13285,10.39684 -20.531746,15.334093 -17.93369,20.272855 -12.2167,20.53326 -9.3567,24.95121 -4.15753,23.1313398 -0.42184,14.32593 0.68074,13.2248602 1.19243,13.52337 1.92647,11.68674 4.54891,17.54382 6.10835,14.16602 11.43546,15.33409 12.21519,7.277922 8.16123,2.53108 3.01534,0.32742 -0.0761,-2.66509 -0.44316,-15.529002 5.19766,-16.37423 10.136426,-15.5945 15.85491,-12.21519 21.5719,-8.57698 7.53683,-10.65574 5.71849,-6.75863 10.13643,-5.45807 9.09629,-0.51931 8.83739,4.93876 6.10835,4.41794 3.24835,1.29904 4.28848,-1.03863 5.84795001,-2.33918 H 9.437566 l 13.51423,7.01753 15.33562,5.19766 20.01244,-1.04013 10.91617,1.81986 13.51573,3.1189 11.95477,-0.26042 4.67835,-5.45808 -2.07878,-6.2378 -8.83738,-4.41794 -22.87093,3.63821 -15.07517,-2.85848 -16.89355,-9.3567102 -9.87752,-11.17656 -13.77466,-6.75711 -16.37423,-0.26043 -14.81476,3.1189 -13.25532,8.31808 -13.77464,-2.08027997 -6.49822,-7.79725003 -1.29904,-9.0962898 2.59808,-5.71849 11.95629,-6.2378 14.03505,6.75863 15.07519,3.63821 20.01243,-1.29903 17.87124,-5.33929 0.0625,-0.89852 5.45806,-13.77615 15.59451,-30.66818 12.73602,-16.895056 15.33409,-8.05615 10.13642,-0.127929 10.39684,-0.132496 17.412874,9.356702 17.93366,22.092719 4.93877,12.4756 -0.26051,18.7134 -4.67835,15.85341 -12.47559,18.7133998 -14.29395,6.75863 -4.561094,1.7193502 9.056704,12.35073 1.48178,-2.63462 9.3567,-4.67835 7.79724,-6.2378002 8.96684,-17.15395 3.50875,-12.4755998 2.17777,-3.85447 3.28033,-2.38334 3.29096,2.23409 2.55696,5.1733 4.2885,18.71340983 0.38985,18.71340017 -0.77971,18.71341 -4.2885,16.37422 -7.40738,14.42492 -8.96684,6.23781 -8.96685,-0.77972 -6.23778,-6.62767 -3.11892,-10.13644 -3.89861,-12.4756 -4.14686,-9.42371 -6.63984,5.39564 -4.807814,1.68889 -3.24835,1.6889 1.42849,1.43001 2.72904,1.6889 14.035054,13.51574 4.67835,11.95628 2.33918,12.73452 9.09781,1.04014 11.95477,-1.29904 9.0978,-7.53835 9.35671,-20.79218 4.93724,-28.84983 -1.29903,-34.8272202 -7.27796,-30.1503798 -10.6558,-26.25025 -19.23273,-26.771061 -18.9738,-14.035057 -27.029964,-13.77464 -36.90749,-8.31656 z" />
    <path
       id="path2866"
       style="fill:#1a1a1a;stroke:#000000;stroke-width:0.779724px;stroke-linecap:butt;stroke-linejoin:miter;stroke-opacity:1"
       d="m 84.291146,-91.942757 -4.41945,2.599588 -2.59808,-1.040138 -1.81986,3.638214 -5.71849,1.55945 -4.41794,1.040141 -1.29903,5.19766 -3.63973,1.04014 -1.81835,3.37931 -4.41945,2.07876 -0.2589,1.81987 -1.04014,2.59807 -1.55945,5.45808 -4.41794,0.77972 -0.26041,5.45808 -3.89862,3.63973 v 5.71697 l -4.41794,2.59959 -1.55945,5.45808 -2.86,2.85848 v 5.19918 l -3.3778,3.1189 2.33917,6.75711 -1.30055,3.37932 1.04014,4.93725 -2.33918,4.1590398 4.15904,4.93876 2.33918,3.89863003 6.2378,4.15751997 4.41794,-2.33917 0.51931,4.15904 2.86,1.29903 1.29904,3.3793202 2.85849,-1.0401402 5.71848,2.0802702 4.15904,0.2589 3.3778,1.04014 3.89863,-1.04014 7.27794,-0.77972 2.33917,-5.1976602 2.33918,1.81986 0.77972,-0.77973 1.29904,-1.30055 6.49822,-1.03862 1.55945,-1.81987 4.41793,-0.77972 2.860004,-2.85848997 2.33918,1.55944997 2.07876,-2.08026997 2.07877,-1.29904003 2.86,-0.51931 2.07876,-2.33918 0.51931,-3.37931 4.41945,0.51931 1.81835,-2.0787598 3.37932,-4.93877 -0.51932,-3.1189 2.85849,-1.55945 v -3.89862 l 1.04014,-2.59808 2.85849,-3.89862 -2.07876,-3.89863 2.59807,-3.1189 -1.29904,-3.1189 1.81987,-1.04014 v -5.45808 l -1.81987,-4.15903 -3.37931,-3.1189 1.04014,-4.15753 -3.89863,-3.89863 0.51931,-3.37931 -4.15752,-2.85849 -0.52083,-4.15904 -5.71697,-1.81986 0.2589,-3.3778 -6.4967,-2.33917 -1.30055,-3.63973 -6.757124,-1.29904 -2.07876,-4.417937 -8.05767,1.038625 -3.1189,-3.1189 z" />
    <path
       id="path2226"
       style="fill:#ffe680;stroke:#000000;stroke-width:0.779724px;stroke-linecap:butt;stroke-linejoin:miter;stroke-opacity:1"
       d="m -41.505014,-28.265702 -5.59819,2.92092 -6.3581,3.31688 -2.59808,5.71849 1.29904,9.0962898 6.49821,7.79725003 0.96096,0.14467 12.81368,1.93559997 13.25533,-8.31807 14.81478,-3.11891 16.37423,0.26042 10.06028,4.93572 0.25128,-1.96759 -1.21527,-0.75841 -1.29904,-1.30055 -0.38986,-2.07876 1.19395,-0.8528198 -1.08887,-1.21071 -0.6244,0.37463 -1.55945,0.12945 -1.47416,-1.96606 -45.09157,5.1748098 0.0411,0.0396 0.52083,3.24986 -2.08028,2.98794 -3.63821,0.77973003 -3.89862,-0.12945003 -4.15904,-0.51932 -2.77777,-1.58837 -1.76962,-1.01121 -0.65028,-4.15904 1.81987,-2.7290398 0.66246,-0.31981 0.0228,-2.96205 -2.24475,0.68378 h -3.1189 l -1.69042,-2.47013 0.91069,-2.59808 3.63821,-1.69041 h 2.55239 0.3061 l 0.20406,0.30609 4.92202,0.14925 0.20255,-1.36452 3.89862,-0.65027 3.50877,1.81986 0.25432,0.43098 4.66921,0.14163 10.80346,0.32438 -9.09933,-2.19603 z" />
    <path
       id="path6051"
       style="fill:#ffe680;stroke:#000000;stroke-width:0.779724px;stroke-linecap:butt;stroke-linejoin:miter;stroke-opacity:1"
       d="m -31.956434,-156.48024 -14.15079,0.55129 -19.84949,3.67628 -17.6428,5.69717 -17.642796,7.35104 -18.1941,10.29177 -18.01135,12.86546 -15.98893,15.62039 -14.51934,19.665218 -9.37193,17.82707 -7.35257,18.56265 -5.69717,24.80957 -4.04329,21.6860998 -2.0209,24.0770702 0.36702,21.86885 2.38943,18.92966 4.0433,17.46005 9.18919,22.788692 10.10901,14.51933 10.84305,11.39435 13.78378,9.00491 16.72297,7.53531 18.19562,4.59459 19.480946,3.125 13.04821,0.18274 7.90234,-0.18274 h 21.87037 l 0.0609,-7.94498 -11.82228,-2.16404 -6.98402,-1.4696 -4.22758,-3.49201 -3.30774,-3.67628 -3.12194,-2.19603 2.82345,3.41282 4.89308,5.76723 -1.65386,1.65387 -4.04331,-0.73404 -5.88144,-1.47112 -9.37345,-2.20516 -10.843056,-3.30774 -7.16677,-2.57371 -12.31418,-5.14587 -6.98402,-4.96162 1.28685,-1.83814 5.14589,-0.55129 8.27088,0.73557 h 11.76135 l 8.270876,-0.73557 7.16677,-0.18427 0.83455,2.31634 1.55488,4.66768 3.03514,2.25542 -1.93256,-2.25542 -1.65387,-4.41032 0.36854,-2.75644 3.67476,-1.47113 7.1683,-0.91831 9.5562,-2.5737 8.63789,-4.41032 7.15459,-3.97477 0.10508,-13.633012 -4.68749,5.295132 -10.65878,7.90233 -18.01135,6.98402 -18.56111,1.65388 -15.621916,-1.83814 -10.47603,-3.30775 -19.11241,-11.02732 -16.54175,-22.237402 -7.71806,-22.79021 -4.59459,-24.99384 -0.36702,-27.3832802 2.75645,-27.0162598 7.35105,-23.33998 9.74046,-21.68763 13.04822,-20.214979 20.7678,-21.136339 32.162136,-16.35595 24.25981,-6.43273 18.02505,-2.97575 10.07095,-1.66301 19.79922,-2.07571 15.72396001,-0.59242 18.20626999,1.17873 20.04747,2.13968 22.91509,3.62145 25.91367,6.98402 19.847974,8.26936 19.29819,12.86546 13.04822,13.599508 13.04821,19.11393 9.18919,18.92965 6.79975,19.1124 3.66714,18.64945 0.56042,2.85392 2.0209,17.4600498 -0.73404,22.6044102 -3.26662,22.86027 -0.40966,2.86914 -9.37345,26.2807 -10.65879,15.07063 -14.88635,12.865462 -15.98894,6.79975 -18.01134,2.38944 -16.383374,-1.08279 0.91678,6.0581 0.7645,0.17057 0.55129,2.75644 -0.63353,1.5823 0.48886,3.21941 1.24725,-3.88339 2.38944,-2.75646 6.06418,0.55129 10.291774,0.73556 12.1299,-0.73556 11.2116,-0.18427 1.46959,1.6554 -6.24846,4.22604 -12.31417,5.88145 -16.907244,5.14588 -7.40891,2.07419 2.07875,13.73047 14.519344,-1.46959 19.48094,-4.5946 18.37837,-6.79974 9.00491,-5.88145 15.07063,-11.76136 9.37345,-11.94716 7.90234,-15.253372 6.06418,-15.07063 4.04331,-16.90724 1.83814,-15.43765 0.73556,-20.95206 -0.18427,-16.7245 -1.47113,-17.4585402 -2.20515,-10.2917598 -2.20517,-10.29176 -6.06419,-21.50336 -6.79975,-17.82707 -9.74047,-18.00983 -11.94714,-16.540222 -13.78377,-14.152316 -16.17169,-13.78377 -21.87037,-13.23249 -20.583534,-8.63789 -22.23892,-6.43121 -20.76627,-2.75797 -23.3415,-0.36702 -26.83199,0.36702 z" />
    <path
       id="path6049"
       style="fill:#ffe680;stroke:#000000;stroke-width:0.779724px;stroke-linecap:butt;stroke-linejoin:miter;stroke-opacity:1"
       d="m -0.52985399,-133.50729 -24.80957001,0.91831 -20.9673,2.79605 -9.3567,1.24725 -21.87038,6.06572 -19.66521,8.26935 -17.827076,10.10901 -15.25338,13.966527 -13.60103,18.929651 -9.55619,17.46006 -8.82217,25.17812 -4.04178,16.90876 -1.47112,27.19901 1.83814,22.97296 4.41032,20.03223 6.98402,19.66522 8.82217,13.78377 12.31265,9.740482 14.1508,6.79975 20.400766,2.20516 11.39435,0.18427 17.09152,-4.96161 13.04821,-9.189182 9.35518,-9.20746 0.16447,-21.51706 -2.02242,13.02841 -7.53835,10.39533 -16.89354,9.61711 -13.12588,2.751882 -13.124356,0.36702 -4.80932,-0.26041 -4.8078,-3.377802 -1.04013,-3.89863 0.77972,-4.41945 2.33918,-8.83588 4.41945,-10.39684 4.678346,-8.57697 7.53684,-8.57698 11.17656,-5.19766 20.01244,-1.81987 7.16525,2.59046 3.49049,4.42707 1.78941,8.71861 0.16904,-22.22978 -1.69803,-0.39443 -3.63822,-4.41794 -0.65027,-5.45808 4.28849,-7.9267 1.85032,-1.73914 0.0305,-4.05245 -1.10106,0.59242 -5.71849,6.75862 -7.53684,10.65574 -21.57189,8.57698 -15.85491,12.21519 -10.136426,15.5945 -5.19766,16.37423 0.44316,15.529012 0.0761,2.66508 -3.01535,-0.32742 -8.16122,-2.53107 -12.21519,-7.277942 -11.43547,-15.33409 -6.10835,-14.16601 -4.5489,-17.54382 -1.92647,-11.68675 -1.19243,-13.52335 -0.68074,-13.2248702 0.42184,-14.32593 4.15753,-23.1313398 9.3567,-24.9512 12.2167,-20.53327 17.93368,-20.272855 20.531756,-15.334093 23.13285,-10.39684 22.35162,-4.67835 6.85915,-1.30361 11.59384,-2.20515 2.59959,-0.12945 -0.12945,1.55945 -4.13619,6.06571 0.12792,-0.0198 5.21898,-0.77972 5.41695,-8.12619 27.29038,-1.55945 39.50557,3.63972 36.9075,8.31657 27.029974,13.77464 18.97381,14.035049 19.23272,26.771069 10.65574,26.25024 5.71544,23.67806 1.5625,6.4723298 1.29904,34.8272102 -4.22606,24.69689 -0.71119,4.15295 -9.35671,20.79216 -9.0978,7.53835 -11.95477,1.29904 -9.09781,-1.04014 -2.33917,-12.7345 -4.67835,-11.95629 -9.02624,-8.69119 -9.638434,-0.10965 7.2292,5.42153 5.458084,5.9789 4.67835,9.3567 1.29904,14.55437 -0.2589,10.39684 -6.2378,5.458072 -18.713414,4.15753 -3.3321,-0.1325 0.48276,3.18896 3.9504,1.05689 18.011354,-0.18427 11.39434,-1.28533 13.96652,-5.69717 12.12991,-9.189192 8.45362,-11.39586 8.27087,-18.56111 3.23464,-12.32788 0.62439,-2.37573 2.75646,-14.15079 0.55281,-18.37837 -0.36854,-20.7678002 -1.44372,-10.2247498 -0.76145,-5.39564 -4.41032,-14.7036 -6.24846,-16.54023 -8.0866,-17.6428 -11.02732,-16.7245 -15.80618,-15.070626 -14.51781,-9.740472 -19.849494,-10.1075 -29.95546,-8.45361 -29.95698,-4.22758 z" />
    <path
       style="fill:#ffe680;stroke:#000000;stroke-width:0.779724px;stroke-linecap:butt;stroke-linejoin:miter;stroke-opacity:1"
       d="m -46.629584,-20.162362 0.83608,1.25336 0.38986,2.20972 -1.04014,2.07877 -0.74318,0.2269 -0.0228,2.96205 3.1052,-1.49854 9.22725,1.42849 3.59709,3.4691598 45.09157,-5.1748098 -0.0853,-0.1127 0.51932,-1.81987 1.6889,-0.77972 1.81986,0.90917 0.38986,2.86 -0.67464,0.4051 1.08887,1.21071 0.62591,-0.44622 2.07876,0.64876 1.29904,1.5594498 0.52083,2.33918 -0.26042,1.43 h -1.6889 l -0.865,-0.54063 -0.25128,1.96759 3.71436,1.82139 9.87753,11.17657 16.89354,9.3567002 15.07519,2.85849 22.87093,-3.63822 8.83739,4.41794 2.07876,6.2378 -4.67835,5.45808 -11.95478,0.26041 -13.51574,-3.1189 -10.91615,-1.81986 -20.01244,1.04014 -15.33561,-5.19767 -13.51422,-7.01752 h -3.5575 l -0.0168,1.98586 -0.0152,1.7818 h 2.54933 l 4.15904,1.94931 2.33917,2.20973 1.55945,2.27369 1.29904,3.57425 0.26041,4.15903 -0.52082,3.3778 -1.75438,2.08028 -2.53411,2.33918 -3.1189,1.62341 -4.43926,0.75992 -0.0259,3.14937 6.96879,0.8711 h 0.003 l 14.2513,0.16143 -3.11433,-8.3653 -4.22605,-9.18919 1.28533,-3.492 2.94072,0.18274 2.02241,2.94073 6.9825,13.60102 1.36147,4.40576 0.2056,0.002 2.97117,0.0335 -0.2863,-0.44621 2.08028,-3.37931 -3.1189,-0.26042 -2.33918,-6.4967 v -4.41945 l 6.75704,-0.51937 5.45808,1.04013 0.51931,3.89863 3.63972,-4.67835 4.15753,1.29904 5.19918,-2.59959 4.41793,0.77972 3.37932,1.04014 -0.26041,2.85849 -5.71849,2.59959 -4.15753,3.37931 -4.93876,0.77973 -2.59959,3.1189 0.17969,2.14729 5.74744,0.0655 3.42957,-3.77224 6.49821,-3.89862 7.53684,-1.30055 13.25533,4.67835 6.28654,4.7149 9.638434,0.10965 -5.008824,-4.82455 -2.72903,-1.6889 -1.42849,-1.43 3.24835,-1.68891 4.807804,-1.6889 6.63984,-5.39564 -0.14163,-0.32285 -1.16958,-7.79725 2.02698,-3.60318 -9.056694,-12.35073 -11.29384,4.25803 -24.69079,4.15904 -14.03505,-3.89863 -15.3356,-9.3567002 -7.79726,-8.57697 -1.55945,-7.7972598 0.52083,-7.41195 -3.4585,-0.10356 -0.44013,1.14675 -1.94931,1.04014 -1.94931,-1.29904 0.31829,-1.00968 -16.67119999,-0.50256 h -0.006 -0.006 l -13.26418001,0.86197 -5.97281,-1.44067 -0.003,-0.002 -10.80346,-0.32437 -2.96356,-0.0899 -1.70565,-0.0518 1.43458,2.42751 -0.38987,2.47013 -3.24835,0.64877 -2.98945,0.13096 -1.94931,-1.04014 -1.03862,-2.72904 0.31676,-2.14424 -3.60166,-0.10964 z"
       id="path5525" />
    <path
       style="fill:#ffe680;stroke:#000000;stroke-width:0.779724px;stroke-linecap:butt;stroke-linejoin:miter;stroke-opacity:1"
       d="m 25.488906,-24.507192 -17.87124,5.33929 -6.74186999,0.43707 16.67727999,0.50256 0.46143,-1.46046 2.20822,-0.51931 1.55945,1.55945 -0.20864,0.54215 3.4585,0.10356 z"
       id="path5266" />
    <path
       id="path3886"
       style="fill:#ffe680;stroke:#000000;stroke-width:0.779724px;stroke-linecap:butt;stroke-linejoin:miter;stroke-opacity:1"
       d="m -29.289824,10.980968 -9.09629,0.51931 -9.03537,4.86566 -0.0304,4.05244 4.64788,-4.3692 5.84794,-2.85849 11.30602,1.29904 3.89862,3.89862 2.72904,7.01753 -1.69041,7.40739 -8.57698,6.36725 -12.7345,2.47014 -5.57991,-1.29598 -0.0716,9.35213 15.79704,0.17968 7.64192,-9.3506 9.18918,-7.35257 4.04331,-0.9183 0.73403,2.20515 -10.87655,15.53968 13.21114,0.15077 6.71601,-1.49245 6.84086,0.85436 0.0265,-3.14937 -0.49801,0.0853 -2.59957,-0.19495 -2.59959999,-0.19494 -2.14424001,-0.84521 -2.14426,-0.84369 -2.79298,-2.47014 -1.4955,-2.98794 -1.03861,-2.79452 v -4.09355 l 1.88384,-3.24835 2.14422,-2.98945 3.05344,-2.40466 3.57423001,-1.36452 H 4.694306 5.848676 l 0.0318,-3.76766 h -6.83934999 l -5.84792001,2.33917 -4.28849,1.03863 -3.24835,-1.29904 -6.10835,-4.41794 z" />
    <path
       style="fill:#ffe680;stroke:#000000;stroke-width:0.779724px;stroke-linecap:butt;stroke-linejoin:miter;stroke-opacity:1"
       d="m -14.615154,118.36069 3.62145,3.86969 4.03264,4.49866 2.80062,6.88503 0.32285,6.53172 -1.46959,8.82216 0.36701,3.49049 -2.20515,-1.65387 -6.0642,-8.26935 -8.05766,-4.67378 5.29969,4.12249 5.06212,5.41391 0.4523,2.67269 -1.47112,0.91832 -3.12347,-0.36703 -4.41184,-0.91983 -4.96161,0.73557 h -7.71806 l -13.04974,-0.36703 -3.24682,-0.59393 -0.0609,7.94498 11.02733,-0.91984 h 7.71806 l 8.82216,-1.65386 9.74048,0.36853 9.5562,1.65388 9.00643,-0.36855 8.45363,-1.28533 7.71958,-0.18427 13.96652,2.02089 10.6603,0.73556 22.42015,0.36702 19.66522,-0.55129 -2.07876,-13.73047 -6.37487,1.78484 -9.18918,1.47112 -0.73556,-1.83814 7.35104,-5.88144 6.617,-6.98402 0.40662,-1.26249 -0.48885,-3.21941 -1.94018,4.85044 -9.18918,9.00491 -6.24846,3.85903 -5.32863,1.83814 -9.55772,1.65387 -12.31266,0.73556 -7.35104,0.36702 -7.71958,-0.73556 -6.06419,0.18427 -4.96313,1.47113 -1.83814,-1.28686 1.83814,-3.85902 2.02241,-2.94073 0.71423,-1.0645 -3.47069,1.98281 -4.41184,6.06571 -2.88437,1.76657 -0.79496,-2.66813 -0.71881,-6.35963 -0.11421,-3.72196 0.002,-4.45145 -0.67617,2.1412 -0.26042,4.67835 0.77973,7.01753 -1.29904,3.89862 -4.93881999,1.29904 -2.85849001,-2.59959 v -3.1189 l 1.55945,-8.05615 -0.77973,-7.27794 -3.89862,-8.05766 -6.49822,-5.71698 z"
       id="path3523" />
    <path
       style="fill:#ffe680;stroke:#000000;stroke-width:0.779724px;stroke-linecap:butt;stroke-linejoin:miter;stroke-opacity:1"
       d="m 12.589936,50.393638 0.74622,0.0929 9.3567,6.49821 6.75712,7.79725 4.15904,9.3567 -0.77973,12.47561 -3.1189,5.97739 -0.26041,3.63972 2.85849,3.1189 3.1189,1.038632 2.33917,0.77972 8.83739,4.67835 v 3.1189 l -7.27794,0.26042 -6.4967,0.51931 -1.44371,0.98227 7.52922,-0.56804 h 4.97684 l -1.59904,0.94876 -2.20516,1.28533 -3.86055,4.77887 -0.18732,0.78733 3.67933,-4.09508 4.59459,-2.94072 4.41184,-0.73556 9.00491,5.33015 10.84306,4.96161 12.31417,2.02241 4.19711,0.93202 -0.91678,-6.0581 -3.09758,-0.20406 -16.54023,-5.14589 -12.68119,-9.5562 -10.65878,-11.947162 -2.38943,-8.26935 1.10258,-5.14588 1.83814,0.55129 5.5129,10.84306 4.96313,5.33014 8.82064,7.535322 12.86547,5.87992 9.09781,2.43512 -0.48276,-3.18896 -3.16611,-0.1264 -8.57698,-2.59959 -10.91615,-5.197662 -9.3567,-8.57698 -4.15904,-8.05766 -1.03863,-11.69588 3.63822,-11.43547 4.67835,-5.9789 1.76809,-1.94474 -5.74744,-0.0655 0.0807,0.97161 -2.07876,2.59807 -2.59959,6.75864 -1.81986,2.07876 -3.89863,-3.63821 v -5.71849 l -2.05135,-3.192 -3.1783,-0.035 2.49909,8.09117 2.57218,10.47604 0.91983,5.51289 -2.20668,2.57219 -2.20516,-1.83662 -2.94073,-5.69717 -2.57218,-10.29177 -3.3184,-8.91049 z"
       id="path3521" />
    <path
       style="fill:#ffe680;stroke:#000000;stroke-width:0.779724px;stroke-linecap:butt;stroke-linejoin:miter;stroke-opacity:1"
       d="m -47.675804,49.706808 -0.0975,12.87765 0.29087,1.41782 -0.31676,2.04678 -0.16447,21.51706 2.22343,-2.18841 6.06572,-14.1508 6.24846,-5.14587 2.20515,1.28685 -1.28685,3.49201 -3.67476,7.71806 -6.617,12.68119 -5.23878,5.918 -0.10355,13.631482 1.11628,-0.61982 4.21235,0.97466 4.057,2.15033 3.67628,4.0433 2.02089,7.16677 1.42239,1.95693 -1.97367,-8.38966 -2.38943,-4.59459 -5.94541,-3.90929 h -0.002 l -2.41684,0.15839 -2.08028,-1.03863 1.55945,-2.86 6.75863,-3.89862 6.4967,-1.55945 2.33918,-2.078772 0.77972,-3.1189 -3.89862,-6.75711 -0.77973,-5.71849 0.52083,-9.09629 5.19766,-9.3567 4.93876,-6.49821 9.61561,-6.49822 4.98292,-1.10715 -13.2142,-0.15077 -0.70054,1.00207 -7.71958,10.29176 -9.5562,8.0866 -0.73557,-6.43273 3.30775,-7.35104 4.67225,-5.71849 z"
       id="path1733" />
    <path
       id="path5569"
       style="fill:#008000;stroke:#000000;stroke-width:0.792582px;stroke-linecap:butt;stroke-linejoin:miter;stroke-opacity:1"
       d="m -32.567114,-159.59762 -14.37161,0.56043 -20.15559,3.74024 -17.91693,5.79616 -17.916926,7.48049 -18.47583,10.47147 -18.29004,13.08933 -16.23716,15.89451 -14.74473,20.009388 -9.51813,18.13775 -7.46526,18.88702 -5.7855,25.24512 -4.10574,22.0653098 -2.05287,24.4958602 0.37311,22.25263 2.42598,19.26166 4.10574,17.76462 9.33234,23.186172 10.26435,14.77366 11.01057,11.59385 13.9985,9.16176 16.9834,7.66781 18.47582,4.67378 19.784006,3.17981 13.25076,0.18743 8.02569,-0.18743 h 22.20846 l 11.19789,-0.93505 h 7.83989 l 8.9577,-1.6828 9.89124,0.37309 9.70544,1.68436 9.14502,-0.37465 0.0746,-2.36505 -0.0731,0.0118 -9.00642,0.36855 -9.55622,-1.65388 -9.74047,-0.36852 -8.82216,1.65385 h -7.71807 l -11.02732,0.91985 h -21.87037 l -7.90234,0.18271 -13.04821,-0.18271 -19.480946,-3.12499 -18.19561,-4.5946 -16.72298,-7.53531 -13.78377,-9.00492 -10.84306,-11.39434 -10.10901,-14.51934 -9.18919,-22.788682 -4.0433,-17.46005 -2.38943,-18.92967 -0.36701,-21.86886 2.02089,-24.0770602 4.04329,-21.6860998 5.69717,-24.80957 7.35257,-18.56265 9.37193,-17.82707 14.51934,-19.665218 15.98893,-15.62039 18.01135,-12.86546 18.1941,-10.29177 17.642796,-7.35104 17.6428,-5.69717 19.84949,-3.67628 14.15079,-0.55129 22.42167,0.36701 26.832,-0.36701 0.0533,0.002 0.099,-3.1189 -27.24773,0.37311 z"
       sodipodi:nodetypes="ccccccccccccccccccccccccccccccccccccccccccccccccccccccccccccccccccccccccc" />
    <path
       id="path6205"
       style="fill:#008000;stroke:#000000;stroke-width:0.792582px;stroke-linecap:butt;stroke-linejoin:miter;stroke-opacity:1"
       d="m 17.449506,-159.59762 -0.099,3.1189 23.2882,0.3655 20.76628,2.75797 22.23892,6.43121 20.583544,8.63789 21.87037,13.23249 16.17168,13.78377 13.78376,14.152317 11.94717,16.540221 9.74046,18.00983 6.79977,17.82708 6.06418,21.50335 4.41032,20.5835298 1.47114,17.4585302 0.18419,16.7245 -0.73554,20.95207 -1.83816,15.43764 -4.04331,16.90725 -6.06417,15.07063 -7.90233,15.253372 -9.37347,11.94716 -15.07063,11.76136 -9.00489,5.88143 -18.37839,6.79978 -19.48092,4.59457 -14.519364,1.4696 -19.66519,0.5513 -22.42016,-0.36702 -10.66031,-0.73557 -13.9665,-2.0209 -7.71959,0.18418 -8.38054,1.2747 -0.0746,2.36505 8.58459,-1.30971 7.83838,-0.18566 14.18429,2.05591 10.82477,0.74774 22.76891,0.37463 19.9698,-0.5604 14.744724,-1.49702 19.78248,-4.67378 18.66313,-6.92007 9.14502,-5.98349 15.30515,-11.96694 9.51814,-12.15578 8.02416,-15.5199 6.15862,-15.334092 4.10725,-17.20419 1.86557,-15.70721 0.74621,-21.31757 -0.18566,-17.0169 -1.49398,-17.7646302 -4.47884,-20.9429298 -6.15863,-21.87799 -6.90633,-18.13927 -9.89126,-18.32507 -12.13139,-16.829574 -13.99698,-14.399024 -16.42297,-14.02439 -22.20999,-13.46397 -20.903344,-8.78867 -22.58157,-6.54542 -21.09065,-2.80518 z" />
    <path
       id="path3691"
       style="fill:#552200;stroke:#000000;stroke-width:0.779724px;stroke-linecap:butt;stroke-linejoin:miter;stroke-opacity:1"
       d="m -60.218424,46.848318 -20.01244,1.81987 -2.63918,19.62562 0.0396,0.12641 1.55945,1.30055 -0.26041,-9.61712 2.59959,-3.89862 6.75711,-1.29904 3.89863,1.81835 -0.2589,6.2378 -5.71849,9.61711 5.71849,-5.45807 7.53684,-5.97739 4.41794,5.71698 -1.55945,7.53835 -12.99492,0.77972 8.57698,4.67835 0.26041,3.3778 -3.63972,5.19918 -6.49671,2.85849 -8.05766,-5.19767 0.26041,4.93726 -5.71849,0.16903 -1.43,10.640512 13.12588,-2.751882 16.89354,-9.61711 7.53835,-10.39533 2.33918,-15.07519 -2.08028,-10.13643 -3.49049,-4.42707 z" />
    <path
       style="fill:#800000;stroke:#000000;stroke-width:0.779724px;stroke-linecap:butt;stroke-linejoin:miter;stroke-opacity:1"
       d="m -124.54574,91.682518 4.28849,-7.01753 3.1189,-12.47559 6.2378,-13.12538 10.52629,-10.46132 13.645186,-11.11108 12.99542,-9.94149 9.61661,-8.38205 6.62766,-6.62766 -0.77972,-20.2728602 -8.18712,-15.5944998 8.57698,-1.94931 7.01753,-5.06822 h 10.91615 l 11.30601,-5.06821 10.52629,6.62766 18.32354001,-1.16958 21.88607999,-7.23711 15.54073,-34.08833 16.37423,-23.001891 18.7134,-11.695877 -2.66405,-3.89863 -3.18387,-2.33917 -20.59774,-4.45093 -21.89728,-3.93112 -23.84658999,-1.59194 -23.32680001,0.22742 -23.45673,3.50876 -21.76733,5.19817 -18.25856,6.88757 -16.179296,10.006476 -11.43597,9.031817 -11.0461,11.760855 -9.16177,14.10003 -8.38205,15.91939 -7.86223,21.37746 -4.22352,23.45673983 -0.8447,17.67377017 1.23457,19.75304 4.5484,20.07791 6.36775,16.95902 11.69588,14.8148 z"
       id="path1307"
       sodipodi:nodetypes="ccccccccccccccccccccccccccccccccccccccccccc" />
    <path
       id="path2917"
       style="fill:#008000;stroke:#000000;stroke-width:0.779724px;stroke-linecap:butt;stroke-linejoin:miter;stroke-opacity:1"
       d="m 95.207296,-95.061658 -10.39684,0.132491 v 3.505723 l 3.1189,3.1189 8.05767,-1.038625 2.07876,4.417937 6.757124,1.29904 1.30055,3.63973 6.4967,2.33917 -0.2589,3.3778 5.71697,1.81986 0.52083,4.15904 4.15752,2.85849 -0.51931,3.37931 3.89863,3.89863 -1.04014,4.15753 3.37931,3.1189 1.81987,4.15903 v 5.45808 l -1.81987,1.04014 1.29904,3.1189 -2.59807,3.1189 2.07876,3.89863 -2.85849,3.89862 -1.04014,2.59808 v 3.89862 l -2.85849,1.55945 0.51932,3.1189 -3.37932,4.93877 -1.81835,2.0787598 -4.41945,-0.51931 -0.51931,3.37931 -2.07876,2.33918 -2.86,0.51931 -2.07877,1.29904003 -2.07876,2.08026997 -2.33918,-1.55944997 -2.860004,2.85848997 -4.41793,0.77972 -1.55945,1.81987 -6.49822,1.03862 -1.29904,1.30055 v 8.0622402 l 3.1189,-0.5254 15.854924,-5.9773902 14.29395,-6.75862 12.47561,-18.7134098 4.67835,-15.8534 0.26041,-18.7134 -4.93876,-12.47561 -17.93368,-22.092714 z" />
    <path
       style="fill:#ff0000;fill-opacity:1;stroke:#000000;stroke-width:0.779724px;stroke-linecap:butt;stroke-linejoin:miter;stroke-opacity:1"
       d="m 106.2529,26.575468 3.50877,-6.2378 9.35671,-4.67835 7.79724,-6.2378002 8.96684,-17.15396 3.50875,-12.4755998 2.17771,-3.85403 3.28039,-2.38377 3.29152,2.23343 2.5564,5.17396 4.28849,18.71339983 0.38986,18.71340017 -0.77971,18.71341 -4.2885,16.37423 -7.40738,14.42492 -8.96685,6.23781 -8.96684,-0.77975 -6.23778,-6.62767 -3.11892,-10.13641 -3.89861,-12.4756 -4.28849,-9.74657 z"
       id="path1422"
       sodipodi:nodetypes="cccccccccccccccccccccc" />
    <path
       style="fill:#ffffff;stroke:#000000;stroke-width:0.779724px;stroke-linecap:butt;stroke-linejoin:miter;stroke-opacity:1"
       d="m -40.985194,-15.139832 -1.03964,-2.72904 0.51982,-3.50876 3.89862,-0.64977 3.50877,1.81936 1.68941,2.85899 -0.38987,2.46913 -3.24885,0.64977 -2.98895,0.12997 z"
       id="path2312" />
    <path
       style="fill:#ffffff;stroke:#000000;stroke-width:0.779724px;stroke-linecap:butt;stroke-linejoin:miter;stroke-opacity:1"
       d="m -49.432224,-13.710332 2.98895,-0.90968 1.03963,-2.07927 -0.38986,-2.20921 -1.03963,-1.55946 h -2.859 l -3.63872,1.6894 -0.90967,2.59909 1.6894,2.46913 z"
       id="path2540" />
    <path
       style="fill:#ffffff;stroke:#000000;stroke-width:0.779724px;stroke-linecap:butt;stroke-linejoin:miter;stroke-opacity:1"
       d="m -40.335434,-1.1047722 -4.15853,-0.51982 -4.5484,-2.59908 -0.64977,-4.15854 1.81936,-2.7290298 3.76868,-1.81937 9.22674,1.4295 3.63872,3.5087698 0.51981,3.24885 -2.07926,2.98895 -3.63872,0.77972003 z"
       id="path2608" />
    <path
       style="fill:#ffffff;stroke:#000000;stroke-width:0.779724px;stroke-linecap:butt;stroke-linejoin:miter;stroke-opacity:1"
       d="m 18.014006,-19.688222 2.20921,-0.51982 1.55946,1.55945 -0.64978,1.68941 -1.94932,1.03963 -1.94929,-1.29955 z"
       id="path2643" />
    <path
       style="fill:#ffffff;stroke:#000000;stroke-width:0.779724px;stroke-linecap:butt;stroke-linejoin:miter;stroke-opacity:1"
       d="m 18.143966,-12.150882 -0.38986,-2.85899 -1.81935,-0.90968 -1.68942,0.77972 -0.51982,1.81936 1.55946,2.07927 1.55943,-0.12996 z"
       id="path2711" />
    <path
       style="fill:#ffffff;stroke:#000000;stroke-width:0.779724px;stroke-linecap:butt;stroke-linejoin:miter;stroke-opacity:1"
       d="m 17.364226,-9.6817522 1.81935,-1.2995498 2.07928,0.64978 1.29954,1.5594498 0.51982,2.33918 -0.25993,1.42949 h -1.68942 l -2.07925,-1.29954 -1.29954,-1.29954 z"
       id="path2746" />
    <path
       style="fill:#ffffff;stroke:#000000;stroke-width:0.779724px;stroke-linecap:butt;stroke-linejoin:miter;stroke-opacity:1"
       d="m -36.956624,13.190188 11.30602,1.29954 3.89862,3.89862 2.72904,7.01753 -1.6894,7.40739 -8.57698,6.36776 -12.73551,2.46912 -7.27743,-1.6894 -3.63872,-4.41844 -0.64977,-5.45808 4.28849,-7.9272 6.4977,-6.10785 z"
       id="path2781" />
    <path
       style="fill:#ffffff;stroke:#000000;stroke-width:0.779724px;stroke-linecap:butt;stroke-linejoin:miter;stroke-opacity:1"
       d="m -4.338114,44.379188 -2.79401,-2.46913 -1.49448,-2.98895 -1.03963,-2.79401 -1e-5,-4.09355 1.88435,-3.24886 2.14425,-2.98895 3.05391,-2.40415 3.57373001,-1.36452 H 4.693716 8.397406 l 4.15853,1.94932 2.33918,2.20922 1.55946,2.2742 1.29953,3.57374 0.25993,4.15853 -0.51982,3.37881 -1.75438,2.07927 -2.53411,2.33917 -3.1189,1.62443 -4.93827,0.8447 -2.59907,-0.19494 -2.59906999,-0.19495 -2.14423001,-0.8447 z"
       id="path2816"
       sodipodi:nodetypes="ccccccccccccccccccccccccc" />
    <path
       id="path4197"
       style="fill:#552200;stroke:#000000;stroke-width:0.779724px;stroke-linecap:butt;stroke-linejoin:miter;stroke-opacity:1"
       d="m 86.109496,46.587908 -0.064,14.78888 0.5848,-0.233 4.41794,2.07876 1.04013,7.79725 -4.85043,6.54695 2.02546,0.72338 9.8425,1.04624 -0.77973,9.3567 -4.41945,4.41945 -7.79725,-4.93876 -0.18275,0.62439 -0.0762,17.828602 18.713414,-4.15753 6.2378,-5.458072 0.2589,-10.39684 -1.29904,-14.55437 -4.67835,-9.3567 -5.458084,-5.9789 z" />
    <path
       id="path4404"
       style="fill:#552200;stroke:#000000;stroke-width:0.779724px;stroke-linecap:butt;stroke-linejoin:miter;stroke-opacity:1"
       d="m 59.339946,34.112308 -5.19918,2.59959 -4.15753,-1.29904 -3.63972,4.67835 0.27869,3.05647 2.06048,-0.45839 4.41945,-3.63822 3.63822,-0.26041 -1.04014,2.59959 -3.63821,0.26041 -5.28447,3.21637 0.86653,9.51813 2.07876,-2.59807 -0.26041,-3.1189 2.59959,-3.1189 4.93876,-0.77973 4.15753,-3.37931 5.71849,-2.59959 0.26041,-2.85849 -3.37932,-1.04014 z" />
    <path
       style="fill:#aa4400;stroke:#000000;stroke-width:0.779724px;stroke-linecap:butt;stroke-linejoin:miter;stroke-opacity:1"
       d="m 89.258856,78.290128 0.74927,0.26651 -7.01753,0.52083 2.59959,9.3567 -4.67835,-8.83739 -3.89863,-1.04014 -2.51279,1.41325 -0.86652,3.52552 -2.85849,11.17656 3.63821,3.1189 9.87753,-3.37931 1.81835,-6.2378 7.79725,4.93876 4.41945,-4.41945 0.77973,-9.3567 z"
       id="path6126" />
    <path
       style="fill:#aa4400;stroke:#000000;stroke-width:0.779724px;stroke-linecap:butt;stroke-linejoin:miter;stroke-opacity:1"
       d="m 86.630326,61.143788 -5.19918,2.07876 -1.81835,7.01753 -2.33918,-1.55945 -0.55128,2.24476 1.58991,0.35483 0.77973,2.07876 3.63972,2.59959 4.50627,1.60818 4.85043,-6.54695 -1.04013,-7.79725 z"
       id="path4016" />
    <path
       style="fill:#aa4400;stroke:#000000;stroke-width:0.779724px;stroke-linecap:butt;stroke-linejoin:miter;stroke-opacity:1"
       d="m 43.485036,54.385668 3.1189,-5.19817 -0.51982,-3.89863 5.97788,-3.63872 3.63871,-0.25989 1.03964,-2.59908 -3.63871,0.25989 -4.41845,3.63872 -4.67835,1.03963 -1.81936,-4.93825 -3.63871,0.51981 1.03964,4.41844 3.37881,2.33918 -0.51982,1.55945 -0.51982,3.63872 z"
       id="path4369" />
    <path
       id="path4640"
       style="fill:#808000;stroke:#000000;stroke-width:0.779724px;stroke-linecap:butt;stroke-linejoin:miter;stroke-opacity:1"
       d="m -1.219724,48.668188 0.10508,42.46304 3.79355,-0.6183 9.0978,3.63822 3.63821,7.017522 -2.85848,7.79725 -10.65726,4.67836 -2.95747,0.13401 0.099,39.89238 4.93876,-1.29904 1.29904,-3.89862 -0.77973,-7.01753 0.26041,-4.67835 4.67836,-14.81478 5.71697,-4.67835 5.9789,-2.33917 5.19767,-0.77973 6.49821,-4.41945 6.4967,-0.51931 7.27794,-0.26042 v -3.1189 l -8.83739,-4.67835 -2.33917,-0.77972 -3.1189,-1.038632 -2.85849,-3.1189 0.26041,-3.63972 3.1189,-5.97739 0.77973,-12.47561 -4.15904,-9.3567 -6.75712,-7.79725 -9.3567,-6.49821 z" />
    <path
       style="fill:#008000;fill-opacity:1;stroke:#000000;stroke-width:0.779724px;stroke-linecap:butt;stroke-linejoin:miter;stroke-opacity:1"
       d="m -39.123554,69.389198 9.55671,-8.08646 7.71888,-10.29185 11.57834,-16.54047 -0.73513,-2.2054 -4.04323,0.91892 -9.18915,7.35132 -12.31346,15.0702 -3.30809,7.35134 z"
       id="path4901" />
    <path
       style="fill:#008000;stroke:#000000;stroke-width:0.779724px;stroke-linecap:butt;stroke-linejoin:miter;stroke-opacity:1"
       d="m -39.674894,71.227028 6.24861,-5.14592 2.2054,1.28645 -1.28649,3.49189 -3.67565,7.71888 -6.61619,12.68103 -9.92428,11.210772 -10.65942,7.90266 -18.01073,6.98375 -18.56208,1.65406 -15.621546,-1.83783 -10.47563,-3.30809 -19.11343,-11.027 -16.54048,-22.237742 -7.71888,-22.78908 -4.59458,-24.99449 -0.36756,-27.3836602 2.75674,-27.0160998 7.35132,-23.34044 9.7405,-21.68639 13.04859,-20.216125 20.76749,-21.135043 32.162006,-16.35669 24.25936,-6.4324 28.0965,-4.63917 19.79856,-2.07545 15.72537001,-0.59211 18.20598999,1.17882 20.04701,2.13851 22.91523,3.62183 25.9134,6.98375 19.848564,8.27024 19.2972,12.86481 13.04861,13.599942 13.04858,19.113426 9.18913,18.92965 6.79998,19.11343 4.22702,21.5026 2.02161,17.4593898 -0.73513,22.6053102 -3.67567,25.72961 -9.37294,26.28099 -10.65942,15.07018 -14.88641,12.864802 -15.98911,6.79998 -18.01072,2.38919 -19.481014,-1.28648 -16.54047,-5.14592 -12.68103,-9.55672 -10.65942,-11.945902 -2.38915,-8.27023 1.10267,-5.14592 1.83784,0.55135 5.51349,10.8432 4.96215,5.32969 8.82156,7.535112 12.86483,5.88105 13.04858,3.49189 18.010724,-0.18389 11.39455,-1.28648 13.96754,-5.69728 12.12967,-9.189132 8.45401,-11.39455 8.27023,-18.56208 3.85944,-14.70264 2.75674,-14.15129 0.55135,-18.3783 -0.36755,-20.7674802 -2.20541,-15.6215498 -4.41079,-14.70264 -6.24863,-16.54046 -8.08643,-17.64317 -11.027,-16.72426 -15.80534,-15.070195 -14.51883,-9.740503 -19.848594,-10.10807 -29.95662,-8.45401 -29.95662,-4.22701 -24.44312999,-1.1027 -24.81071001,0.91892 -30.32419,4.04323 -21.87017,6.06483 -19.66478,8.27023 -17.826946,10.10807 -15.25399,13.967511 -13.59995,18.929647 -9.55671,17.45938 -8.82158,25.17827 -4.04323,16.90803 -1.47026,27.19989 1.83783,22.97287 4.41079,20.03235 6.98375,19.66479 8.82158,13.7837 12.31347,9.740522 14.15129,6.79995 20.399906,2.20541 11.39455,0.18389 17.09182,-4.96214 13.04859,-9.189142 11.57832,-11.39455 z"
       id="path5068"
       sodipodi:nodetypes="cccccccccccccccccccccccccccccccccccccccccccccccccccccccccccccccccccccccccccccccccccccccccccccccccccccc" />
    <path
       style="fill:#008000;stroke:#000000;stroke-width:0.779724px;stroke-linecap:butt;stroke-linejoin:miter;stroke-opacity:1"
       d="m 37.881506,77.291848 2.20542,-2.57296 -0.91894,-5.5135 -2.57296,-10.47561 -3.85944,-12.49725 -6.98375,-13.59994 -2.02161,-2.94053 -2.94054,-0.18377 -1.28648,3.49187 4.22702,9.18915 6.4324,17.2756 2.57296,10.29184 2.94054,5.69727 z"
       id="path5103" />
    <path
       id="path5169"
       style="fill:#008000;stroke:#000000;stroke-width:0.779724px;stroke-linecap:butt;stroke-linejoin:miter;stroke-opacity:1"
       d="m -32.408724,108.96593 -9.53794,0.62134 5.94694,3.90927 2.38942,4.5946 1.97368,8.38968 2.77169,3.81332 4.28695,4.99208 3.3108,2.5752 8.05766,4.67379 6.0642,8.26935 2.20514,1.65388 -0.36701,-3.49048 1.4696,-8.82217 -0.32284,-6.53172 -2.80062,-6.88503 -4.03265,-4.49867 -3.62145,-3.86967 -4.53825,-1.85643 -7.01752,-2.85999 z" />
    <path
       style="fill:#008000;stroke:#000000;stroke-width:0.779724px;stroke-linecap:butt;stroke-linejoin:miter;stroke-opacity:1"
       d="m -10.453404,150.0699 -0.45214,-2.67215 -5.06135,-5.41428 -8.61182,-6.69745 -4.28559,-4.99144 -4.19441,-5.77051 -2.02162,-7.16753 -3.67565,-4.04321 -4.05788,-2.15013 -4.21236,-0.97418 -8.27024,4.59456 -8.63779,4.4108 -9.55672,2.57296 -7.16754,0.91893 -3.67565,1.47025 -0.36757,2.75674 1.65404,4.41079 3.3081,3.85944 4.96214,3.49189 3.30809,3.67564 4.22702,3.49189 6.98374,1.47026 15.07021,2.75673 13.04859,0.36758 h 7.71888 l 4.96215,-0.73513 4.41079,0.91891 3.12431,0.36757 z"
       id="path5204"
       sodipodi:nodetypes="ccccccccccccccccccccccccccccc" />
    <path
       id="path5239"
       style="fill:#008000;stroke:#000000;stroke-width:0.779724px;stroke-linecap:butt;stroke-linejoin:miter;stroke-opacity:1"
       d="m -86.540234,124.33959 -7.16677,0.18419 -8.270876,0.73557 h -11.76136 l -8.27088,-0.73557 -5.14588,0.55129 -1.28685,1.83813 6.98403,4.96164 12.31417,5.14587 7.16677,2.57369 10.843056,3.30774 9.37345,2.20517 5.88144,1.47111 4.0433,0.73404 1.65387,-1.65385 -4.89308,-5.76724 -2.82345,-3.41282 -1.83967,-1.29447 -1.37366,-1.6036 -3.03818,-2.25696 -1.55488,-4.66768 z" />
    <path
       id="path5274"
       style="fill:#008000;stroke:#000000;stroke-width:0.779724px;stroke-linecap:butt;stroke-linejoin:miter;stroke-opacity:1"
       d="m 38.914786,110.15987 -7.52921,0.56803 -5.05451,3.4372 -5.19767,0.77971 -5.97889,2.33918 -5.71699,4.67835 -4.00216,12.6736 -0.002,4.45143 0.11434,3.72197 0.7188,6.35964 0.79495,2.66812 2.88437,-1.76658 4.41186,-6.06571 3.47067,-1.98279 1.54879,-2.31027 4.98752,-4.58086 5.31187,-4.09052 3.54379,-6.9429 1.75287,-4.95095 1.06601,-1.18634 0.18743,-0.78735 3.86056,-4.77887 2.20515,-1.28531 1.59907,-0.94878 z" />
    <path
       style="fill:#008000;stroke:#000000;stroke-width:0.779724px;stroke-linecap:butt;stroke-linejoin:miter;stroke-opacity:1"
       d="m 17.114026,143.08618 -2.02161,2.94051 -1.8378,3.85944 1.8378,1.28648 4.96215,-1.47026 6.06485,-0.18389 7.71888,0.73513 7.3513,-0.36758 12.31348,-0.73513 9.55672,-1.65406 5.32969,-1.8378 6.24863,-3.85947 9.18913,-9.00536 2.57299,-6.4324 -0.55135,-2.75674 -4.96215,-1.1027 -12.31347,-2.02161 -10.8432,-4.96215 -9.00536,-5.32969 -4.41079,0.73512 -4.59457,2.94054 -4.74575,5.28246 -1.75328,4.95077 -3.54385,6.94317 -5.31178,4.09043 -4.98667,4.57992 z"
       id="path5309"
       sodipodi:nodetypes="ccccccccccccccccccccccccccc" />
    <path
       style="fill:#008000;stroke:#000000;stroke-width:0.779724px;stroke-linecap:butt;stroke-linejoin:miter;stroke-opacity:1"
       d="m 72.616506,147.12939 -0.73513,-1.83783 7.35131,-5.88105 6.6162,-6.98375 1.65403,-5.14592 2.38919,-2.75677 6.06482,0.55136 10.291874,0.73512 12.12967,-0.73512 11.21075,-0.1839 1.47028,1.65403 -6.24862,4.22702 -12.31345,5.88105 -16.908054,5.14592 -13.78373,3.85947 z"
       id="path5344" />
    <path
       id="path959"
       style="fill:#808000;stroke:#000000;stroke-width:0.779724px;stroke-linecap:butt;stroke-linejoin:miter;stroke-opacity:1"
       d="m -1.219724,48.668188 -11.69587,2.59807 -9.61561,6.49822 -4.93876,6.49821 -5.19766,9.3567 -0.52083,9.09629 0.77973,5.71849 3.89862,6.75711 -0.77972,3.1189 -2.33918,2.078772 -6.4967,1.55945 -6.75863,3.89862 -1.55945,2.86 2.08028,1.03863 11.95478,-0.77973 6.2378,4.67836 7.01752,2.86 5.71849,2.33917 6.49822,5.71698 3.89862,8.05766 0.77973,7.27794 -1.55945,8.05615 v 3.1189 l 2.85849001,2.59959 -0.099,-39.89238 -2.7595,0.1264 -7.53835,-3.63822 -5.45808,-5.71848 1.30055,-7.797262 7.01753,-4.41793 7.3815,-1.20157 z" />
    <path
       style="fill:#ffff00;stroke:#000000;stroke-width:0.779724px;stroke-linecap:butt;stroke-linejoin:miter;stroke-opacity:1"
       d="m 1.899706,113.64478 10.65623,-4.67835 2.859,-7.79725 -3.63874,-7.017522 -9.09678,-3.63871 -11.17607,1.81935 -7.01753,4.41843 -1.29953,7.797272 5.45807,5.71796 7.53735,3.63874 z"
       id="path4578" />
    <path
       id="path1508"
       style="fill:#008000;stroke:#000000;stroke-width:0.779724px;stroke-linecap:butt;stroke-linejoin:miter;stroke-opacity:1"
       d="m 84.810456,-94.929167 -10.13642,0.127922 -15.33409,8.056152 -12.73602,16.895051 -15.5945,30.66818 -5.45808,13.77616 -1.04014,14.81477 1.55945,7.7972598 7.79726,8.57697 15.3356,9.3567002 14.03505,3.89863 21.57189,-3.63364 V 7.3427478 l -0.77972,0.77973 -2.33918,-1.81986 -2.33917,5.1976602 -7.27794,0.77972 -3.89863,1.04014 -3.3778,-1.04014 -4.15904,-0.2589 -5.71848,-2.0802702 -2.85849,1.0401402 -1.29904,-3.3793202 -2.86,-1.29903 -0.51931,-4.15904 -4.41794,2.33917 -6.2378,-4.15751997 -2.33918,-3.89863003 -4.15904,-4.93876 2.33918,-4.1590398 -1.04014,-4.93725 1.30055,-3.37932 -2.33917,-6.75711 3.3778,-3.1189 v -5.19918 l 2.86,-2.85848 1.55945,-5.45808 4.41794,-2.59959 v -5.71697 l 3.89862,-3.63973 0.26041,-5.45808 4.41794,-0.77972 1.55945,-5.45808 1.04014,-2.59807 0.2589,-1.81987 4.41945,-2.07876 1.81835,-3.37931 3.63973,-1.04014 1.29903,-5.19766 4.41794,-1.040141 5.71849,-1.55945 1.81986,-3.638214 2.59808,1.040138 4.41945,-2.599588 0.51931,0.519313 z" />
    <path
       id="path4252"
       style="fill:#552200;stroke:#000000;stroke-width:0.779724px;stroke-linecap:butt;stroke-linejoin:miter;stroke-opacity:1"
       d="m -80.230864,48.668188 -11.17656,5.19766 -7.53684,8.57698 -4.678346,8.57697 -4.41945,10.39684 -2.33918,8.83588 -0.77972,4.41945 1.04013,3.89863 4.8078,3.377802 4.80932,0.26041 13.124356,-0.36702 1.43,-10.640512 -3.1189,0.0914 0.77973,-6.2378 -3.63821,7.79725 -3.11891,1.29904 -6.498206,-2.59808 2.599586,-5.19918 3.3778,-3.89862 -5.197656,2.08027 -2.33918,-1.30055 2.33918,-5.97738 4.159026,-1.04014 7.53684,2.08027 -3.37931,-4.93876 -3.89863,-4.41794 2.33918,-4.41945 5.9789,-3.89863 3.1189,1.04014 2.03917,6.63071 z" />
    <path
       id="path3522"
       style="fill:#aa4400;stroke:#000000;stroke-width:0.779724px;stroke-linecap:butt;stroke-linejoin:miter;stroke-opacity:1"
       d="m -72.174714,54.905988 -6.75711,1.29904 -2.59959,3.89862 0.26041,9.61712 0.0396,0.84673 2.55999,2.79148 4.67835,0.51931 0.77973,2.08028 2.85849,1.55945 -9.61712,1.03862 -0.66703,4.44535 0.14772,3.093 8.05766,5.19767 6.49671,-2.85849 3.63972,-5.19918 -0.26041,-3.3778 -8.57698,-4.67835 12.99492,-0.77972 1.55945,-7.53835 -4.41794,-5.71698 -7.53684,5.97739 -5.71849,5.45807 5.71849,-9.61711 0.2589,-6.2378 z" />
    <path
       id="path5497"
       style="fill:#aa4400;stroke:#000000;stroke-width:0.779724px;stroke-linecap:butt;stroke-linejoin:miter;stroke-opacity:1"
       d="m -88.028114,60.622958 -5.9789,3.89863 -2.33918,4.41945 3.89863,4.41794 3.37931,4.93876 -7.53684,-2.08027 -4.159026,1.04014 -2.33918,5.97738 2.33918,1.30055 5.197656,-2.08027 -3.3778,3.89862 -2.599586,5.19918 6.498206,2.59808 3.11891,-1.29904 3.63821,-7.79725 -0.77973,6.2378 8.83739,-0.26041 -0.26041,-4.93726 -0.14772,-3.093 -0.11269,0.75383 -3.89863,-1.55945 -2.59807,2.33917 -2.33918,-1.81986 -6.75863,2.85849 5.97891,-4.67835 1.55945,-2.59808 -1.55945,-3.89862 3.1189,1.81835 2.07876,0.26041 3.37931,-2.85849 0.2589,-3.37931 0.30001,0.32742 -0.0396,-0.84673 -1.55945,-1.30055 -2.07876,-6.75712 z" />
    <path
       style="fill:#00ffff;stroke:#000000;stroke-width:0.779724px;stroke-linecap:butt;stroke-linejoin:miter;stroke-opacity:1"
       d="m -96.345684,85.574668 6.75761,-2.85899 2.33918,1.81935 2.59909,-2.33917 3.89862,1.55946 0.77973,-5.19818 9.61661,-1.03964 -2.859,-1.55943 -0.77972,-2.07928 -4.67835,-0.51982 -2.85899,-3.11889 -0.25993,3.37882 -3.3788,2.85899 -2.07927,-0.25992 -3.1189,-1.81936 1.55945,3.89864 -1.55945,2.59907 z"
       id="path3283" />
    <path
       style="fill:#aa4400;stroke:#000000;stroke-width:0.779724px;stroke-linecap:butt;stroke-linejoin:miter;stroke-opacity:1"
       d="m 74.674036,49.187498 -5.71849,1.04014 -3.3778,2.85849 4.15752,12.21519 -0.51931,2.59958 -9.61711,-9.61711 -3.89863,3.63972 -2.07876,5.71698 1.04014,5.19918 4.93725,1.29903 9.3567,0.26042 0.77972,1.81835 -8.05615,0.26041 -6.2378,1.81986 -3.1189,3.63822 2.33918,7.01752 5.97738,3.63822 9.35671,-6.23781 3.63821,-2.85848 0.86652,-3.52552 -1.64625,0.92593 -0.51931,-2.85849 -1.81986,-4.41794 2.33917,-2.86 -2.85848,-5.71697 5.97738,5.71697 0.74927,0.166 0.55128,-2.24476 2.07877,-7.53684 -0.77973,-7.79725 z"
       id="path5738" />
    <path
       style="fill:#00ffff;stroke:#000000;stroke-width:0.779724px;stroke-linecap:butt;stroke-linejoin:miter;stroke-opacity:1"
       d="m 85.590196,88.433668 -2.5991,-9.35671 7.01753,-0.51982 -7.27742,-2.59907 -3.63874,-2.5991 -0.77972,-2.07925 -2.33917,-0.51982 -5.97789,-5.71799 2.859,5.71799 -2.33918,2.859 1.81936,4.41842 0.51982,2.859 4.15853,-2.33918 3.89863,1.03964 z"
       id="path3318" />
  </g>
</svg>
