<?xml version="1.0" encoding="UTF-8" standalone="no"?>
<!-- Created with Inkscape (http://www.inkscape.org/) -->

<svg
   width="210mm"
   height="297mm"
   viewBox="0 0 210 297"
   version="1.1"
   id="svg5"
   inkscape:version="1.1.1 (c3084ef, 2021-09-22)"
   sodipodi:docname="abdomen.svg"
   xmlns:inkscape="http://www.inkscape.org/namespaces/inkscape"
   xmlns:sodipodi="http://sodipodi.sourceforge.net/DTD/sodipodi-0.dtd"
   xmlns="http://www.w3.org/2000/svg"
   xmlns:svg="http://www.w3.org/2000/svg">
  <sodipodi:namedview
     id="namedview7"
     pagecolor="#ffffff"
     bordercolor="#999999"
     borderopacity="1"
     inkscape:pageshadow="0"
     inkscape:pageopacity="0"
     inkscape:pagecheckerboard="0"
     inkscape:document-units="mm"
     showgrid="false"
     inkscape:zoom="4.35"
     inkscape:cx="329.77011"
     inkscape:cy="302.18391"
     inkscape:window-width="3760"
     inkscape:window-height="2107"
     inkscape:window-x="80"
     inkscape:window-y="25"
     inkscape:window-maximized="0"
     inkscape:current-layer="layer1"
     inkscape:snap-global="false" />
  <defs
     id="defs2" />
  <g
     inkscape:label="Lager 1"
     inkscape:groupmode="layer"
     id="layer1">
    <path
       id="path4935"
       style="fill:#552200;stroke:#000000;stroke-width:0.999999px;stroke-linecap:butt;stroke-linejoin:miter;stroke-opacity:1"
       d="M 439 345 L 430.33398 345.66602 L 430.33398 351.33398 L 433.33398 359.66602 L 437.33398 360 L 434.66602 364.33398 L 437.66602 369 L 437.66602 376.33398 L 442.66602 381 L 445 378.33398 L 448.33398 369.66602 L 447.22266 357.45898 L 446.33398 358 L 447 363 L 443 369.66602 L 441 365.66602 L 441.66602 361 L 442.33398 359 L 438 356 L 436.66602 350.33398 L 441.33398 349.66602 L 443.66602 356 L 447.02344 355.25391 L 446.66602 351.33398 L 446 346.33398 L 439 345 z "
       transform="scale(0.26458333)" />
    <path
       id="path4612"
       style="fill:#552200;stroke:#000000;stroke-width:0.999999px;stroke-linecap:butt;stroke-linejoin:miter;stroke-opacity:1"
       d="M 480.66602 353.66602 L 471 355.33398 L 462.66602 360.33398 L 456 367.66602 L 450 375.33398 L 445.33398 390 L 446.66602 405 L 452 415.33398 L 464 426.33398 L 478 433 L 489 436.33398 L 497.33398 436.66602 L 497.43164 413.80078 L 495.33398 421 L 482.66602 425.33398 L 478 421.33398 L 481.66602 407 L 477 410.66602 L 465 418.66602 L 457.33398 414 L 454.33398 405 L 458.33398 400.33398 L 466.33398 398 L 476.66602 397.66602 L 475.66602 395.33398 L 463.66602 395 L 457.33398 393.33398 L 456 386.66602 L 458.66602 379.33398 L 463.66602 374.66602 L 476 387 L 476.66602 383.66602 L 471.33398 368 L 475.66602 364.33398 L 483 363 L 488 368.33398 L 489 378.33398 L 486.33398 388 L 489.33398 390 L 491.66602 381 L 497.58398 378.63281 L 497.66602 359.66602 L 480.66602 353.66602 z "
       transform="scale(0.26458333)" />
    <path
       id="path3099"
       style="fill:#ff8080;stroke:#000000;stroke-width:0.264583px;stroke-linecap:butt;stroke-linejoin:miter;stroke-opacity:1"
       d="m 103.01128,35.101218 -9.260416,0.529166 -1.838129,2.757453 2.808097,-0.420129 7.915278,-0.077 8.09201,0.54002 7.43056,1.33377 6.98924,1.510501 1.08055,0.79375 0.90382,1.322916 -6.35,3.96875 -5.55625,7.805209 -5.82083,10.715625 -6.87917,3.307291 -6.217708,0.396875 -3.571875,-2.248958 -3.836458,1.719791 h -3.704167 l -2.38125,1.719792 -2.910416,0.661458 2.778125,5.291667 0.264583,6.879167 -2.248958,2.248958 -3.263366,2.844271 -4.409551,3.373437 -4.630208,3.770313 -3.571875,3.549655 -2.116667,4.453994 -1.058333,4.23333 -1.455208,2.38125 -2.38125,-1.05833 -3.96875,-5.02708 -2.160593,-5.754694 -1.543574,-6.813021 -0.419095,-6.702949 0.286803,-5.997051 1.432989,-7.95972 2.668053,-7.253821 2.844271,-5.401739 3.108854,-4.78472 3.748093,-3.990969 3.880897,-3.064415 5.490104,-3.395657 6.195489,-2.337324 7.386114,-1.763718 3.337263,-0.499194 1.40353,-2.058274 0.04393,-0.529166 -0.882115,0.04393 -6.261635,1.190625 -7.584551,1.5875 -7.849647,3.527949 -6.967019,5.203301 -6.085417,6.879166 -4.145481,6.967532 -3.175,8.466667 -1.410769,7.849134 -0.143142,4.861203 0.230995,4.487579 0.404624,4.588868 0.653709,3.965651 1.543574,5.953127 2.07274,4.80694 3.880385,5.2033 4.144967,2.46961 2.769339,0.85887 1.023194,0.1111 -0.02584,-0.90434 -0.150378,-5.26944 1.763718,-5.55625 3.439583,-5.291667 5.380032,-4.144968 7.319968,-2.910416 2.557467,-3.615801 1.940449,-2.293398 3.439584,-1.852083 3.086634,-0.176218 2.998782,1.675865 2.072741,1.499135 1.102259,0.440801 1.455204,-0.352436 1.98438,-0.79375 h 3.52794 l 4.58577,2.38125 5.20382,1.763718 6.7908,-0.352949 3.70417,0.617533 4.58628,1.058333 4.0566,-0.08837 1.5875,-1.852083 -0.70539,-2.116667 -2.99878,-1.499134 -7.76077,1.234551 -5.11544,-0.969968 -5.73247,-3.175 -3.35173,-3.792532 -4.67414,-2.292884 -5.55625,-0.08837 -5.027077,1.058333 -4.497917,2.822565 -4.674134,-0.705898 -2.205032,-2.645833 -0.440802,-3.086635 0.881603,-1.940448 4.057115,-2.116667 4.7625,2.293398 5.115449,1.234551 6.790795,-0.440801 6.06423,-1.811774 0.0212,-0.304893 1.85208,-4.674648 5.29167,-10.406602 4.3217,-5.732981 5.2033,-2.733685 3.43958,-0.04341 3.52795,-0.04496 5.90869,3.175 6.08541,7.496699 1.67587,4.233333 -0.0884,6.35 -1.5875,5.379519 -4.23333,6.35 -4.85035,2.293398 -1.54771,0.583427 3.0732,4.19096 0.50281,-0.894003 3.175,-1.5875 2.64583,-2.116667 3.04271,-5.820833 1.19062,-4.233333 0.73898,-1.307931 1.11311,-0.808736 1.11672,0.758092 0.86765,1.75545 1.45521,6.35 0.13229,6.35 -0.26458,6.35 -1.45521,5.556249 -2.51354,4.894792 -3.04271,2.11667 -3.04271,-0.26458 -2.11666,-2.24896 -1.05834,-3.439588 -1.32291,-4.233334 -1.40715,-3.197738 -2.25309,1.830896 -1.63143,0.573092 -1.10226,0.573093 0.48473,0.485241 0.92604,0.573093 4.7625,4.586282 1.5875,4.057113 0.79375,4.32119 3.08715,0.35295 4.0566,-0.4408 3.08715,-2.55798 3.175,-7.05539 1.67535,-9.789583 -0.4408,-11.817884 -2.46962,-10.230898 -3.6158,-8.907468 -6.52622,-9.084198 -6.43836,-4.7625 -9.17205,-4.674135 -12.52378,-2.822051 z" />
    <path
       id="path2866"
       style="fill:#1a1a1a;stroke:#000000;stroke-width:0.999999px;stroke-linecap:butt;stroke-linejoin:miter;stroke-opacity:1"
       d="M 495.33398 182 L 489.66602 185.33398 L 486.33398 184 L 484 188.66602 L 476.66602 190.66602 L 471 192 L 469.33398 198.66602 L 464.66602 200 L 462.33398 204.33398 L 456.66602 207 L 456.33398 209.33398 L 455 212.66602 L 453 219.66602 L 447.33398 220.66602 L 447 227.66602 L 442 232.33398 L 442 239.66602 L 436.33398 243 L 434.33398 250 L 430.66602 253.66602 L 430.66602 260.33398 L 426.33398 264.33398 L 429.33398 273 L 427.66602 277.33398 L 429 283.66602 L 426 289 L 431.33398 295.33398 L 434.33398 300.33398 L 442.33398 305.66602 L 448 302.66602 L 448.66602 308 L 452.33398 309.66602 L 454 314 L 457.66602 312.66602 L 465 315.33398 L 470.33398 315.66602 L 474.66602 317 L 479.66602 315.66602 L 489 314.66602 L 492 308 L 495 310.33398 L 496 309.33398 L 497.66602 307.66602 L 506 306.33398 L 508 304 L 513.66602 303 L 517.33398 299.33398 L 520.33398 301.33398 L 523 298.66602 L 525.66602 297 L 529.33398 296.33398 L 532 293.33398 L 532.66602 289 L 538.33398 289.66602 L 540.66602 287 L 545 280.66602 L 544.33398 276.66602 L 548 274.66602 L 548 269.66602 L 549.33398 266.33398 L 553 261.33398 L 550.33398 256.33398 L 553.66602 252.33398 L 552 248.33398 L 554.33398 247 L 554.33398 240 L 552 234.66602 L 547.66602 230.66602 L 549 225.33398 L 544 220.33398 L 544.66602 216 L 539.33398 212.33398 L 538.66602 207 L 531.33398 204.66602 L 531.66602 200.33398 L 523.33398 197.33398 L 521.66602 192.66602 L 513 191 L 510.33398 185.33398 L 500 186.66602 L 496 182.66602 L 495.33398 182 z "
       transform="scale(0.26458333)" />
    <path
       id="path2226"
       style="fill:#ffe680;stroke:#000000;stroke-width:0.999999px;stroke-linecap:butt;stroke-linejoin:miter;stroke-opacity:1"
       d="M 334 263.66602 L 326.82031 267.41211 L 318.66602 271.66602 L 315.33398 279 L 317 290.66602 L 325.33398 300.66602 L 326.56641 300.85156 L 343 303.33398 L 360 292.66602 L 379 288.66602 L 400 289 L 412.90234 295.33008 L 413.22461 292.80664 L 411.66602 291.83398 L 410 290.16602 L 409.5 287.5 L 411.03125 286.40625 L 409.63477 284.85352 L 408.83398 285.33398 L 406.83398 285.5 L 404.94336 282.97852 L 347.11328 289.61523 L 347.16602 289.66602 L 347.83398 293.83398 L 345.16602 297.66602 L 340.5 298.66602 L 335.5 298.5 L 330.16602 297.83398 L 326.60352 295.79688 L 324.33398 294.5 L 323.5 289.16602 L 325.83398 285.66602 L 326.68359 285.25586 L 326.71289 281.45703 L 323.83398 282.33398 L 319.83398 282.33398 L 317.66602 279.16602 L 318.83398 275.83398 L 323.5 273.66602 L 326.77344 273.66602 L 327.16602 273.66602 L 327.42773 274.05859 L 333.74023 274.25 L 334 272.5 L 339 271.66602 L 343.5 274 L 343.82617 274.55273 L 349.81445 274.73438 L 363.66992 275.15039 L 352 272.33398 L 334 263.66602 z "
       transform="scale(0.26458333)" />
    <path
       id="path6051"
       style="fill:#ffe680;stroke:#000000;stroke-width:0.999999px;stroke-linecap:butt;stroke-linejoin:miter;stroke-opacity:1"
       d="M 346.24609 99.230469 L 328.09766 99.9375 L 302.64062 104.65234 L 280.01367 111.95898 L 257.38672 121.38672 L 234.05273 134.58594 L 210.95312 151.08594 L 190.44727 171.11914 L 171.82617 196.33984 L 159.80664 219.20312 L 150.37695 243.00977 L 143.07031 274.82812 L 137.88477 302.64062 L 135.29297 333.51953 L 135.76367 361.56641 L 138.82812 385.84375 L 144.01367 408.23633 L 155.79883 437.46289 L 168.76367 456.08398 L 182.66992 470.69727 L 200.34766 482.24609 L 221.79492 491.91016 L 245.13086 497.80273 L 270.11523 501.81055 L 286.84961 502.04492 L 296.98438 501.81055 L 325.0332 501.81055 L 325.11133 491.62109 L 309.94922 488.8457 L 300.99219 486.96094 L 295.57031 482.48242 L 291.32812 477.76758 L 287.32422 474.95117 L 290.94531 479.32812 L 297.2207 486.72461 L 295.09961 488.8457 L 289.91406 487.9043 L 282.37109 486.01758 L 270.34961 483.18945 L 256.44336 478.94727 L 247.25195 475.64648 L 231.45898 469.04688 L 222.50195 462.68359 L 224.15234 460.32617 L 230.75195 459.61914 L 241.35938 460.5625 L 256.44336 460.5625 L 267.05078 459.61914 L 276.24219 459.38281 L 277.3125 462.35352 L 279.30664 468.33984 L 283.19922 471.23242 L 280.7207 468.33984 L 278.59961 462.68359 L 279.07227 459.14844 L 283.78516 457.26172 L 292.97852 456.08398 L 305.23438 452.7832 L 316.3125 447.12695 L 325.48828 442.0293 L 325.62305 424.54492 L 319.61133 431.33594 L 305.94141 441.4707 L 282.8418 450.42773 L 259.03711 452.54883 L 239.00195 450.19141 L 225.56641 445.94922 L 201.05469 431.80664 L 179.83984 403.28711 L 169.94141 374.05859 L 164.04883 342.00391 L 163.57812 306.88477 L 167.11328 272.23633 L 176.54102 242.30273 L 189.0332 214.48828 L 205.76758 188.5625 L 232.40234 161.45508 L 273.65039 140.47852 L 304.76367 132.22852 L 327.88086 128.41211 L 340.79688 126.2793 L 366.18945 123.61719 L 386.35547 122.85742 L 409.70508 124.36914 L 435.41602 127.11328 L 464.80469 131.75781 L 498.03906 140.71484 L 523.49414 151.32031 L 548.24414 167.82031 L 564.97852 185.26172 L 581.71289 209.77539 L 593.49805 234.05273 L 602.21875 258.56445 L 606.92188 282.48242 L 607.64062 286.14258 L 610.23242 308.53516 L 609.29102 337.52539 L 605.10156 366.84375 L 604.57617 370.52344 L 592.55469 404.22852 L 578.88477 423.55664 L 559.79297 440.05664 L 539.28711 448.77734 L 516.1875 451.8418 L 495.17578 450.45312 L 496.35156 458.22266 L 497.33203 458.44141 L 498.03906 461.97656 L 497.22656 464.00586 L 497.85352 468.13477 L 499.45312 463.1543 L 502.51758 459.61914 L 510.29492 460.32617 L 523.49414 461.26953 L 539.05078 460.32617 L 553.42969 460.08984 L 555.31445 462.21289 L 547.30078 467.63281 L 531.50781 475.17578 L 509.82422 481.77539 L 500.32227 484.43555 L 502.98828 502.04492 L 521.60938 500.16016 L 546.59375 494.26758 L 570.16406 485.54688 L 581.71289 478.00391 L 601.04102 462.91992 L 613.0625 447.59766 L 623.19727 428.03516 L 630.97461 408.70703 L 636.16016 387.02344 L 638.51758 367.22461 L 639.46094 340.35352 L 639.22461 318.9043 L 637.33789 296.51367 L 634.50977 283.31445 L 631.68164 270.11523 L 623.9043 242.53711 L 615.18359 219.67383 L 602.69141 196.57617 L 587.36914 175.36328 L 569.69141 157.21289 L 548.95117 139.53516 L 520.90234 122.56445 L 494.50391 111.48633 L 465.98242 103.23828 L 439.34961 99.701172 L 409.41406 99.230469 L 375.00195 99.701172 L 346.24609 99.230469 z "
       transform="scale(0.26458333)" />
    <path
       id="path6049"
       style="fill:#ffe680;stroke:#000000;stroke-width:0.999999px;stroke-linecap:butt;stroke-linejoin:miter;stroke-opacity:1"
       d="M 386.55078 128.69336 L 354.73242 129.87109 L 327.8418 133.45703 L 315.8418 135.05664 L 287.79297 142.83594 L 262.57227 153.44141 L 239.70898 166.40625 L 220.14648 184.31836 L 202.70312 208.5957 L 190.44727 230.98828 L 179.13281 263.2793 L 173.94922 284.96484 L 172.0625 319.84766 L 174.41992 349.31055 L 180.07617 375.00195 L 189.0332 400.22266 L 200.34766 417.90039 L 216.13867 430.39258 L 234.28711 439.11328 L 260.45117 441.94141 L 275.06445 442.17773 L 296.98438 435.81445 L 313.71875 424.0293 L 325.7168 412.2207 L 325.92773 384.625 L 323.33398 401.33398 L 313.66602 414.66602 L 292 427 L 275.16602 430.5293 L 258.33398 431 L 252.16602 430.66602 L 246 426.33398 L 244.66602 421.33398 L 245.66602 415.66602 L 248.66602 404.33398 L 254.33398 391 L 260.33398 380 L 270 369 L 284.33398 362.33398 L 310 360 L 319.18945 363.32227 L 323.66602 369 L 325.96094 380.18164 L 326.17773 351.67188 L 324 351.16602 L 319.33398 345.5 L 318.5 338.5 L 324 328.33398 L 326.37305 326.10352 L 326.41211 320.90625 L 325 321.66602 L 317.66602 330.33398 L 308 344 L 280.33398 355 L 260 370.66602 L 247 390.66602 L 240.33398 411.66602 L 240.90234 431.58203 L 241 435 L 237.13281 434.58008 L 226.66602 431.33398 L 211 422 L 196.33398 402.33398 L 188.5 384.16602 L 182.66602 361.66602 L 180.19531 346.67773 L 178.66602 329.33398 L 177.79297 312.37305 L 178.33398 294 L 183.66602 264.33398 L 195.66602 232.33398 L 211.33398 206 L 234.33398 180 L 260.66602 160.33398 L 290.33398 147 L 319 141 L 327.79688 139.32812 L 342.66602 136.5 L 346 136.33398 L 345.83398 138.33398 L 340.5293 146.11328 L 340.69336 146.08789 L 347.38672 145.08789 L 354.33398 134.66602 L 389.33398 132.66602 L 440 137.33398 L 487.33398 148 L 522 165.66602 L 546.33398 183.66602 L 571 218 L 584.66602 251.66602 L 591.99609 282.0332 L 594 290.33398 L 595.66602 335 L 590.24609 366.67383 L 589.33398 372 L 577.33398 398.66602 L 565.66602 408.33398 L 550.33398 410 L 538.66602 408.66602 L 535.66602 392.33398 L 529.66602 377 L 518.08984 365.85352 L 505.72852 365.71289 L 515 372.66602 L 522 380.33398 L 528 392.33398 L 529.66602 411 L 529.33398 424.33398 L 521.33398 431.33398 L 497.33398 436.66602 L 493.06055 436.49609 L 493.67969 440.58594 L 498.74609 441.94141 L 521.8457 441.70508 L 536.45898 440.05664 L 554.37109 432.75 L 569.92773 420.96484 L 580.76953 406.34961 L 591.37695 382.54492 L 595.52539 366.73438 L 596.32617 363.6875 L 599.86133 345.53906 L 600.57031 321.96875 L 600.09766 295.33398 L 598.24609 282.2207 L 597.26953 275.30078 L 591.61328 256.44336 L 583.59961 235.23047 L 573.22852 212.60352 L 559.08594 191.1543 L 538.81445 171.82617 L 520.19531 159.33398 L 494.73828 146.37109 L 456.32031 135.5293 L 417.90039 130.10742 L 386.55078 128.69336 z "
       transform="scale(0.26458333)" />
    <path
       style="fill:#ffe680;stroke:#000000;stroke-width:0.999999px;stroke-linecap:butt;stroke-linejoin:miter;stroke-opacity:1"
       d="m 327.42773,274.05859 1.07227,1.60743 0.5,2.83398 -1.33398,2.66602 -0.95313,0.29101 -0.0293,3.79883 3.98243,-1.92188 11.83398,1.83204 4.61328,4.44921 57.83008,-6.63671 -0.10938,-0.14454 L 405.5,280.5 l 2.16602,-1 2.33398,1.16602 0.5,3.66796 -0.86523,0.51954 1.39648,1.55273 0.80273,-0.57227 2.66602,0.83204 1.66602,2 0.66796,3 L 416.5,293.5 h -2.16602 l -1.10937,-0.69336 -0.32227,2.52344 4.76368,2.33594 L 430.33398,312 452,324 471.33398,327.66602 500.66602,323 512,328.66602 l 2.66602,8 -6,7 L 493.33398,344 476,340 462,337.66602 436.33398,339 l -19.66796,-6.66602 -17.33204,-9 h -4.5625 l -0.0215,2.54688 -0.0195,2.28516 H 398 l 5.33398,2.5 3,2.83398 2,2.91602 L 410,341 l 0.33398,5.33398 -0.66796,4.33204 -2.25,2.66796 -3.25,3 -4,2.08204 -5.69336,0.9746 -0.0332,4.03907 8.9375,1.11719 h 0.004 l 18.27734,0.20703 -3.99414,-10.72852 -5.41992,-11.78516 1.64844,-4.47851 3.77148,0.23437 2.59375,3.77149 8.95508,17.44336 1.74609,5.65039 0.26368,0.002 3.81054,0.043 -0.36718,-0.57227 2.66796,-4.33398 -4,-0.33398 -3,-8.33204 v -5.66796 L 439,345 l 7,1.33398 0.66602,5 4.66796,-6 5.33204,1.66602 6.66796,-3.33398 5.66602,1 L 473.33398,346 473,349.66602 465.66602,353 l -5.33204,4.33398 -6.33398,1 -3.33398,4 0.23046,2.75391 7.3711,0.084 4.39844,-4.8379 8.33398,-5 9.66602,-1.66796 17,6 8.0625,6.04687 12.36132,0.14063 -6.42382,-6.1875 -3.5,-2.16602 -1.83204,-1.83398 L 510.5,353.5 l 6.16602,-2.16602 8.51562,-6.91992 L 525,344 523.5,334 526.09961,329.37891 514.48438,313.53906 500,319 l -31.66602,5.33398 -18,-5 -19.66796,-12 -10,-11 -2,-10 0.66796,-9.50586 -4.43554,-0.13281 -0.56446,1.47071 -2.5,1.33398 -2.5,-1.66602 0.40821,-1.29492 -21.38086,-0.64453 h -0.008 -0.008 L 371.33398,277 l -7.66015,-1.84766 -0.004,-0.002 -13.85547,-0.41601 -3.80078,-0.11524 -2.1875,-0.0664 1.83985,3.11329 -0.5,3.16796 -4.16602,0.83204 -3.83398,0.16796 -2.5,-1.33398 -1.33204,-3.5 0.40625,-2.75 -4.61914,-0.14062 z"
       transform="scale(0.26458333)"
       id="path5525" />
    <path
       style="fill:#ffe680;stroke:#000000;stroke-width:0.999999px;stroke-linecap:butt;stroke-linejoin:miter;stroke-opacity:1"
       d="M 419.91992,268.48633 397,275.33398 l -8.64648,0.56055 21.38867,0.64453 0.59179,-1.87304 2.83204,-0.66602 2,2 -0.26758,0.69531 4.43554,0.13281 z"
       transform="scale(0.26458333)"
       id="path5266" />
    <path
       id="path3886"
       style="fill:#ffe680;stroke:#000000;stroke-width:0.264583px;stroke-linecap:butt;stroke-linejoin:miter;stroke-opacity:1"
       d="m 92.5158,83.079166 -3.086635,0.176217 -3.065962,1.651061 -0.01033,1.375111 1.577163,-1.482598 1.984375,-0.969968 3.836458,0.440802 1.322917,1.322916 0.926041,2.38125 -0.573606,2.513542 -2.910416,2.160593 -4.321186,0.838189 -1.893424,-0.439764 -0.02429,3.17345 5.360394,0.06097 2.593123,-3.17293 3.118157,-2.494939 1.37201,-0.311608 0.249079,0.748273 -3.690728,5.273064 4.482923,0.05116 2.278937,-0.506431 2.3213,0.289907 0.009,-1.068671 -0.16899,0.02894 -0.88211,-0.06615 -0.88212,-0.06615 -0.7276,-0.286803 -0.72761,-0.286289 -0.94774,-0.83819 -0.507467,-1.013894 -0.35243,-0.948261 v -1.389062 l 0.63924,-1.10226 0.727597,-1.014407 1.03612,-0.81597 1.21284,-0.463021 h 1.25677 0.39171 l 0.0108,-1.278477 h -2.32079 l -1.98437,0.79375 -1.455207,0.352436 -1.10226,-0.440801 -2.07274,-1.499135 z" />
    <path
       style="fill:#ffe680;stroke:#000000;stroke-width:0.999999px;stroke-linecap:butt;stroke-linejoin:miter;stroke-opacity:1"
       d="m 368.48633,451.71484 4.64453,4.96289 5.17187,5.76954 3.5918,8.83007 0.41406,8.37696 -1.88476,11.31445 0.4707,4.47656 -2.82812,-2.12109 -7.77735,-10.60547 -10.33398,-5.99414 6.79687,5.28711 6.49219,6.94336 0.58008,3.42773 -1.88672,1.17774 -4.00586,-0.47071 -5.6582,-1.17968 -6.36328,0.94336 h -9.89844 l -16.73633,-0.47071 -4.16406,-0.76172 -0.0781,10.18946 14.14258,-1.17969 h 9.89844 l 11.31445,-2.12109 12.49219,0.47265 12.25586,2.1211 11.55078,-0.47266 10.8418,-1.64844 9.90039,-0.23633 17.91211,2.5918 13.67187,0.94336 28.75391,0.4707 25.2207,-0.70703 -2.66601,-17.60937 -8.17579,2.28906 -11.78515,1.88672 -0.94336,-2.35742 9.42773,-7.54297 8.48633,-8.95703 0.52149,-1.61914 -0.62696,-4.12891 -2.48828,6.2207 -11.78516,11.54883 -8.01367,4.94922 -6.83398,2.35742 -12.25781,2.12109 -15.79102,0.94336 -9.42773,0.47071 -9.90039,-0.94336 -7.77735,0.23633 -6.36523,1.88672 -2.35742,-1.6504 2.35742,-4.94921 2.59375,-3.77149 0.91601,-1.36523 -4.45117,2.54297 -5.6582,7.77929 -3.69922,2.26563 -1.01953,-3.42188 -0.92188,-8.15625 -0.14648,-4.77343 0.002,-5.70899 -0.86719,2.74609 -0.33398,6 1,9 -1.66602,5 L 386,497 l -3.66602,-3.33398 v -4 l 2,-10.33204 -1,-9.33398 -5,-10.33398 L 370,452.33398 Z"
       transform="scale(0.26458333)"
       id="path3523" />
    <path
       style="fill:#ffe680;stroke:#000000;stroke-width:0.999999px;stroke-linecap:butt;stroke-linejoin:miter;stroke-opacity:1"
       d="m 403.37695,364.54688 0.95703,0.11914 12,8.33398 8.66602,10 5.33398,12 -1,16 -4,7.66602 -0.33398,4.66796 3.66602,4 4,1.33204 3,1 11.33398,6 v 4 L 437.66602,440 l -8.33204,0.66602 -1.85156,1.25976 9.65625,-0.72851 h 6.38281 l -2.05078,1.21679 -2.82812,1.64844 -4.95117,6.12891 -0.24024,1.00976 4.71875,-5.25195 5.89258,-3.77149 5.6582,-0.94335 11.54883,6.83593 13.90625,6.36328 15.79297,2.59375 5.38281,1.19532 -1.17578,-7.76954 -3.97266,-0.26171 -21.21289,-6.59961 -16.26367,-12.25586 -13.66992,-15.32227 -3.06445,-10.60547 1.41406,-6.59961 2.35742,0.70703 7.07031,13.90626 6.36524,6.83593 11.3125,9.66407 16.5,7.54101 11.66797,3.12305 -0.61914,-4.08985 L 489,436.33398 478,433 l -14,-6.66602 -12,-11 L 446.66602,405 445.33398,390 450,375.33398 l 6,-7.66796 2.26758,-2.49414 -7.3711,-0.084 0.10352,1.24609 -2.66602,3.33204 L 445,378.33398 442.66602,381 l -5,-4.66602 V 369 l -2.63086,-4.09375 -4.07618,-0.0449 3.20508,10.37695 3.29883,13.43555 1.17969,7.07031 -2.83008,3.29883 -2.82812,-2.35547 -3.77149,-7.30664 -3.29883,-13.19922 -4.25586,-11.42773 z"
       transform="scale(0.26458333)"
       id="path3521" />
    <path
       style="fill:#ffe680;stroke:#000000;stroke-width:0.999999px;stroke-linecap:butt;stroke-linejoin:miter;stroke-opacity:1"
       d="m 326.08594,363.66602 -0.125,16.51562 0.37304,1.81836 -0.40625,2.625 -0.21093,27.5957 2.85156,-2.80664 7.7793,-18.14844 8.01367,-6.5996 2.82812,1.65039 -1.65039,4.47851 -4.71289,9.89844 -8.48633,16.26367 -6.71875,7.58985 -0.13281,17.48242 1.43164,-0.79492 5.40235,1.25 5.20312,2.75781 4.71484,5.18554 2.5918,9.19141 1.82422,2.50977 -2.53125,-10.75977 -3.06445,-5.89258 -7.625,-5.01367 h -0.002 l -3.09961,0.20313 -2.66796,-1.33204 2,-3.66796 8.66796,-5 8.33204,-2 3,-2.66602 1,-4 -5,-8.66602 -1,-7.33398 0.66796,-11.66602 6.66602,-12 6.33398,-8.33398 12.33204,-8.33398 6.39062,-1.41993 -16.94726,-0.19336 -0.89844,1.28516 -9.90039,13.19922 -12.25586,10.37109 -0.94336,-8.25 4.24219,-9.42773 5.99218,-7.33399 z"
       transform="scale(0.26458333)"
       id="path1733" />
    <path
       id="path5569"
       style="fill:#008000;stroke:#000000;stroke-width:0.268946px;stroke-linecap:butt;stroke-linejoin:miter;stroke-opacity:1"
       d="m 91.403722,25.196912 -4.876705,0.190169 -6.839376,1.269174 -6.079733,1.966804 -6.079731,2.538346 -6.269384,3.553272 -6.206339,4.44159 -5.509741,5.393467 -5.003313,6.789767 -3.229777,6.154663 -2.533179,6.408912 -1.963187,8.566402 -1.393198,7.487398 -0.696598,8.312153 0.126609,7.550962 0.823203,6.536039 1.393198,6.02805 3.166732,7.86774 3.48299,5.01313 3.736208,3.93413 4.750096,3.10885 5.762956,2.60191 6.269384,1.58595 6.713286,1.079 4.496366,0.0636 2.723349,-0.0636 h 7.535973 l 3.799769,-0.31729 h 2.660303 l 3.039607,-0.57102 3.356385,0.1266 3.293335,0.57155 3.10317,-0.12713 0.0253,-0.80253 -0.0248,0.004 -3.05614,0.12506 -3.2427,-0.56121 -3.305226,-0.12505 -2.993614,0.5612 h -2.618963 l -3.741891,0.31213 h -7.42125 l -2.681491,0.062 -4.427638,-0.062 -6.610448,-1.0604 -6.1743,-1.55908 -5.674588,-2.55695 -4.677235,-3.05563 -3.679362,-3.86643 -3.430281,-4.92683 -3.118157,-7.73286 -1.37201,-5.9247 -0.810802,-6.423385 -0.124539,-7.420737 0.685747,-8.170045 1.372007,-7.358723 1.933215,-8.418605 2.494939,-6.298843 3.180167,-6.049243 4.926833,-6.672977 5.425506,-5.300451 6.111772,-4.365624 6.173784,-3.492294 5.986714,-2.494423 5.986714,-1.933215 6.735508,-1.247468 4.801772,-0.187069 7.608322,0.12454 9.104875,-0.12454 0.0181,5.17e-4 0.0336,-1.058333 -9.245945,0.126607 z"
       sodipodi:nodetypes="ccccccccccccccccccccccccccccccccccccccccccccccccccccccccccccccccccccccccc" />
    <path
       id="path6205"
       style="fill:#008000;stroke:#000000;stroke-width:0.268946px;stroke-linecap:butt;stroke-linejoin:miter;stroke-opacity:1"
       d="m 108.37581,25.196912 -0.0336,1.058333 7.90236,0.124023 7.0466,0.93586 7.54631,2.182297 6.98459,2.931086 7.42125,4.490167 5.48752,4.677232 4.67723,4.802291 4.05402,5.612577 3.30522,6.111256 2.30736,6.049243 2.05775,7.29671 1.49655,6.984588 0.4992,5.924187 0.0625,5.675106 -0.24959,7.109643 -0.62374,5.238439 -1.37201,5.73712 -2.05775,5.1139 -2.68149,5.17591 -3.18069,4.05402 -5.1139,3.99097 -3.05562,1.99574 -6.23632,2.30736 -6.61044,1.55907 -4.92684,0.49868 -6.67297,0.18707 -7.60781,-0.12454 -3.61735,-0.2496 -4.73924,-0.68575 -2.61948,0.0625 -2.84376,0.43254 -0.0253,0.80253 2.913,-0.44442 2.65979,-0.063 4.81314,0.69763 3.67316,0.25373 7.72615,0.12712 6.77633,-0.19016 5.00331,-0.50798 6.71277,-1.58595 6.33294,-2.34818 3.10317,-2.03037 5.19348,-4.06073 3.22978,-4.12481 2.72283,-5.26635 2.0898,-5.2033 1.39371,-5.83788 0.63304,-5.329914 0.25321,-7.233669 -0.063,-5.774325 -0.50695,-6.028055 -1.5198,-7.106541 -2.0898,-7.423838 -2.34352,-6.155179 -3.35639,-6.218225 -4.11654,-5.710763 -4.74958,-4.886005 -5.57279,-4.758883 -7.53649,-4.568714 -7.09311,-2.982249 -7.66258,-2.221051 -7.15667,-0.95188 z" />
    <path
       id="path3691"
       style="fill:#552200;stroke:#000000;stroke-width:0.999999px;stroke-linecap:butt;stroke-linejoin:miter;stroke-opacity:1"
       d="M 310 360 L 284.33398 362.33398 L 280.94922 387.50391 L 281 387.66602 L 283 389.33398 L 282.66602 377 L 286 372 L 294.66602 370.33398 L 299.66602 372.66602 L 299.33398 380.66602 L 292 393 L 299.33398 386 L 309 378.33398 L 314.66602 385.66602 L 312.66602 395.33398 L 296 396.33398 L 307 402.33398 L 307.33398 406.66602 L 302.66602 413.33398 L 294.33398 417 L 284 410.33398 L 284.33398 416.66602 L 277 416.88281 L 275.16602 430.5293 L 292 427 L 313.66602 414.66602 L 323.33398 401.33398 L 326.33398 382 L 323.66602 369 L 319.18945 363.32227 L 310 360 z "
       transform="scale(0.26458333)" />
    <path
       style="fill:#800000;stroke:#000000;stroke-width:0.264583px;stroke-linecap:butt;stroke-linejoin:miter;stroke-opacity:1"
       d="m 60.192708,110.46354 1.455208,-2.38125 1.058334,-4.23333 2.116666,-4.453822 3.571875,-3.549827 4.630208,-3.770312 4.409722,-3.373437 3.263194,-2.844271 2.248959,-2.248959 -0.264583,-6.879166 -2.778125,-5.291667 2.910416,-0.661458 2.38125,-1.719792 h 3.704167 l 3.836458,-1.719792 3.571875,2.248959 6.217708,-0.396875 7.42658,-2.455759 5.27342,-11.567158 5.55625,-7.805208 6.35,-3.96875 -0.90399,-1.322917 -1.08038,-0.79375 -6.98941,-1.51033 -7.43038,-1.333941 -8.09184,-0.540191 -7.915458,0.07717 -7.959548,1.190625 -7.386285,1.763888 -6.19566,2.337153 -5.490104,3.395486 -3.880555,3.064757 -3.748264,3.990799 -3.108854,4.784548 -2.844271,5.40191 -2.667882,7.253993 -1.43316,7.959549 -0.286632,5.997222 0.418924,6.702778 1.543403,6.813019 2.160764,5.754686 3.96875,5.02709 z"
       id="path1307"
       sodipodi:nodetypes="ccccccccccccccccccccccccccccccccccccccccccc" />
    <path
       id="path2917"
       style="fill:#008000;stroke:#000000;stroke-width:0.999999px;stroke-linecap:butt;stroke-linejoin:miter;stroke-opacity:1"
       d="M 509.33398 178 L 496 178.16992 L 496 182.66602 L 500 186.66602 L 510.33398 185.33398 L 513 191 L 521.66602 192.66602 L 523.33398 197.33398 L 531.66602 200.33398 L 531.33398 204.66602 L 538.66602 207 L 539.33398 212.33398 L 544.66602 216 L 544 220.33398 L 549 225.33398 L 547.66602 230.66602 L 552 234.66602 L 554.33398 240 L 554.33398 247 L 552 248.33398 L 553.66602 252.33398 L 550.33398 256.33398 L 553 261.33398 L 549.33398 266.33398 L 548 269.66602 L 548 274.66602 L 544.33398 276.66602 L 545 280.66602 L 540.66602 287 L 538.33398 289.66602 L 532.66602 289 L 532 293.33398 L 529.33398 296.33398 L 525.66602 297 L 523 298.66602 L 520.33398 301.33398 L 517.33398 299.33398 L 513.66602 303 L 508 304 L 506 306.33398 L 497.66602 307.66602 L 496 309.33398 L 496 319.67383 L 500 319 L 520.33398 311.33398 L 538.66602 302.66602 L 554.66602 278.66602 L 560.66602 258.33398 L 561 234.33398 L 554.66602 218.33398 L 531.66602 190 L 509.33398 178 z "
       transform="scale(0.26458333)" />
    <path
       style="fill:#ff0000;fill-opacity:1;stroke:#000000;stroke-width:0.264583px;stroke-linecap:butt;stroke-linejoin:miter;stroke-opacity:1"
       d="m 138.50937,88.370832 1.19063,-2.116666 3.175,-1.5875 2.64583,-2.116667 3.04271,-5.820833 1.19062,-4.233334 0.73896,-1.307785 1.11313,-0.808881 1.11691,0.757868 0.86746,1.755673 1.45521,6.35 0.13229,6.35 -0.26458,6.35 -1.45521,5.55625 -2.51354,4.894793 -3.04271,2.11667 -3.04271,-0.26459 -2.11666,-2.24896 -1.05834,-3.43958 -1.32291,-4.233333 -1.45521,-3.307291 z"
       id="path1422"
       sodipodi:nodetypes="cccccccccccccccccccccc" />
    <path
       style="fill:#ffffff;stroke:#000000;stroke-width:0.264583px;stroke-linecap:butt;stroke-linejoin:miter;stroke-opacity:1"
       d="m 88.547222,74.215624 -0.35278,-0.926042 0.17639,-1.190625 1.322917,-0.220485 1.190625,0.61736 0.573265,0.97014 -0.132292,0.837846 -1.102431,0.220487 -1.014236,0.0441 z"
       id="path2312" />
    <path
       style="fill:#ffffff;stroke:#000000;stroke-width:0.264583px;stroke-linecap:butt;stroke-linejoin:miter;stroke-opacity:1"
       d="m 85.680901,74.700693 1.014238,-0.308679 0.352777,-0.705557 -0.132292,-0.749651 -0.352777,-0.529167 h -0.97014 l -1.234723,0.573262 -0.308679,0.881946 0.573262,0.837846 z"
       id="path2540" />
    <path
       style="fill:#ffffff;stroke:#000000;stroke-width:0.264583px;stroke-linecap:butt;stroke-linejoin:miter;stroke-opacity:1"
       d="m 88.767707,78.978124 -1.41111,-0.17639 -1.543405,-0.881943 -0.220485,-1.411111 0.61736,-0.926041 1.278822,-0.617363 3.130902,0.485071 1.234723,1.190625 0.176387,1.102429 -0.705554,1.014238 -1.234723,0.264583 z"
       id="path2608" />
    <path
       style="fill:#ffffff;stroke:#000000;stroke-width:0.264583px;stroke-linecap:butt;stroke-linejoin:miter;stroke-opacity:1"
       d="m 108.56736,72.672222 0.74965,-0.17639 0.52917,0.529167 -0.22049,0.573265 -0.66146,0.352777 -0.66145,-0.440973 z"
       id="path2643" />
    <path
       style="fill:#ffffff;stroke:#000000;stroke-width:0.264583px;stroke-linecap:butt;stroke-linejoin:miter;stroke-opacity:1"
       d="m 108.61146,75.229859 -0.13229,-0.970137 -0.61736,-0.308681 -0.57327,0.264583 -0.17639,0.61736 0.52917,0.705557 0.52916,-0.0441 z"
       id="path2711" />
    <path
       style="fill:#ffffff;stroke:#000000;stroke-width:0.264583px;stroke-linecap:butt;stroke-linejoin:miter;stroke-opacity:1"
       d="m 108.34687,76.067707 0.61736,-0.440973 0.70556,0.220488 0.44097,0.529167 0.17639,0.79375 -0.0882,0.485068 h -0.57327 l -0.70555,-0.440973 -0.44097,-0.44097 z"
       id="path2746" />
    <path
       style="fill:#ffffff;stroke:#000000;stroke-width:0.264583px;stroke-linecap:butt;stroke-linejoin:miter;stroke-opacity:1"
       d="m 89.914234,83.828818 3.836458,0.440973 1.322917,1.322916 0.926042,2.38125 -0.573262,2.513542 -2.910417,2.160765 -4.32153,0.837845 -2.469443,-0.573262 -1.234723,-1.499306 -0.220485,-1.852084 1.455208,-2.689931 2.20486,-2.072569 z"
       id="path2781" />
    <path
       style="fill:#ffffff;stroke:#000000;stroke-width:0.264583px;stroke-linecap:butt;stroke-linejoin:miter;stroke-opacity:1"
       d="m 100.98264,94.412151 -0.94809,-0.837848 -0.50712,-1.014236 -0.352778,-0.94809 -10e-7,-1.389061 0.639412,-1.102431 0.727607,-1.014236 1.03628,-0.815798 1.21267,-0.463021 h 1.25678 1.25677 l 1.41111,0.661458 0.79375,0.749653 0.52917,0.771701 0.44097,1.212674 0.0882,1.411111 -0.17639,1.146528 -0.59531,0.705555 -0.8599,0.793749 -1.05833,0.551216 -1.6757,0.286632 -0.88194,-0.06615 -0.88194,-0.06615 -0.7276,-0.286632 z"
       id="path2816"
       sodipodi:nodetypes="ccccccccccccccccccccccccc" />
    <path
       id="path4197"
       style="fill:#552200;stroke:#000000;stroke-width:0.999999px;stroke-linecap:butt;stroke-linejoin:miter;stroke-opacity:1"
       d="M 497.66602 359.66602 L 497.58398 378.63281 L 498.33398 378.33398 L 504 381 L 505.33398 391 L 499.11328 399.39648 L 501.71094 400.32422 L 514.33398 401.66602 L 513.33398 413.66602 L 507.66602 419.33398 L 497.66602 413 L 497.43164 413.80078 L 497.33398 436.66602 L 521.33398 431.33398 L 529.33398 424.33398 L 529.66602 411 L 528 392.33398 L 522 380.33398 L 515 372.66602 L 497.66602 359.66602 z "
       transform="scale(0.26458333)" />
    <path
       id="path4404"
       style="fill:#552200;stroke:#000000;stroke-width:0.999999px;stroke-linecap:butt;stroke-linejoin:miter;stroke-opacity:1"
       d="M 463.33398 343.66602 L 456.66602 347 L 451.33398 345.33398 L 446.66602 351.33398 L 447.02344 355.25391 L 449.66602 354.66602 L 455.33398 350 L 460 349.66602 L 458.66602 353 L 454 353.33398 L 447.22266 357.45898 L 448.33398 369.66602 L 451 366.33398 L 450.66602 362.33398 L 454 358.33398 L 460.33398 357.33398 L 465.66602 353 L 473 349.66602 L 473.33398 346 L 469 344.66602 L 463.33398 343.66602 z "
       transform="scale(0.26458333)" />
    <path
       style="fill:#aa4400;stroke:#000000;stroke-width:0.999999px;stroke-linecap:butt;stroke-linejoin:miter;stroke-opacity:1"
       d="m 501.70508,400.32422 0.96094,0.3418 -9,0.66796 3.33398,12 L 491,402 l -5,-1.33398 -3.22266,1.8125 L 481.66602,407 478,421.33398 l 4.66602,4 12.66796,-4.33398 2.33204,-8 10,6.33398 5.66796,-5.66796 1,-12 z"
       transform="scale(0.26458333)"
       id="path6126" />
    <path
       style="fill:#aa4400;stroke:#000000;stroke-width:0.999999px;stroke-linecap:butt;stroke-linejoin:miter;stroke-opacity:1"
       d="M 498.33398,378.33398 491.66602,381 l -2.33204,9 -3,-2 -0.70703,2.87891 2.03907,0.45507 1,2.66602 4.66796,3.33398 5.7793,2.0625 L 505.33398,391 504,381 Z"
       transform="scale(0.26458333)"
       id="path4016" />
    <path
       style="fill:#aa4400;stroke:#000000;stroke-width:0.264583px;stroke-linecap:butt;stroke-linejoin:miter;stroke-opacity:1"
       d="m 117.21042,97.807639 1.05833,-1.76389 -0.17639,-1.322917 2.02847,-1.234723 1.23472,-0.08819 0.35278,-0.881943 -1.23472,0.08819 -1.49931,1.234723 -1.5875,0.352776 -0.61736,-1.675693 -1.23472,0.176387 0.35278,1.499306 1.14653,0.79375 -0.17639,0.529167 -0.17639,1.234723 z"
       id="path4369" />
    <path
       id="path4640"
       style="fill:#808000;stroke:#000000;stroke-width:0.999999px;stroke-linecap:butt;stroke-linejoin:miter;stroke-opacity:1"
       d="M 385.66602 362.33398 L 385.80078 416.79297 L 390.66602 416 L 402.33398 420.66602 L 407 429.66602 L 403.33398 439.66602 L 389.66602 445.66602 L 385.87305 445.83789 L 386 497 L 392.33398 495.33398 L 394 490.33398 L 393 481.33398 L 393.33398 475.33398 L 399.33398 456.33398 L 406.66602 450.33398 L 414.33398 447.33398 L 421 446.33398 L 429.33398 440.66602 L 437.66602 440 L 447 439.66602 L 447 435.66602 L 435.66602 429.66602 L 432.66602 428.66602 L 428.66602 427.33398 L 425 423.33398 L 425.33398 418.66602 L 429.33398 411 L 430.33398 395 L 425 383 L 416.33398 373 L 404.33398 364.66602 L 385.66602 362.33398 z "
       transform="scale(0.26458333)" />
    <path
       style="fill:#008000;fill-opacity:1;stroke:#000000;stroke-width:0.264583px;stroke-linecap:butt;stroke-linejoin:miter;stroke-opacity:1"
       d="m 89.178931,102.89877 3.24287,-2.74397 2.61924,-3.492323 3.928864,-5.612659 -0.249451,-0.748356 -1.371984,0.311814 -3.118144,2.494516 -4.178315,5.113758 -1.122532,2.49452 z"
       id="path4901" />
    <path
       style="fill:#008000;stroke:#000000;stroke-width:0.264583px;stroke-linecap:butt;stroke-linejoin:miter;stroke-opacity:1"
       d="m 88.991844,103.5224 2.120336,-1.74616 0.748356,0.43653 -0.436542,1.1849 -1.247256,2.61924 -2.245064,4.30304 -3.367595,3.80414 -3.61705,2.6816 -6.111563,2.36979 -6.298652,0.56127 -5.300845,-0.62363 -3.554685,-1.12253 -6.485739,-3.74178 -5.612662,-7.54591 -2.61924,-7.732995 -1.559073,-8.481353 -0.124725,-9.292071 0.935443,-9.167344 2.494515,-7.920088 3.305233,-7.358819 4.427765,-6.859918 7.047008,-7.171733 10.913504,-5.550296 8.231902,-2.182702 9.533955,-1.574204 6.718226,-0.704259 5.336074,-0.200921 6.17782,0.400009 6.80253,0.725657 7.7758,1.228991 8.79317,2.369791 6.73519,2.806329 6.5481,4.365403 4.42777,4.614855 4.42776,6.485739 3.11814,6.423377 2.30743,6.485741 1.43435,7.296457 0.68599,5.924476 -0.24945,7.670636 -1.24726,8.730803 -3.18051,8.917899 -3.61705,5.11375 -5.05139,4.3654 -5.42557,2.30743 -6.11156,0.81072 -6.61047,-0.43654 -5.61266,-1.74616 -4.30304,-3.24287 -3.61705,-4.05359 -0.81071,-2.80633 0.37417,-1.74616 0.62363,0.18709 1.87089,3.67941 1.6838,1.80852 2.99341,2.55688 4.36541,1.99561 4.42776,1.1849 6.11156,-0.0624 3.8665,-0.43654 4.73959,-1.93325 4.11595,-3.11814 2.86869,-3.8665 2.80633,-6.29865 1.30962,-4.989032 0.93544,-4.801944 0.18709,-6.236287 -0.12472,-7.047008 -0.74836,-5.300845 -1.49671,-4.989031 -2.12034,-5.612659 -2.74396,-5.986838 -3.74178,-5.675024 -5.36321,-5.113755 -4.92666,-3.305234 -6.7352,-3.42996 -10.16515,-2.868692 -10.16515,-1.434346 -8.29426,-0.374179 -8.418993,0.311817 -10.289876,1.371984 -7.421184,2.057974 -6.672828,2.806329 -6.049201,3.429961 -5.17612,4.739579 -4.614855,6.423377 -3.242868,5.924475 -2.993419,8.543714 -1.371983,5.737386 -0.498904,9.229709 0.623628,7.79536 1.496711,6.797556 2.369788,6.672833 2.993419,4.67721 4.178313,3.30524 4.801944,2.30742 6.922281,0.74836 3.866499,0.0624 5.799749,-1.6838 4.427765,-3.11814 3.928861,-3.8665 z"
       id="path5068"
       sodipodi:nodetypes="cccccccccccccccccccccccccccccccccccccccccccccccccccccccccccccccccccccccccccccccccccccccccccccccccccccc" />
    <path
       style="fill:#008000;stroke:#000000;stroke-width:0.264583px;stroke-linecap:butt;stroke-linejoin:miter;stroke-opacity:1"
       d="m 115.30898,105.58037 0.74836,-0.87308 -0.31182,-1.87089 -0.87308,-3.55468 -1.30962,-4.240679 -2.36979,-4.614851 -0.68599,-0.997808 -0.99781,-0.06236 -0.43654,1.184894 1.43435,3.118146 2.1827,5.862111 0.87308,3.492317 0.99781,1.93325 z"
       id="path5103" />
    <path
       id="path5169"
       style="fill:#008000;stroke:#000000;stroke-width:0.264583px;stroke-linecap:butt;stroke-linejoin:miter;stroke-opacity:1"
       d="m 91.457467,116.3283 -3.236497,0.21084 2.017966,1.32653 0.810802,1.55908 0.669727,2.84686 0.940512,1.29397 1.454689,1.69396 1.123448,0.87384 2.734199,1.58595 2.057757,2.80603 0.74827,0.56121 -0.12454,-1.18442 0.49868,-2.99362 -0.10955,-2.2164 -0.95033,-2.33629 -1.368395,-1.52653 -1.228865,-1.31309 -1.539957,-0.62994 -2.38125,-0.97048 z" />
    <path
       style="fill:#008000;stroke:#000000;stroke-width:0.264583px;stroke-linecap:butt;stroke-linejoin:miter;stroke-opacity:1"
       d="m 98.907543,130.27607 -0.153424,-0.90674 -1.717463,-1.83722 -2.922239,-2.27264 -1.454224,-1.69374 -1.423286,-1.9581 -0.685993,-2.43215 -1.247256,-1.37198 -1.376956,-0.7296 -1.429374,-0.33057 -2.806332,1.55907 -2.931054,1.49671 -3.242871,0.87308 -2.432153,0.31182 -1.247257,0.4989 -0.124727,0.93544 0.561266,1.49671 1.122532,1.30962 1.683798,1.1849 1.122532,1.24725 1.434348,1.1849 2.369788,0.4989 5.113758,0.93544 4.427765,0.12473 h 2.61924 l 1.683798,-0.24945 1.496711,0.31181 1.06017,0.12473 z"
       id="path5204"
       sodipodi:nodetypes="ccccccccccccccccccccccccccccc" />
    <path
       id="path5239"
       style="fill:#008000;stroke:#000000;stroke-width:0.264583px;stroke-linecap:butt;stroke-linejoin:miter;stroke-opacity:1"
       d="m 73.089079,121.54503 -2.431894,0.0625 -2.806547,0.2496 h -3.99097 l -2.806549,-0.2496 -1.746146,0.18707 -0.436666,0.62373 2.369881,1.68363 4.178556,1.74614 2.431894,0.87333 3.679362,1.12241 3.180683,0.74828 1.995744,0.49919 1.37201,0.24908 0.561206,-0.5612 -1.660364,-1.95699 -0.95808,-1.15807 -0.624253,-0.43925 -0.466121,-0.54415 -1.030944,-0.76585 -0.527616,-1.58388 z" />
    <path
       id="path5274"
       style="fill:#008000;stroke:#000000;stroke-width:0.264583px;stroke-linecap:butt;stroke-linejoin:miter;stroke-opacity:1"
       d="m 115.6596,116.73344 -2.55488,0.19275 -1.71514,1.16634 -1.76372,0.26458 -2.02881,0.79375 -1.93994,1.5875 -1.35805,4.30052 -5.3e-4,1.5105 0.0388,1.26297 0.24391,2.15801 0.26975,0.90537 0.97875,-0.59945 1.49707,-2.05827 1.1777,-0.67282 0.52555,-0.78394 1.69241,-1.55442 1.80247,-1.38803 1.20251,-2.35593 0.5948,-1.68 0.36173,-0.40256 0.0636,-0.26717 1.31,-1.62161 0.74827,-0.43614 0.54261,-0.32195 z" />
    <path
       style="fill:#008000;stroke:#000000;stroke-width:0.264583px;stroke-linecap:butt;stroke-linejoin:miter;stroke-opacity:1"
       d="m 108.26197,127.90629 -0.68599,0.9978 -0.62362,1.30962 0.62362,0.43654 1.6838,-0.4989 2.05798,-0.0624 2.61924,0.24945 2.49451,-0.12473 4.17832,-0.24945 3.24287,-0.56127 1.80852,-0.62362 2.12034,-1.30963 3.11814,-3.05578 0.87309,-2.1827 -0.18709,-0.93544 -1.6838,-0.37418 -4.17832,-0.68599 -3.67941,-1.6838 -3.05578,-1.80852 -1.49671,0.24945 -1.55907,0.99781 -1.61037,1.79249 -0.59494,1.67994 -1.20253,2.35602 -1.80244,1.388 -1.69212,1.5541 z"
       id="path5309"
       sodipodi:nodetypes="ccccccccccccccccccccccccccc" />
    <path
       style="fill:#008000;stroke:#000000;stroke-width:0.264583px;stroke-linecap:butt;stroke-linejoin:miter;stroke-opacity:1"
       d="m 127.09557,129.27827 -0.24945,-0.62363 2.49451,-1.99561 2.24507,-2.36979 0.56126,-1.74616 0.81072,-0.93545 2.05797,0.18709 3.49233,0.24945 4.11595,-0.24945 3.80413,-0.0624 0.49891,0.56126 -2.12034,1.43435 -4.17831,1.99561 -5.73739,1.74616 -4.67722,1.30963 z"
       id="path5344" />
    <path
       id="path959"
       style="fill:#808000;stroke:#000000;stroke-width:0.999999px;stroke-linecap:butt;stroke-linejoin:miter;stroke-opacity:1"
       d="M 385.66602 362.33398 L 370.66602 365.66602 L 358.33398 374 L 352 382.33398 L 345.33398 394.33398 L 344.66602 406 L 345.66602 413.33398 L 350.66602 422 L 349.66602 426 L 346.66602 428.66602 L 338.33398 430.66602 L 329.66602 435.66602 L 327.66602 439.33398 L 330.33398 440.66602 L 345.66602 439.66602 L 353.66602 445.66602 L 362.66602 449.33398 L 370 452.33398 L 378.33398 459.66602 L 383.33398 470 L 384.33398 479.33398 L 382.33398 489.66602 L 382.33398 493.66602 L 386 497 L 385.87305 445.83789 L 382.33398 446 L 372.66602 441.33398 L 365.66602 434 L 367.33398 424 L 376.33398 418.33398 L 385.80078 416.79297 L 385.66602 362.33398 z "
       transform="scale(0.26458333)" />
    <path
       style="fill:#ffff00;stroke:#000000;stroke-width:0.264583px;stroke-linecap:butt;stroke-linejoin:miter;stroke-opacity:1"
       d="m 103.09931,117.91597 3.61597,-1.5875 0.97014,-2.64583 -1.23473,-2.38125 -3.0868,-1.23472 -3.792364,0.61736 -2.38125,1.4993 -0.440971,2.64584 1.852084,1.94027 2.557641,1.23473 z"
       id="path4578" />
    <path
       id="path1508"
       style="fill:#008000;stroke:#000000;stroke-width:0.999999px;stroke-linecap:butt;stroke-linejoin:miter;stroke-opacity:1"
       d="M 496 178.16992 L 483 178.33398 L 463.33398 188.66602 L 447 210.33398 L 427 249.66602 L 420 267.33398 L 418.66602 286.33398 L 420.66602 296.33398 L 430.66602 307.33398 L 450.33398 319.33398 L 468.33398 324.33398 L 496 319.67383 L 496 309.33398 L 495 310.33398 L 492 308 L 489 314.66602 L 479.66602 315.66602 L 474.66602 317 L 470.33398 315.66602 L 465 315.33398 L 457.66602 312.66602 L 454 314 L 452.33398 309.66602 L 448.66602 308 L 448 302.66602 L 442.33398 305.66602 L 434.33398 300.33398 L 431.33398 295.33398 L 426 289 L 429 283.66602 L 427.66602 277.33398 L 429.33398 273 L 426.33398 264.33398 L 430.66602 260.33398 L 430.66602 253.66602 L 434.33398 250 L 436.33398 243 L 442 239.66602 L 442 232.33398 L 447 227.66602 L 447.33398 220.66602 L 453 219.66602 L 455 212.66602 L 456.33398 209.33398 L 456.66602 207 L 462.33398 204.33398 L 464.66602 200 L 469.33398 198.66602 L 471 192 L 476.66602 190.66602 L 484 188.66602 L 486.33398 184 L 489.66602 185.33398 L 495.33398 182 L 496 182.66602 L 496 178.16992 z "
       transform="scale(0.26458333)" />
    <path
       id="path4252"
       style="fill:#552200;stroke:#000000;stroke-width:0.999999px;stroke-linecap:butt;stroke-linejoin:miter;stroke-opacity:1"
       d="M 284.33398 362.33398 L 270 369 L 260.33398 380 L 254.33398 391 L 248.66602 404.33398 L 245.66602 415.66602 L 244.66602 421.33398 L 246 426.33398 L 252.16602 430.66602 L 258.33398 431 L 275.16602 430.5293 L 277 416.88281 L 273 417 L 274 409 L 269.33398 419 L 265.33398 420.66602 L 257 417.33398 L 260.33398 410.66602 L 264.66602 405.66602 L 258 408.33398 L 255 406.66602 L 258 399 L 263.33398 397.66602 L 273 400.33398 L 268.66602 394 L 263.66602 388.33398 L 266.66602 382.66602 L 274.33398 377.66602 L 278.33398 379 L 280.94922 387.50391 L 284.33398 362.33398 z "
       transform="scale(0.26458333)" />
    <path
       id="path3522"
       style="fill:#aa4400;stroke:#000000;stroke-width:0.999999px;stroke-linecap:butt;stroke-linejoin:miter;stroke-opacity:1"
       d="M 294.66602 370.33398 L 286 372 L 282.66602 377 L 283 389.33398 L 283.05078 390.41992 L 286.33398 394 L 292.33398 394.66602 L 293.33398 397.33398 L 297 399.33398 L 284.66602 400.66602 L 283.81055 406.36719 L 284 410.33398 L 294.33398 417 L 302.66602 413.33398 L 307.33398 406.66602 L 307 402.33398 L 296 396.33398 L 312.66602 395.33398 L 314.66602 385.66602 L 309 378.33398 L 299.33398 386 L 292 393 L 299.33398 380.66602 L 299.66602 372.66602 L 294.66602 370.33398 z "
       transform="scale(0.26458333)" />
    <path
       id="path5497"
       style="fill:#aa4400;stroke:#000000;stroke-width:0.999999px;stroke-linecap:butt;stroke-linejoin:miter;stroke-opacity:1"
       d="M 274.33398 377.66602 L 266.66602 382.66602 L 263.66602 388.33398 L 268.66602 394 L 273 400.33398 L 263.33398 397.66602 L 258 399 L 255 406.66602 L 258 408.33398 L 264.66602 405.66602 L 260.33398 410.66602 L 257 417.33398 L 265.33398 420.66602 L 269.33398 419 L 274 409 L 273 417 L 284.33398 416.66602 L 284 410.33398 L 283.81055 406.36719 L 283.66602 407.33398 L 278.66602 405.33398 L 275.33398 408.33398 L 272.33398 406 L 263.66602 409.66602 L 271.33398 403.66602 L 273.33398 400.33398 L 271.33398 395.33398 L 275.33398 397.66602 L 278 398 L 282.33398 394.33398 L 282.66602 390 L 283.05078 390.41992 L 283 389.33398 L 281 387.66602 L 278.33398 379 L 274.33398 377.66602 z "
       transform="scale(0.26458333)" />
    <path
       style="fill:#00ffff;stroke:#000000;stroke-width:0.264583px;stroke-linecap:butt;stroke-linejoin:miter;stroke-opacity:1"
       d="m 69.761806,108.39097 2.293053,-0.97014 0.79375,0.61736 0.881947,-0.79375 1.322916,0.52917 0.264583,-1.76389 3.263194,-0.35278 -0.97014,-0.52916 -0.264583,-0.70556 -1.5875,-0.17639 -0.970137,-1.05833 -0.0882,1.14653 -1.146527,0.97014 -0.705557,-0.0882 -1.058333,-0.61736 0.529167,1.32292 -0.529167,0.88194 z"
       id="path3283" />
    <path
       style="fill:#aa4400;stroke:#000000;stroke-width:0.999999px;stroke-linecap:butt;stroke-linejoin:miter;stroke-opacity:1"
       d="m 483,363 -7.33398,1.33398 L 471.33398,368 476.66602,383.66602 476,387 l -12.33398,-12.33398 -5,4.66796 -2.66602,7.33204 1.33398,6.66796 6.33204,1.66602 12,0.33398 1,2.33204 -10.33204,0.33398 -8,2.33398 -4,4.66602 3,9 7.66602,4.66602 12,-8 4.66602,-3.66602 1.11132,-4.52148 -2.11132,1.1875 L 480,400 l -2.33398,-5.66602 3,-3.66796 -3.66602,-7.33204 7.66602,7.33204 0.96093,0.21289 L 486.33398,388 489,378.33398 l -1,-10 z"
       transform="scale(0.26458333)"
       id="path5738" />
    <path
       style="fill:#00ffff;stroke:#000000;stroke-width:0.264583px;stroke-linecap:butt;stroke-linejoin:miter;stroke-opacity:1"
       d="m 131.49792,109.36111 -0.88195,-3.175 2.38125,-0.17639 -2.46944,-0.88194 -1.23473,-0.88195 -0.26458,-0.70555 -0.79375,-0.17639 -2.02847,-1.94028 0.97014,1.94028 -0.79375,0.97014 0.61736,1.4993 0.17639,0.97014 1.41111,-0.79375 1.32292,0.35278 z"
       id="path3318" />
  </g>
</svg>
