<?xml version="1.0" encoding="UTF-8" standalone="no"?>
<!-- Created with Inkscape (http://www.inkscape.org/) -->

<svg
   width="210mm"
   height="297mm"
   viewBox="0 0 210 297"
   version="1.1"
   id="svg5"
   inkscape:version="1.1.1 (c3084ef, 2021-09-22)"
   sodipodi:docname="abdomen.svg"
   xmlns:inkscape="http://www.inkscape.org/namespaces/inkscape"
   xmlns:sodipodi="http://sodipodi.sourceforge.net/DTD/sodipodi-0.dtd"
   xmlns="http://www.w3.org/2000/svg"
   xmlns:svg="http://www.w3.org/2000/svg">
  <sodipodi:namedview
     id="namedview7"
     pagecolor="#ffffff"
     bordercolor="#999999"
     borderopacity="1"
     inkscape:pageshadow="0"
     inkscape:pageopacity="0"
     inkscape:pagecheckerboard="0"
     inkscape:document-units="mm"
     showgrid="false"
     inkscape:zoom="1"
     inkscape:cx="329.5"
     inkscape:cy="302.5"
     inkscape:window-width="3760"
     inkscape:window-height="2107"
     inkscape:window-x="80"
     inkscape:window-y="25"
     inkscape:window-maximized="0"
     inkscape:current-layer="layer1"
     inkscape:snap-global="false" />
  <defs
     id="defs2" />
  <g
     inkscape:label="Lager 1"
     inkscape:groupmode="layer"
     id="layer1">
    <path
       id="path4935"
       style="fill:#552200;stroke:#000000;stroke-width:0.778587px;stroke-linecap:butt;stroke-linejoin:miter;stroke-opacity:1"
       d="m 40.366243,34.583556 -6.75713,0.517795 v 4.406553 l 2.339177,6.477742 3.118909,0.25965 -2.080276,3.369459 2.339177,3.627593 v 5.701803 l 3.898641,3.627593 1.819865,-2.072694 2.599598,-6.738907 -0.866533,-9.490355 -0.692922,0.420609 0.519312,3.887253 -3.118909,5.182493 -1.559455,-3.109799 0.519312,-3.627593 0.520831,-1.554899 -3.379329,-2.332354 -1.040133,-4.405048 3.63973,-0.5193 1.818355,4.924348 2.617878,-0.580043 -0.278691,-3.047551 -0.519311,-3.887253 z" />
    <path
       id="path4612"
       style="fill:#552200;stroke:#000000;stroke-width:0.778587px;stroke-linecap:butt;stroke-linejoin:miter;stroke-opacity:1"
       d="m 72.854377,41.320948 -7.536862,1.296755 -6.498229,3.887253 -5.197675,5.700288 -4.678363,5.961452 -3.638231,11.4021 1.038633,11.66175 4.159052,8.034147 9.356727,8.551951 10.916182,5.182496 8.577005,2.592 6.498229,0.25815 0.0762,-17.776578 -1.635605,5.597029 -9.877559,3.369449 -3.63822,-3.109799 2.858498,-11.143945 -3.63822,2.850138 -9.356737,6.219607 -5.977398,-3.627603 -2.339187,-6.997042 3.118909,-3.627603 6.237819,-1.814549 8.056173,-0.259651 -0.779722,-1.813043 -9.356727,-0.25966 -4.937265,-1.29524 -1.040143,-5.184008 2.078766,-5.700297 3.898642,-3.629099 9.617137,9.589046 0.519312,-2.591994 -4.157532,-12.179544 3.37781,-2.850149 5.718506,-1.037105 3.898632,4.146904 0.779732,7.774496 -2.078776,7.514847 2.339187,1.554899 1.818355,-6.997052 4.614393,-1.840374 0.064,-14.745724 z" />
    <path
       id="path3099"
       style="fill:#ff8080;stroke:#000000;stroke-width:0.778587px;stroke-linecap:butt;stroke-linejoin:miter;stroke-opacity:1"
       d="m 1.6402806,-130.49546 -27.2904586,1.5549 -5.416966,8.10248 8.275464,-1.23451 23.32633741,-0.22625 23.84715859,1.58679 21.897874,3.91914 20.5973,4.43845 3.184379,2.33234 2.663558,3.88725 -18.713455,11.661748 -16.374277,22.934771 -17.15399,31.486719 -20.27292853,9.718119 -18.32359347,1.166177 -10.52632,-6.60832 -11.306043,5.05342 h -10.916182 l -7.01755,5.053421 -8.577005,1.943631 8.187144,15.5489935 0.779722,20.2137015 -6.627679,6.60832 -9.617148,8.35758 -12.994947,9.912489 -13.645225,11.078657 -10.52632,10.430284 -6.23782,13.087587 -3.11891,12.439185 -4.2885,6.997052 -7.01755,-3.109789 -11.69592,-14.771539 -6.36726,-16.909551 -4.54892,-20.01933 -1.23507,-19.695907 0.8452,-17.6216875 4.22302,-23.3887885 7.86277,-21.31458 8.38207,-15.872426 9.1618,-14.059393 11.04563,-11.727035 11.437,-9.004456 16.179346,-9.977773 18.258113,-6.86798 21.766893,-5.1825 9.834918,-1.46683 4.136202,-6.04802 0.129461,-1.55489 -2.599598,0.12909 -18.453043,3.49852 -22.351685,4.66469 -23.132917,10.36651 -20.53181,15.289341 -17.93374,20.213697 -12.21673,20.473341 -9.35673,24.878399 -4.15754,23.0638401 -0.42184,14.2841252 0.68074,13.1862687 1.19243,13.483907 1.92648,11.652637 4.54892,17.492624 6.10837,14.124682 11.43549,15.289344 12.21523,7.256684 8.16125,2.52369 3.01535,0.32647 -0.0761,-2.65731 -0.44316,-15.483691 5.19767,-16.326448 10.136458,-15.548994 15.854956,-12.179544 21.571963,-8.551951 7.536852,-10.624646 5.718506,-6.738907 10.13646,-5.442143 9.096316,-0.517794 8.837416,4.924348 6.108367,4.405048 3.24836,1.295249 4.2884921,-1.035599 5.84796698,-2.332354 H 9.4375932 l 13.5142688,6.997052 15.335665,5.182492 20.012498,-1.037094 10.916201,1.814549 13.51577,3.109799 L 94.6868,33.546452 99.365164,28.104299 97.286378,21.884702 88.448972,17.479654 65.577976,21.107247 50.502762,18.257108 33.609163,8.9277022 23.731615,-2.2162433 9.9569147,-8.9536352 l -16.3742774,-0.25967 -14.8148033,3.1097987 -13.255358,8.2938068 -13.77468,-2.07420949 -6.498239,-7.77449671 -1.299044,-9.0697461 2.598088,-5.701802 11.956325,-6.219598 14.03509,6.738908 15.075234,3.627593 20.0124879,-1.295239 17.8712921,-5.323709 0.0625,-0.895898 5.458076,-13.73595 15.594555,-30.578686 12.736057,-16.845755 15.334134,-8.032641 10.13645,-0.127555 10.39687,-0.13211 17.412928,9.329398 17.93371,22.02825 4.93878,12.439195 -0.26051,18.658792 -4.67836,15.807147 -12.47563,18.6587921 -14.29399,6.7389075 -4.561107,1.7143334 9.056727,12.314689 1.48179,-2.626932 9.35672,-4.664698 7.79727,-6.2195978 8.96686,-17.1038926 3.50876,-12.4391946 2.17778,-3.843222 3.28034,-2.376385 3.29097,2.22757 2.55697,5.158204 4.28851,18.65880191 0.38985,18.65879209 -0.77971,18.658802 -4.28851,16.326438 -7.40741,14.382826 -8.96686,6.219608 -8.96688,-0.777445 -6.2378,-6.60833 -3.11893,-10.10686 -3.89862,-12.439195 -4.14687,-9.39621 -6.63986,5.379894 -4.807826,1.683962 -3.248359,1.683972 1.428494,1.425837 2.729048,1.683971 14.035093,13.4763 4.67837,11.92139 2.33918,12.697359 9.09784,1.037105 11.9548,-1.29525 9.09783,-7.516352 9.35674,-20.731506 4.93725,-28.765642 -1.29903,-34.7255903 -7.27798,-30.0623977 -10.65583,-26.173648 -19.23279,-26.69294 -18.97386,-13.994104 -27.030038,-13.73444 -36.907597,-8.29229 z" />
    <path
       id="path2866"
       style="fill:#1a1a1a;stroke:#000000;stroke-width:0.778587px;stroke-linecap:butt;stroke-linejoin:miter;stroke-opacity:1"
       d="m 84.29139,-92.140769 -4.419463,2.592002 -2.598087,-1.037103 -1.819866,3.627597 -5.718506,1.5549 -4.417953,1.037105 -1.299034,5.182493 -3.63974,1.037105 -1.818355,3.369449 -4.419463,2.072693 -0.258901,1.81456 -1.040143,2.590488 -1.559455,5.442153 -4.417952,0.777445 -0.260411,5.442152 -3.898631,3.629109 v 5.700287 l -4.417953,2.592004 -1.559455,5.442153 -2.860008,2.850139 v 5.184008 l -3.37781,3.109798 2.339177,6.737392 -1.300554,3.369459 1.040143,4.922843 -2.339187,4.1469028 4.159052,4.9243481 2.339187,3.88725336 6.237818,4.14538784 4.417953,-2.332344 0.519312,4.1469034 2.860008,1.2952392 1.299044,3.3694593 2.858498,-1.0371053 5.718497,2.0741993 4.159052,0.258145 3.377809,1.037105 3.898642,-1.037105 7.277961,-0.777445 2.339177,-5.1824925 2.339186,1.8145494 0.779723,-0.7774547 1.299043,-1.2967548 6.498239,-1.0355892 1.559455,-1.8145594 4.417942,-0.7774446 2.860009,-2.85014859 2.33919,1.5548993 2.07877,-2.07419951 2.07877,-1.2952492 2.86001,-0.5177946 2.07877,-2.332354 0.51931,-3.3694488 4.41946,0.5177946 1.81836,-2.0726934 3.37933,-4.924358 -0.51933,-3.109799 2.8585,-1.554899 v -3.887244 l 1.04015,-2.590498 2.85849,-3.887244 -2.07876,-3.887253 2.59808,-3.109799 -1.29905,-3.109798 1.81988,-1.037105 v -5.442153 l -1.81988,-4.146893 -3.37932,-3.109799 1.04015,-4.145397 -3.89865,-3.887254 0.51932,-3.369449 -4.15754,-2.850148 -0.52083,-4.146904 -5.71698,-1.814549 0.2589,-3.367943 -6.49672,-2.332344 -1.30056,-3.629109 -6.75714,-1.295249 -2.078766,-4.405045 -8.057693,1.035594 -3.118909,-3.109799 z" />
    <path
       id="path2226"
       style="fill:#ffe680;stroke:#000000;stroke-width:0.778587px;stroke-linecap:butt;stroke-linejoin:miter;stroke-opacity:1"
       d="m -41.505134,-28.649532 -5.598207,2.912397 -6.358118,3.307201 -2.598088,5.701802 1.299044,9.0697461 6.498229,7.77449666 0.960963,0.14424783 12.813717,1.92995161 13.255368,-8.2937968 14.8148233,-3.1098086 16.3742774,0.25966 10.0603093,4.921317 0.251281,-1.9618483 -1.215274,-0.7561969 -1.299044,-1.2967548 -0.389861,-2.0726938 1.193954,-0.850331 -1.088874,-1.207177 -0.624401,0.373536 -1.559455,0.129073 -1.474164,-1.960323 -45.091701,5.159709 0.0411,0.039484 0.520832,3.2403765 -2.080286,2.9792208 -3.638221,0.7774547 -3.898631,-0.1290723 -4.159052,-0.5178045 -2.777778,-1.583735 -1.769625,-1.0082591 -0.650282,-4.1469034 1.819875,-2.7210757 0.662462,-0.318877 0.0228,-2.953406 -2.244756,0.681784 h -3.118909 l -1.690425,-2.462921 0.910692,-2.590499 3.638221,-1.685477 h 2.552397 0.306101 l 0.204061,0.305197 4.922034,0.148814 0.202551,-1.360538 3.898631,-0.648372 3.50878,1.814549 0.254321,0.429722 4.669223,0.141217 10.803492,0.323434 -9.099357,-2.189622 z" />
    <path
       id="path6051"
       style="fill:#ffe680;stroke:#000000;stroke-width:0.778587px;stroke-linecap:butt;stroke-linejoin:miter;stroke-opacity:1"
       d="m -31.956527,-156.48992 -14.150831,0.54968 -19.849547,3.66555 -17.642851,5.68054 -17.642844,7.32959 -18.19416,10.26174 -18.0114,12.82792 -15.98897,15.57481 -14.51939,19.607828 -9.37195,17.775048 -7.3526,18.508482 -5.69718,24.737173 -4.0433,21.6228169 -2.02091,24.0068101 0.36702,21.805034 2.38944,18.874421 4.04331,17.4091 9.18922,22.722187 10.10904,14.47697 10.84308,11.36109 13.78382,8.97864 16.72302,7.51332 18.19567,4.58118 19.481001,3.11588 13.048248,0.18221 7.902363,-0.18221 h 21.870433 l 0.0609,-7.92179 -11.822315,-2.15773 -6.98404,-1.46531 -4.227592,-3.48182 -3.30775,-3.66555 -3.121949,-2.18962 2.823458,3.40286 4.893095,5.7504 -1.653865,1.64904 -4.043322,-0.7319 -5.881457,-1.46682 -9.373477,-2.19873 -10.843091,-3.29809 -7.16679,-2.5662 -12.31421,-5.13085 -6.98404,-4.94714 1.28685,-1.83278 5.14591,-0.54968 8.2709,0.73342 h 11.76138 l 8.270903,-0.73342 7.166791,-0.18373 0.834553,2.30958 1.554884,4.65406 3.035149,2.24884 -1.932566,-2.24884 -1.653875,-4.39745 0.368542,-2.7484 3.67477,-1.46683 7.168321,-0.91563 9.556228,-2.56619 8.637915,-4.39745 7.15461,-3.96318 0.105081,-13.593225 -4.687504,5.279685 -10.658811,7.87927 -18.011402,6.96363 -18.561164,1.64906 -15.621965,-1.83278 -10.47606,-3.29809 -19.11246,-10.99515 -16.5418,-22.172506 -7.71808,-22.723706 -4.5946,-24.920905 -0.36703,-27.303372 2.75646,-26.937423 7.35107,-23.271871 9.74049,-21.624343 13.04826,-20.155989 20.76786,-21.074665 32.162228,-16.30822 24.259881,-6.41396 18.025102,-2.96706 10.070979,-1.65816 19.799277,-2.06965 15.72400589,-0.59069 18.20632311,1.17529 20.047528,2.13343 22.915156,3.61089 25.913745,6.96364 19.848035,8.24522 19.29824,12.82792 13.04826,13.559824 13.04825,19.058153 9.18922,18.874411 6.79977,19.056628 3.66715,18.595029 0.56042,2.845592 2.0209,17.4090988 -0.73404,22.5384482 -3.26663,22.79356 -0.40966,2.860768 -9.37348,26.20401 -10.65882,15.026652 -14.88639,12.827916 -15.98899,6.77991 -18.01139,2.38247 -16.383421,-1.07963 0.916782,6.04042 0.764503,0.17007 0.551291,2.7484 -0.633532,1.57768 0.488862,3.21002 1.247253,-3.87206 2.389447,-2.74842 6.064198,0.54968 10.291807,0.73342 12.12993,-0.73342 11.21164,-0.18373 1.46959,1.65057 -6.24848,4.21371 -12.3142,5.86428 -16.907298,5.13087 -7.408932,2.06814 2.078756,13.6904 14.519384,-1.4653 19.481,-4.5812 18.37842,-6.77989 9.00494,-5.86429 15.07067,-11.72704 9.37348,-11.9123 7.90236,-15.208856 6.0642,-15.026652 4.04332,-16.857903 1.83815,-15.392601 0.73556,-20.890919 -0.18427,-16.675696 -1.47114,-17.4075943 -2.20515,-10.2617267 -2.20518,-10.261728 -6.06421,-21.44061 -6.79977,-17.775049 -9.74049,-17.957275 -11.94718,-16.491955 -13.78381,-14.111015 -16.17173,-13.74355 -21.87044,-13.19388 -20.583593,-8.61268 -22.238984,-6.41244 -20.76633,-2.74992 -23.341568,-0.36595 -26.8320678,0.36595 z" />
    <path
       id="path6049"
       style="fill:#ffe680;stroke:#000000;stroke-width:0.778587px;stroke-linecap:butt;stroke-linejoin:miter;stroke-opacity:1"
       d="m -0.52985567,-133.58401 -24.80964233,0.91563 -20.96736,2.78789 -9.356727,1.24361 -21.870444,6.04802 -19.665267,8.24522 -17.827124,10.07951 -15.25343,13.92577 -13.60107,18.874412 -9.55621,17.409109 -8.8222,25.104647 -4.04179,16.859418 -1.47113,27.11964 1.83815,22.905922 4.41033,19.973774 6.98404,19.607834 8.8222,13.743548 12.31268,9.712056 14.15084,6.77991 20.400829,2.19872 11.394383,0.18374 17.09157,-4.94713 13.048248,-9.162372 9.355207,-9.180591 0.16447,-21.454271 -2.022425,12.990392 -7.538372,10.364995 -16.893589,9.589046 -13.125918,2.743851 -13.124393,0.36595 -4.80934,-0.25965 -4.80781,-3.367946 -1.04013,-3.887253 0.77972,-4.406554 2.33919,-8.810095 4.41946,-10.366501 4.678359,-8.551941 7.536862,-8.551952 11.176592,-5.182492 20.012498,-1.81456 7.165271,2.582901 3.4905,4.414151 1.789415,8.693168 0.169041,-22.16491 -1.698035,-0.393279 -3.638231,-4.405048 -0.650271,-5.442153 4.288502,-7.903569 1.850325,-1.734065 0.0305,-4.040624 -1.101063,0.590691 -5.718506,6.738897 -7.536862,10.624646 -21.571953,8.551951 -15.854956,12.179545 -10.136458,15.548993 -5.19767,16.326448 0.44316,15.483701 0.0761,2.6573 -3.01536,-0.32647 -8.16124,-2.52368 -12.21523,-7.256704 -11.4355,-15.289344 -6.10837,-14.124671 -4.54891,-17.492625 -1.92648,-11.652647 -1.19243,-13.483887 -0.68074,-13.1862787 0.42184,-14.2841251 4.15754,-23.0638402 9.35673,-24.878389 12.21673,-20.473351 17.93373,-20.213697 20.53182,-15.289341 23.132917,-10.36651 22.351685,-4.66469 6.85917,-1.29981 11.593873,-2.19871 2.599598,-0.12908 -0.129451,1.5549 -4.136202,6.04801 0.127921,-0.0197 5.218995,-0.77744 5.416966,-8.10248 27.2904586,-1.5549 39.5056844,3.6291 36.907607,8.2923 27.030048,13.73444 18.97387,13.994096 19.23278,26.692948 10.65577,26.173638 5.71545,23.608965 1.56251,6.4534426 1.29904,34.7255804 -4.22607,24.624821 -0.71119,4.140831 -9.35674,20.731486 -9.09783,7.516352 -11.9548,1.29525 -9.09784,-1.037105 -2.33917,-12.697339 -4.67837,-11.9214 -9.02626,-8.665828 -9.638466,-0.10933 7.229221,5.405709 5.458095,5.961453 4.67837,9.329396 1.29904,14.511898 -0.2589,10.366501 -6.23782,5.442145 -18.713465,4.1454 -3.33211,-0.13212 0.482761,3.17966 3.950412,1.0538 18.011402,-0.18373 11.39438,-1.28158 13.96656,-5.68054 12.12994,-9.162379 8.45365,-11.362606 8.27089,-18.506946 3.23465,-12.291906 0.62439,-2.368797 2.75647,-14.109496 0.55281,-18.32474 -0.36854,-20.7071971 -1.44372,-10.1949129 -0.76146,-5.379895 -4.41033,-14.660693 -6.24848,-16.491963 -8.08662,-17.591316 -11.02735,-16.675696 -15.80623,-15.026647 -14.51785,-9.71205 -19.849551,-10.078 -29.955547,-8.42895 -29.957067,-4.21524 z" />
    <path
       style="fill:#ffe680;stroke:#000000;stroke-width:0.778587px;stroke-linecap:butt;stroke-linejoin:miter;stroke-opacity:1"
       d="m -46.629719,-20.569838 0.836082,1.249702 0.389861,2.203272 -1.040143,2.072704 -0.743182,0.226238 -0.0228,2.953406 3.105209,-1.494167 9.227277,1.424322 3.5971,3.459036 45.091701,-5.159709 -0.0853,-0.112371 0.519321,-1.81456 1.688905,-0.777444 1.819865,0.906517 0.389861,2.851654 -0.674642,0.403918 1.088874,1.207177 0.625911,-0.444918 2.078766,0.646867 1.299044,1.5548988 0.520832,2.3323539 -0.260421,1.4258271 h -1.688905 l -0.865002,-0.5390523 -0.251281,1.9618483 3.714371,1.8160749 9.877558,11.1439554 16.893589,9.3293959 15.075234,2.850149 22.870996,-3.627603 8.837416,4.405048 2.078766,6.219597 -4.678364,5.442153 -11.954814,0.25965 L 69.216186,30.696303 58.300005,28.881754 38.287507,29.918858 22.951852,24.736356 9.4375932,17.739314 H 5.8800829 l -0.0168,1.980065 -0.0152,1.7766 h 2.5493374 l 4.1590517,1.943622 2.339177,2.203282 1.559455,2.267055 1.299043,3.56382 0.260411,4.146893 -0.520821,3.367943 -1.754386,2.07421 -2.534117,2.332354 -3.118909,1.618672 -4.4392727,0.757703 -0.0259,3.14018 6.9688097,0.868558 h 0.003 l 14.251342,0.160959 -3.114339,-8.340889 -4.226063,-9.162375 1.285334,-3.48181 2.940729,0.182207 2.022415,2.932148 6.982521,13.561331 1.361474,4.392903 0.2056,0.002 2.971179,0.0334 -0.286301,-0.444908 2.080286,-3.369449 -3.118909,-0.25966 -2.339187,-6.477742 v -4.406554 l 6.75706,-0.517854 5.458096,1.037095 0.519311,3.887253 3.639731,-4.664698 4.157542,1.295249 5.199195,-2.592004 4.417943,0.777445 3.379329,1.037105 -0.26041,2.850148 -5.718507,2.592004 -4.157542,3.369449 -4.938774,0.777455 -2.599598,3.109798 0.179691,2.141024 5.747456,0.06531 3.42958,-3.761232 6.498229,-3.887243 7.536862,-1.296755 13.255368,4.664698 6.286559,4.701141 9.638466,0.10933 -5.008843,-4.810471 -2.729038,-1.683972 -1.428494,-1.425827 3.248359,-1.683981 4.807816,-1.683972 6.63986,-5.379895 -0.14163,-0.321908 -1.16958,-7.774496 2.02698,-3.592666 L 99.223343,10.124669 87.929471,14.370274 63.238609,18.517177 49.203518,14.629924 33.867874,5.3005277 26.070591,-3.2514137 24.511137,-11.02592 l 0.520831,-7.390321 -3.45851,-0.103258 -0.440131,1.143404 -1.949316,1.037104 -1.949315,-1.295249 0.318291,-1.006733 -16.67124858,-0.501094 h -0.006 -0.006 l -13.26421842,0.859455 -5.972827,-1.436466 -0.003,-0.002 -10.803492,-0.323424 -2.963568,-0.08964 -1.705655,-0.05165 1.434584,2.420426 -0.389871,2.462922 -3.24836,0.646877 -2.989458,0.130577 -1.949316,-1.037104 -1.038623,-2.721077 0.316761,-2.137982 -3.60167,-0.10932 z"
       id="path5525" />
    <path
       style="fill:#ffe680;stroke:#000000;stroke-width:0.778587px;stroke-linecap:butt;stroke-linejoin:miter;stroke-opacity:1"
       d="m 25.48898,-24.90199 -17.8712921,5.32371 -6.7418895,0.435794 16.6773286,0.501094 0.461431,-1.456198 2.208226,-0.517795 1.559455,1.554899 -0.208641,0.540568 3.45851,0.103258 z"
       id="path5266" />
    <path
       id="path3886"
       style="fill:#ffe680;stroke:#000000;stroke-width:0.778587px;stroke-linecap:butt;stroke-linejoin:miter;stroke-opacity:1"
       d="m -29.289909,10.482612 -9.096316,0.517794 -9.035397,4.851462 -0.0304,4.040614 4.647894,-4.35645 5.847957,-2.850149 11.306053,1.29525 3.898631,3.887243 2.729048,6.997052 -1.690415,7.385774 -8.577005,6.34867 -12.734537,2.462932 -5.579926,-1.292198 -0.0716,9.324839 15.797085,0.179156 7.641943,-9.323314 9.189206,-7.331115 4.043322,-0.91562 0.734032,2.198715 -10.876581,15.494334 13.2111779,0.15033 6.7160294,-1.488095 6.8408798,0.851867 0.0265,-3.14018 -0.4980114,0.08505 -2.5995775,-0.19438 -2.59960748,-0.194371 -2.14424622,-0.842744 -2.1442662,-0.841228 -2.7929881,-2.462932 -1.4955043,-2.979221 -1.0386131,-2.786365 v -4.081604 l 1.8838455,-3.238871 2.1442262,-2.980727 3.0534489,-2.397643 3.57424033,-1.360538 H 4.6943195 5.8486928 l 0.0318,-3.756665 h -6.83936982 l -5.84793698,2.332344 -4.288502,1.035599 -3.24836,-1.295249 -6.108367,-4.405048 z" />
    <path
       style="fill:#ffe680;stroke:#000000;stroke-width:0.778587px;stroke-linecap:butt;stroke-linejoin:miter;stroke-opacity:1"
       d="m -14.615196,117.54899 3.62146,3.85839 4.0326517,4.48554 2.8006281,6.86494 0.3228509,6.51265 -1.4695942,8.79642 0.367011,3.4803 -2.2051564,-1.64904 -6.0642171,-8.24522 -8.057684,-4.66014 5.299706,4.11046 5.062134,5.39811 0.452302,2.66489 -1.471125,0.91564 -3.123479,-0.36596 -4.411853,-0.91714 -4.961624,0.73342 h -7.718082 l -13.049778,-0.36596 -3.246829,-0.59219 -0.0609,7.92179 11.027362,-0.91715 h 7.718083 l 8.822185,-1.64904 9.740508,0.36746 9.5562281,1.64905 9.0064561,-0.36747 8.4536548,-1.28158 7.719602,-0.18374 13.966561,2.015 10.66033,0.73341 22.420215,0.36595 19.665277,-0.54968 -2.078766,-13.6904 -6.374888,1.77963 -9.189207,1.46682 -0.735562,-1.83277 7.351061,-5.86428 6.61702,-6.96364 0.406621,-1.2588 -0.488852,-3.21002 -1.940185,4.83629 -9.189207,8.97863 -6.248478,3.84777 -5.328645,1.83277 -9.557748,1.64905 -12.312696,0.73341 -7.351061,0.36595 -7.719602,-0.73341 -6.064208,0.18373 -4.963144,1.46684 -1.838146,-1.28311 1.838146,-3.84776 2.022415,-2.93215 0.714233,-1.06139 -3.470701,1.97702 -4.4118523,6.04801 -2.8843784,1.76142 -0.7949623,-2.66035 -0.7188121,-6.34107 -0.1142103,-3.7111 0.002,-4.43846 -0.676172,2.13495 -0.2604207,4.6647 0.7797322,6.99705 -1.2990437,3.88725 -4.93883432,1.29525 -2.85849828,-2.59201 v -3.1098 l 1.5594545,-8.03264 -0.7797322,-7.2567 -3.8986313,-8.03415 -6.4982388,-5.70029 z"
       id="path3523" />
    <path
       style="fill:#ffe680;stroke:#000000;stroke-width:0.778587px;stroke-linecap:butt;stroke-linejoin:miter;stroke-opacity:1"
       d="m 12.589972,49.780271 0.746222,0.09263 9.356728,6.479247 6.757139,7.774497 4.159052,9.329396 -0.779732,12.439204 -3.118909,5.959947 -0.260411,3.629099 2.858498,3.109799 3.118909,1.035601 2.339177,0.777439 8.837416,4.6647 v 3.1098 l -7.277961,0.25966 -6.496719,0.5178 -1.443714,0.9794 7.529242,-0.56638 h 4.976854 l -1.599045,0.94599 -2.205166,1.28158 -3.860561,4.76492 -0.187321,0.78504 3.679341,-4.08313 4.594603,-2.93214 4.411853,-0.73342 9.004936,5.3146 10.843092,4.94713 12.314205,2.01651 4.197122,0.9293 -0.916782,-6.04042 -3.097589,-0.20347 -16.540278,-5.13087 -12.681227,-9.52831 -10.658811,-11.912303 -2.389437,-8.245219 1.102583,-5.130863 1.838146,0.549681 5.512916,10.811419 4.963144,5.314586 8.820666,7.513329 12.865507,5.86276 9.097836,2.42802 -0.482761,-3.17966 -3.166119,-0.12603 -8.577005,-2.592 -10.916182,-5.182495 -9.356727,-8.551951 -4.159052,-8.034147 -1.038633,-11.66175 3.638231,-11.4021 4.678363,-5.961452 1.768095,-1.939065 -5.747456,-0.06531 0.0807,0.968774 -2.078766,2.590489 -2.599598,6.738917 -1.819865,2.072694 -3.898641,-3.627593 v -5.701803 l -2.051356,-3.182685 -3.178309,-0.0349 2.499097,8.067559 2.572187,10.44547 0.919833,5.496802 -2.206686,2.564684 -2.205167,-1.83126 -2.940738,-5.680545 -2.572188,-10.261737 -3.318409,-8.884489 z"
       id="path3521" />
    <path
       style="fill:#ffe680;stroke:#000000;stroke-width:0.778587px;stroke-linecap:butt;stroke-linejoin:miter;stroke-opacity:1"
       d="m -47.675942,49.095445 -0.0975,12.840071 0.290871,1.413683 -0.316761,2.040807 -0.16447,21.454271 2.223436,-2.182024 6.065738,-14.109506 6.248478,-5.130854 2.205156,1.283095 -1.286853,3.48182 -3.674771,7.695537 -6.617019,12.644185 -5.238795,5.900731 -0.103551,13.591699 1.116284,-0.61801 4.212362,0.97182 4.057012,2.14405 3.67629,4.0315 2.020896,7.14586 1.422394,1.95122 -1.973676,-8.36518 -2.389436,-4.58118 -5.945428,-3.89788 h -0.002 l -2.416847,0.15793 -2.080286,-1.0356 1.559455,-2.85166 6.758649,-3.88724 6.496719,-1.5549 2.339187,-2.072706 0.779722,-3.109798 -3.898631,-6.737392 -0.779732,-5.701803 0.520831,-9.069746 5.197675,-9.329396 4.938775,-6.479247 9.615637,-6.479258 4.9829349,-1.103919 -13.2142379,-0.15033 -0.700542,0.999146 -7.719603,10.261727 -9.556228,8.063002 -0.735572,-6.413958 3.30776,-7.329589 4.672263,-5.701803 z"
       id="path1733" />
    <path
       id="path5569"
       style="fill:#008000;stroke:#000000;stroke-width:0.791426px;stroke-linecap:butt;stroke-linejoin:miter;stroke-opacity:1"
       d="m -32.567209,-159.59821 -14.371651,0.5588 -20.155649,3.72932 -17.916981,5.77925 -17.91698,7.45866 -18.47588,10.44091 -18.29009,13.05114 -16.23721,15.84812 -14.74477,19.951003 -9.51816,18.084822 -7.46528,18.831905 -5.78552,25.171452 -4.10575,22.0009202 -2.05288,24.4243778 0.37311,22.187695 2.42599,19.205452 4.10575,17.71278 9.33237,23.118513 10.26438,14.73055 11.0106,11.56002 13.99854,9.13502 16.98345,7.64543 18.47587,4.66015 19.784067,3.17053 13.250798,0.18688 8.025713,-0.18688 h 22.208525 l 11.197922,-0.93232 h 7.839913 l 8.957726,-1.67789 9.891269,0.372 9.7054677,1.67944 9.1450465,-0.37355 0.0746,-2.35815 -0.0731,0.0118 -9.0064461,0.36748 -9.5562481,-1.64906 -9.740498,-0.36744 -8.822185,1.64902 h -7.718093 l -11.027352,0.91717 h -21.870433 l -7.902363,0.18218 -13.048248,-0.18218 -19.481001,-3.11587 -18.19566,-4.58119 -16.72303,-7.51333 -13.78381,-8.97864 -10.84309,-11.36109 -10.10904,-14.47697 -9.18922,-22.722181 -4.04331,-17.409099 -2.38944,-18.874431 -0.36701,-21.805044 2.0209,-24.0068005 4.0433,-21.6228175 5.69718,-24.737172 7.3526,-18.508482 9.37195,-17.775049 14.51939,-19.607834 15.98897,-15.57481 18.0114,-12.82791 18.19416,-10.26174 17.642844,-7.32959 17.642851,-5.68054 19.849547,-3.66556 14.150831,-0.54968 22.4217352,0.36594 26.8320778,-0.36594 0.0533,0.002 0.099,-3.1098 -27.2478085,0.37202 z"
       sodipodi:nodetypes="ccccccccccccccccccccccccccccccccccccccccccccccccccccccccccccccccccccccccc" />
    <path
       id="path6205"
       style="fill:#008000;stroke:#000000;stroke-width:0.791426px;stroke-linecap:butt;stroke-linejoin:miter;stroke-opacity:1"
       d="m 17.449556,-159.59821 -0.099,3.1098 23.288268,0.36444 20.76634,2.74992 22.238984,6.41244 20.583602,8.61268 21.87044,13.19388 16.17172,13.74355 13.7838,14.111016 11.94721,16.491954 9.74048,17.957275 6.79979,17.775059 6.0642,21.4406 4.41033,20.5234647 1.47115,17.4075843 0.18419,16.675696 -0.73554,20.890929 -1.83817,15.392591 -4.04332,16.857912 -6.06419,15.026653 -7.90235,15.208856 -9.3735,11.9123 -15.07067,11.72704 -9.00492,5.86427 -18.37844,6.77993 -19.48098,4.58117 -14.519403,1.46531 -19.665247,0.54969 -22.420225,-0.36595 -10.66034,-0.73342 -13.966541,-2.01501 -7.719612,0.18365 -8.3805646,1.27098 -0.0746,2.35815 8.5846146,-1.30589 7.838403,-0.18512 14.184331,2.04991 10.824801,0.74556 22.768976,0.37353 19.969858,-0.55876 14.744769,-1.49265 19.78254,-4.66014 18.66318,-6.89988 9.14505,-5.96603 15.30519,-11.93202 9.51817,-12.12031 8.02418,-15.47461 6.15864,-15.289342 4.10726,-17.153986 1.86558,-15.661374 0.74621,-21.255363 -0.18566,-16.967242 -1.49399,-17.7127912 -4.47885,-20.8818158 -6.15865,-21.814147 -6.90635,-18.086338 -9.89129,-18.271595 -12.13142,-16.780463 -13.99702,-14.357003 -16.42302,-13.98347 -22.21005,-13.42468 -20.903408,-8.76302 -22.581636,-6.52632 -21.090711,-2.797 z" />
    <path
       id="path3691"
       style="fill:#552200;stroke:#000000;stroke-width:0.778587px;stroke-linecap:butt;stroke-linejoin:miter;stroke-opacity:1"
       d="m -60.218599,46.245296 -20.012498,1.81456 -2.639187,19.56835 0.0396,0.126041 1.559454,1.296755 -0.26041,-9.589056 2.599597,-3.887244 6.75713,-1.295249 3.898641,1.813044 -0.258901,6.219597 -5.718506,9.589046 5.718506,-5.442142 7.536862,-5.959948 4.417953,5.700298 -1.559455,7.516352 -12.994957,0.777444 8.577005,4.664698 0.26041,3.367944 -3.63973,5.184008 -6.496729,2.850148 -8.057683,-5.182502 0.26041,4.922852 -5.718506,0.168537 -1.430004,10.609461 13.125918,-2.743851 16.893589,-9.589046 7.538372,-10.364995 2.339186,-15.031199 -2.080286,-10.106851 -3.4905,-4.414151 z" />
    <path
       id="path1307"
       style="fill:#800000;stroke:#000000;stroke-width:0.778587px;stroke-linecap:butt;stroke-linejoin:miter;stroke-opacity:1"
       d="m 0.53485248,-122.29867 -23.32629248,0.2262 -8.275488,1.23455 -5.346974,0.7971 -9.835089,1.46693 -21.766693,5.18297 -13.257626,4.98613 -5.001259,1.88121 -16.178901,9.977933 -5.71853,4.501796 -5.71802,4.502826 -11.04587,11.726718 -9.16174,14.058768 v 5.17e-4 l -8.38246,15.87247 -7.86207,21.315124 -4.22353,23.388516 -0.84439,17.621767 1.23455,19.695674 4.54857,20.019253 6.36759,16.909683 11.69596,14.771369 7.01716,3.110087 4.28865,-6.997182 3.11867,-12.439317 6.23789,-13.086995 v -5.17e-4 l 10.52651,-10.430334 13.645207,-11.078527 12.995109,-9.912501 9.617013,-8.357973 6.627522,-6.608162 -0.779801,-20.2135059 -8.187121,-15.5488901 8.577279,-1.944063 7.017681,-5.053118 h 10.91616 l 11.305803,-5.053635 10.526519,6.608678 18.32348254,-1.166539 20.27272346,-9.717735 17.154041,-31.486801 16.374241,-22.93509 18.713639,-11.661794 -2.663925,-3.8871 -3.184312,-2.33204 -20.597769,-4.43842 -21.896917,-3.91956 z" />
    <path
       id="path2917"
       style="fill:#008000;stroke:#000000;stroke-width:0.778587px;stroke-linecap:butt;stroke-linejoin:miter;stroke-opacity:1"
       d="m 95.207572,-95.250569 -10.39687,0.132105 v 3.495492 l 3.118909,3.109799 8.057693,-1.035594 2.078766,4.405045 6.75714,1.295249 1.30056,3.629109 6.49672,2.332344 -0.2589,3.367943 5.71698,1.814549 0.52083,4.146904 4.15754,2.850148 -0.51932,3.369449 3.89865,3.887254 -1.04015,4.145397 3.37932,3.109799 1.81988,4.146893 v 5.442153 l -1.81988,1.037105 1.29905,3.109798 -2.59808,3.109799 2.07876,3.887253 -2.85849,3.887244 -1.04015,2.590498 v 3.887244 l -2.8585,1.554899 0.51933,3.109799 -3.37933,4.924358 -1.81836,2.0726934 -4.41946,-0.5177946 -0.51931,3.3694488 -2.07877,2.332354 -2.86001,0.5177946 -2.07877,1.2952492 -2.07877,2.07419951 -2.33919,-1.5548993 -2.860009,2.85014859 -4.417942,0.7774446 -1.559455,1.8145594 -6.498239,1.0355892 -1.299043,1.2967548 v 8.0387138 l 3.118909,-0.523867 15.854969,-5.9599474 14.29399,-6.7388975 12.47565,-18.6588021 4.67836,-15.807138 0.26041,-18.658792 -4.93877,-12.439204 -17.93373,-22.028245 z" />
    <path
       style="fill:#ff0000;fill-opacity:1;stroke:#000000;stroke-width:0.778587px;stroke-linecap:butt;stroke-linejoin:miter;stroke-opacity:1"
       d="m 106.25321,26.031605 3.50878,-6.219597 9.35673,-4.664698 7.79727,-6.2195979 8.96686,-17.1039026 3.50876,-12.4391945 2.17772,-3.842783 3.2804,-2.376814 3.29153,2.226912 2.55641,5.158862 4.2885,18.65879186 0.38986,18.65879214 -0.77971,18.658802 -4.28851,16.326448 -7.40741,14.382826 -8.96687,6.219608 -8.96687,-0.777475 -6.2378,-6.60833 -3.11893,-10.10683 -3.89862,-12.439195 -4.2885,-9.718128 z"
       id="path1422"
       sodipodi:nodetypes="cccccccccccccccccccccc" />
    <path
       style="fill:#ffffff;stroke:#000000;stroke-width:0.778587px;stroke-linecap:butt;stroke-linejoin:miter;stroke-opacity:1"
       d="m -40.985313,-15.561965 -1.039643,-2.721076 0.519822,-3.498521 3.898631,-0.647874 3.50878,1.814051 1.689415,2.850647 -0.389871,2.461925 -3.24886,0.647874 -2.988958,0.129591 z"
       id="path2312" />
    <path
       style="fill:#ffffff;stroke:#000000;stroke-width:0.778587px;stroke-linecap:butt;stroke-linejoin:miter;stroke-opacity:1"
       d="m -49.432367,-14.136636 2.988958,-0.907026 1.039633,-2.073202 -0.389861,-2.202763 -1.039633,-1.55491 h -2.859008 l -3.638731,1.684471 -0.909672,2.591505 1.689405,2.461925 z"
       id="path2540" />
    <path
       style="fill:#ffffff;stroke:#000000;stroke-width:0.778587px;stroke-linecap:butt;stroke-linejoin:miter;stroke-opacity:1"
       d="m -40.335551,-1.5678609 -4.158542,-0.5183031 -4.548413,-2.5914955 -0.649772,-4.1464049 1.819365,-2.7210666 3.768691,-1.81406 9.226767,1.425328 3.63873,3.4985309 0.519812,3.2393695 -2.079266,2.9802279 -3.638731,0.7774447 z"
       id="path2608" />
    <path
       style="fill:#ffffff;stroke:#000000;stroke-width:0.778587px;stroke-linecap:butt;stroke-linejoin:miter;stroke-opacity:1"
       d="m 18.014058,-20.097082 2.209216,-0.518303 1.559465,1.554899 -0.649782,1.68448 -1.949326,1.036597 -1.949295,-1.295758 z"
       id="path2643" />
    <path
       style="fill:#ffffff;stroke:#000000;stroke-width:0.778587px;stroke-linecap:butt;stroke-linejoin:miter;stroke-opacity:1"
       d="m 18.144018,-12.581737 -0.389861,-2.850647 -1.819355,-0.907025 -1.689425,0.777444 -0.519821,1.814051 1.559464,2.073203 1.559435,-0.129581 z"
       id="path2711" />
    <path
       style="fill:#ffffff;stroke:#000000;stroke-width:0.778587px;stroke-linecap:butt;stroke-linejoin:miter;stroke-opacity:1"
       d="m 17.364276,-10.119812 1.819355,-1.295758 2.079286,0.647884 1.299544,1.5548993 0.519822,2.332354 -0.259931,1.4253185 H 21.132927 L 19.053671,-6.750862 17.754127,-8.0466097 Z"
       id="path2746" />
    <path
       style="fill:#ffffff;stroke:#000000;stroke-width:0.778587px;stroke-linecap:butt;stroke-linejoin:miter;stroke-opacity:1"
       d="m -36.956731,12.685385 11.306053,1.295748 3.898631,3.887243 2.729048,6.997052 -1.689405,7.385774 -8.577005,6.349178 -12.735547,2.461915 -7.277451,-1.68447 -3.638731,-4.405546 -0.649771,-5.442153 4.288502,-7.904067 6.497719,-6.090027 z"
       id="path2781" />
    <path
       style="fill:#ffffff;stroke:#000000;stroke-width:0.778587px;stroke-linecap:butt;stroke-linejoin:miter;stroke-opacity:1"
       d="m -4.3381267,43.783372 -2.7940181,-2.461925 -1.4944843,-2.980228 -1.0396331,-2.785857 -10e-6,-4.081604 1.8843555,-3.23938 2.1442562,-2.980228 3.0539189,-2.397134 3.57374033,-1.360538 H 4.6937295 8.3974302 l 4.1585418,1.943631 2.339187,2.202774 1.559465,2.267563 1.299533,3.563312 0.259931,4.146395 -0.519821,3.36895 -1.754386,2.073202 -2.534117,2.332344 -3.118909,1.61969 -4.9382842,0.842235 -2.5990776,-0.194371 -2.59907748,-0.194381 -2.14423622,-0.842235 z"
       id="path2816"
       sodipodi:nodetypes="ccccccccccccccccccccccccc" />
    <path
       id="path4197"
       style="fill:#552200;stroke:#000000;stroke-width:0.778587px;stroke-linecap:butt;stroke-linejoin:miter;stroke-opacity:1"
       d="m 86.109745,45.985646 -0.064,14.745724 0.584802,-0.23232 4.417953,2.072694 1.040133,7.774497 -4.850444,6.527845 2.025465,0.721269 9.842529,1.043187 -0.779732,9.329396 -4.419463,4.406554 -7.797273,-4.924348 -0.18275,0.622568 -0.0762,17.776578 18.713465,-4.1454 6.23782,-5.442145 0.2589,-10.366501 -1.29904,-14.511898 -4.67837,-9.329396 -5.458095,-5.961453 z" />
    <path
       id="path4404"
       style="fill:#552200;stroke:#000000;stroke-width:0.778587px;stroke-linecap:butt;stroke-linejoin:miter;stroke-opacity:1"
       d="m 59.340118,33.546452 -5.199195,2.592004 -4.157542,-1.29525 -3.639731,4.664698 0.278691,3.047551 2.060486,-0.457052 4.419463,-3.627603 3.63823,-0.25965 -1.040143,2.592004 -3.63822,0.25965 -5.284486,3.206984 0.866533,9.490355 2.078766,-2.590489 -0.260411,-3.109798 2.599598,-3.109799 4.938774,-0.777455 4.157542,-3.369448 5.718507,-2.592004 0.26041,-2.850149 -3.379329,-1.037105 z" />
    <path
       style="fill:#aa4400;stroke:#000000;stroke-width:0.778587px;stroke-linecap:butt;stroke-linejoin:miter;stroke-opacity:1"
       d="m 89.259114,77.595355 0.749273,0.265733 -7.017551,0.51931 2.599598,9.329396 -4.678364,-8.811602 -3.898641,-1.037104 -2.512797,1.409125 -0.866523,3.515233 -2.858498,11.143945 3.63822,3.109799 9.877559,-3.369449 1.818355,-6.219597 7.797273,4.924348 4.419463,-4.406554 0.779732,-9.329396 z"
       id="path6126" />
    <path
       style="fill:#aa4400;stroke:#000000;stroke-width:0.778587px;stroke-linecap:butt;stroke-linejoin:miter;stroke-opacity:1"
       d="m 86.630577,60.49905 -5.199195,2.072694 -1.818355,6.997052 -2.339187,-1.554899 -0.551282,2.238209 1.589915,0.353795 0.779732,2.072694 3.639731,2.592004 4.506283,1.603487 4.850444,-6.527845 -1.040133,-7.774497 z"
       id="path4016" />
    <path
       style="fill:#aa4400;stroke:#000000;stroke-width:0.778587px;stroke-linecap:butt;stroke-linejoin:miter;stroke-opacity:1"
       d="m 43.485162,53.760651 3.118909,-5.183001 -0.519822,-3.887253 5.977898,-3.628102 3.63872,-0.259131 1.039643,-2.591496 -3.63872,0.259132 -4.418463,3.628101 -4.678364,1.036597 -1.819365,-4.92384 -3.63872,0.518293 1.039643,4.405547 3.378819,2.332354 -0.519821,1.554899 -0.519822,3.628102 z"
       id="path4369" />
    <path
       id="path4640"
       style="fill:#808000;stroke:#000000;stroke-width:0.778587px;stroke-linecap:butt;stroke-linejoin:miter;stroke-opacity:1"
       d="m -1.2197277,48.059856 0.1050803,42.339127 3.793561,-0.616495 9.0978264,3.627603 3.638221,6.997039 -2.858489,7.7745 -10.6572906,4.66471 -2.9574786,0.13362 0.0990003,39.77597 4.9387743,-1.29525 1.2990437,-3.88725 -0.7797322,-6.99705 0.2604107,-4.6647 4.6783736,-14.77154 5.7169868,-4.6647 5.978917,-2.33235 5.197685,-0.77745 6.498229,-4.40655 6.496719,-0.5178 7.277961,-0.25966 v -3.1098 l -8.837416,-4.6647 -2.339177,-0.77744 -3.118909,-1.035601 -2.858498,-3.109799 0.260411,-3.629099 3.118909,-5.959947 L 33.609123,73.45604 29.450071,64.126644 22.692932,56.352147 13.336204,49.8729 Z" />
    <path
       style="fill:#008000;fill-opacity:1;stroke:#000000;stroke-width:0.778587px;stroke-linecap:butt;stroke-linejoin:miter;stroke-opacity:1"
       d="m -39.123668,68.720399 9.556738,-8.062862 7.718903,-10.261818 11.578373,-16.492202 -0.735132,-2.198965 -4.043242,0.916239 -9.189176,7.329868 -12.313496,15.026223 -3.3081,7.329888 z"
       id="path4901" />
    <path
       style="fill:#008000;stroke:#000000;stroke-width:0.778587px;stroke-linecap:butt;stroke-linejoin:miter;stroke-opacity:1"
       d="m -39.675009,70.552866 6.248628,-5.130903 2.205406,1.282696 -1.286493,3.4817 -3.675661,7.696355 -6.616209,12.644025 -9.924309,11.178061 -10.659451,7.8796 -18.010782,6.96337 -18.562134,1.64923 -15.621596,-1.83247 -10.47566,-3.29843 -19.11348,-10.99483 -16.54053,-22.172845 -7.7189,-22.722579 -4.59459,-24.921553 -0.36757,-27.303751 2.75675,-26.937264 7.35134,-23.272329 9.74053,-21.623107 13.04863,-20.157132 20.76755,-21.07337 32.162099,-16.30896 24.259431,-6.41363 28.096581,-4.62563 19.798617,-2.06939 15.72541589,-0.59038 18.20604311,1.17538 20.047068,2.13227 22.915296,3.61126 25.913475,6.96337 19.848624,8.2461 19.29725,12.82727 13.04865,13.560258 13.04862,19.05765 9.18916,18.874411 6.8,19.057655 4.22703,21.439853 2.02161,17.4084409 -0.73513,22.5393451 -3.67568,25.654528 -9.37297,26.204299 -10.65945,15.026203 -14.88645,12.827257 -15.98916,6.78014 -18.01077,2.38222 -19.481069,-1.28273 -16.540518,-5.1309 -12.681067,-9.52883 -10.659451,-11.911045 -2.389157,-8.246097 1.102673,-5.130903 1.837846,0.549741 5.513506,10.811558 4.962164,5.314137 8.821586,7.513119 12.864867,5.86389 13.048618,3.4817 18.010772,-0.18335 11.39459,-1.28273 13.96758,-5.68065 12.1297,-9.162317 8.45404,-11.3613 8.27025,-18.507913 3.85945,-14.659736 2.75675,-14.109995 0.55135,-18.32467 -0.36755,-20.706878 -2.20542,-15.575964 -4.4108,-14.659736 -6.24865,-16.492193 -8.08645,-17.591685 -11.02703,-16.675457 -15.80539,-15.026216 -14.51887,-9.71208 -19.848651,-10.07857 -29.956707,-8.42934 -29.956707,-4.21468 -24.44320067,-1.09948 -24.81078233,0.91624 -30.324277,4.03143 -21.870234,6.04713 -19.664837,8.2461 -17.826994,10.07857 -15.25404,13.926752 -13.59999,18.874408 -9.55673,17.408431 -8.82161,25.104797 -4.04324,16.85869 -1.47027,27.120518 1.83784,22.905832 4.4108,19.973893 6.98377,19.607406 8.82161,13.743477 12.3135,9.712096 14.15133,6.78011 20.399969,2.19897 11.394583,0.18336 17.09187,-4.94766 13.048628,-9.16233 11.578353,-11.361299 z"
       id="path5068"
       sodipodi:nodetypes="cccccccccccccccccccccccccccccccccccccccccccccccccccccccccccccccccccccccccccccccccccccccccccccccccccccc" />
    <path
       style="fill:#008000;stroke:#000000;stroke-width:0.778587px;stroke-linecap:butt;stroke-linejoin:miter;stroke-opacity:1"
       d="M 37.881616,76.599988 40.087042,74.034537 39.168099,68.537126 36.595132,58.092085 32.735681,45.631303 25.75191,32.07105 23.730295,29.1391 l -2.940549,-0.183233 -1.286484,3.48168 4.227033,9.162335 6.432418,17.225188 2.572968,10.261807 2.940548,5.680644 z"
       id="path5103" />
    <path
       id="path5169"
       style="fill:#008000;stroke:#000000;stroke-width:0.778587px;stroke-linecap:butt;stroke-linejoin:miter;stroke-opacity:1"
       d="m -32.408818,108.18164 -9.537968,0.61953 5.946958,3.89786 2.389426,4.58119 1.973686,8.3652 2.771698,3.80219 4.286963,4.97752 3.310809,2.56768 8.057684,4.66015 6.0642171,8.24522 2.2051464,1.64905 -0.367011,-3.48029 1.4696042,-8.79643 -0.3228409,-6.51265 -2.8006281,-6.86494 -4.0326617,-4.48555 -3.62146,-3.85837 -4.538264,-1.85102 -7.01754,-2.85164 z" />
    <path
       style="fill:#008000;stroke:#000000;stroke-width:0.778587px;stroke-linecap:butt;stroke-linejoin:miter;stroke-opacity:1"
       d="m -10.453434,149.16566 -0.452142,-2.66435 -5.061364,-5.39848 -8.611845,-6.6779 -4.285603,-4.97688 -4.194422,-5.75367 -2.021626,-7.14661 -3.67566,-4.03141 -4.057892,-2.14386 -4.212372,-0.97134 -8.270264,4.58115 -8.637815,4.39793 -9.556748,2.56546 -7.167561,0.91624 -3.67566,1.46596 -0.367572,2.7487 1.654045,4.39792 3.30811,3.84818 4.962154,3.4817 3.3081,3.66491 4.227032,3.4817 6.98376,1.46597 15.070254,2.74868 13.048628,0.36651 h 7.718902 l 4.962164,-0.73298 4.410803,0.91623 3.124319,0.36649 z"
       id="path5204"
       sodipodi:nodetypes="ccccccccccccccccccccccccccccc" />
    <path
       id="path5239"
       style="fill:#008000;stroke:#000000;stroke-width:0.778587px;stroke-linecap:butt;stroke-linejoin:miter;stroke-opacity:1"
       d="m -86.540485,123.51044 -7.166791,0.18365 -8.270904,0.73343 h -11.76139 l -8.2709,-0.73343 -5.1459,0.54968 -1.28685,1.83277 6.98405,4.94716 12.3142,5.13085 7.16679,2.56618 10.843092,3.29809 9.373477,2.19874 5.881457,1.46681 4.043312,0.7319 1.653875,-1.64902 -4.893095,-5.75041 -2.823458,-3.40286 -1.839675,-1.2907 -1.373664,-1.59892 -3.038189,-2.25037 -1.554884,-4.65406 z" />
    <path
       id="path5274"
       style="fill:#008000;stroke:#000000;stroke-width:0.778587px;stroke-linecap:butt;stroke-linejoin:miter;stroke-opacity:1"
       d="m 38.914899,109.3721 -7.529232,0.56637 -5.054525,3.42717 -5.197685,0.77743 -5.978907,2.33236 -5.7170068,4.6647 -4.0021716,12.63661 -0.002,4.43844 0.1143403,3.71111 0.7188021,6.34108 0.7949523,2.66034 2.8843784,-1.76143 4.4118723,-6.04801 3.470681,-1.977 1.548794,-2.30353 4.987534,-4.56749 5.311886,-4.07858 3.5438,-6.92264 1.752875,-4.93651 1.066013,-1.18287 0.187431,-0.78506 3.860571,-4.76492 2.205156,-1.28156 1.599075,-0.94601 z" />
    <path
       style="fill:#008000;stroke:#000000;stroke-width:0.778587px;stroke-linecap:butt;stroke-linejoin:miter;stroke-opacity:1"
       d="m 17.114075,142.20232 -2.021615,2.93193 -1.837806,3.84818 1.837806,1.28273 4.962164,-1.46597 6.064868,-0.18336 7.718902,0.73299 7.351321,-0.36651 12.313516,-0.73298 9.556748,-1.64924 5.329705,-1.83243 6.248648,-3.84821 9.189157,-8.97908 2.572997,-6.41363 -0.551351,-2.7487 -4.962165,-1.09948 -12.313505,-2.01571 -10.843232,-4.94767 -9.005386,-5.31414 -4.410803,0.73298 -4.594583,2.93196 -4.745764,5.26704 -1.753285,4.93632 -3.54386,6.92291 -5.311796,4.0785 -4.986684,4.56655 z"
       id="path5309"
       sodipodi:nodetypes="ccccccccccccccccccccccccccc" />
    <path
       style="fill:#008000;stroke:#000000;stroke-width:0.778587px;stroke-linecap:butt;stroke-linejoin:miter;stroke-opacity:1"
       d="m 72.616716,146.23374 -0.735132,-1.83247 7.351331,-5.86389 6.61622,-6.96337 1.654034,-5.1309 2.389197,-2.74873 6.064838,0.54975 10.291906,0.73298 12.1297,-0.73298 11.21079,-0.18336 1.47028,1.6492 -6.24864,4.21469 -12.31348,5.86389 -16.908107,5.1309 -13.78377,3.84821 z"
       id="path5344" />
    <path
       id="path959"
       style="fill:#808000;stroke:#000000;stroke-width:0.778587px;stroke-linecap:butt;stroke-linejoin:miter;stroke-opacity:1"
       d="m -1.2197277,48.059856 -11.6959043,2.590488 -9.615637,6.479258 -4.938775,6.479247 -5.197675,9.329396 -0.520831,9.069746 0.779732,5.701803 3.898631,6.737392 -0.779722,3.109798 -2.339187,2.072706 -6.496719,1.5549 -6.758649,3.88724 -1.559455,2.85166 2.080286,1.0356 11.954815,-0.77746 6.237818,4.66471 7.01754,2.85165 5.718507,2.33235 6.4982388,5.70029 3.8986312,8.03415 0.7797323,7.2567 -1.5594545,8.03264 v 3.1098 l 2.85849828,2.59201 -0.0990003,-39.77597 -2.759508,0.12603 -7.5383718,-3.6276 -5.458096,-5.7018 1.300554,-7.774505 7.0175502,-4.405038 7.3815214,-1.198064 z" />
    <path
       style="fill:#ffff00;stroke:#000000;stroke-width:0.778587px;stroke-linecap:butt;stroke-linejoin:miter;stroke-opacity:1"
       d="m 1.8997114,112.84684 10.6562606,-4.6647 2.859009,-7.7745 -3.638751,-6.997041 -9.0968064,-3.628091 -11.1761024,1.81404 -7.0175502,4.405537 -1.299534,7.774515 5.458086,5.70128 7.5373718,3.62812 z"
       id="path4578" />
    <path
       id="path1508"
       style="fill:#008000;stroke:#000000;stroke-width:0.778587px;stroke-linecap:butt;stroke-linejoin:miter;stroke-opacity:1"
       d="m 84.810702,-95.118464 -10.13645,0.127548 -15.334134,8.032643 -12.736057,16.84575 -15.594545,30.578686 -5.458096,13.735959 -1.040143,14.771539 1.559454,7.7745066 7.797283,8.5519413 15.335644,9.3293961 14.035091,3.887253 21.571953,-3.623036 V 6.8550082 L 84.030979,7.6324629 81.691793,5.8179135 79.352616,11.000406 72.074655,11.777851 68.176013,12.814956 64.798204,11.777851 60.639152,11.519706 54.920655,9.4455067 52.062157,10.482612 50.763113,7.1131527 47.903105,5.8179135 47.383793,1.6710101 42.96584,4.0033541 36.728022,-0.14203374 34.388835,-4.0292871 l -4.159052,-4.9243481 2.339187,-4.1469028 -1.040143,-4.922843 1.300554,-3.369459 -2.339177,-6.737392 3.37781,-3.109798 v -5.184008 l 2.860008,-2.850139 1.559455,-5.442153 4.417953,-2.592004 v -5.700287 l 3.898631,-3.629109 0.260411,-5.442152 4.417952,-0.777445 1.559455,-5.442153 1.040143,-2.590488 0.258901,-1.81456 4.419463,-2.072693 1.818355,-3.369449 3.63974,-1.037105 1.299034,-5.182493 4.417953,-1.037105 5.718506,-1.5549 1.819866,-3.627597 2.598087,1.037103 4.419463,-2.592002 0.519312,0.517797 z" />
    <path
       id="path4252"
       style="fill:#552200;stroke:#000000;stroke-width:0.778587px;stroke-linecap:butt;stroke-linejoin:miter;stroke-opacity:1"
       d="m -80.231097,48.059856 -11.176592,5.182492 -7.536862,8.551952 -4.678359,8.551941 -4.41946,10.366501 -2.33919,8.810095 -0.77972,4.406554 1.04013,3.887253 4.80781,3.367946 4.80934,0.25965 13.124393,-0.36595 1.430004,-10.609461 -3.118909,0.09113 0.779732,-6.219597 -3.63822,7.774497 -3.11892,1.295249 -6.49822,-2.590499 2.599589,-5.184008 3.37781,-3.887243 -5.197669,2.074199 -2.33919,-1.296755 2.33919,-5.959937 4.159036,-1.037105 7.536862,2.0742 -3.37932,-4.924348 -3.898641,-4.405048 2.339186,-4.406554 5.978918,-3.887253 3.118909,1.037105 2.039176,6.611361 z" />
    <path
       id="path3522"
       style="fill:#aa4400;stroke:#000000;stroke-width:0.778587px;stroke-linecap:butt;stroke-linejoin:miter;stroke-opacity:1"
       d="m -72.174923,54.279453 -6.75713,1.295249 -2.599597,3.887244 0.26041,9.589056 0.0396,0.844259 2.559998,2.783334 4.678363,0.517795 0.779733,2.074209 2.858498,1.554899 -9.617148,1.03559 -0.667032,4.432377 0.147721,3.083975 8.057683,5.182502 6.496729,-2.850148 3.63973,-5.184008 -0.26041,-3.367944 -8.577005,-4.664698 12.994957,-0.777444 1.559455,-7.516352 -4.417953,-5.700298 -7.536862,5.959948 -5.718506,5.442142 5.718506,-9.589046 0.258901,-6.219597 z" />
    <path
       id="path5497"
       style="fill:#aa4400;stroke:#000000;stroke-width:0.778587px;stroke-linecap:butt;stroke-linejoin:miter;stroke-opacity:1"
       d="m -88.028369,59.97974 -5.978918,3.887254 -2.339186,4.406553 3.898641,4.405048 3.37932,4.924348 -7.536862,-2.0742 -4.159036,1.037105 -2.33919,5.959938 2.33919,1.296754 5.197669,-2.074199 -3.37781,3.887243 -2.599589,5.184008 6.49822,2.590499 3.11892,-1.295249 3.63822,-7.774497 -0.779732,6.219597 8.837415,-0.25965 -0.26041,-4.922852 -0.147721,-3.083975 -0.11269,0.751631 -3.898641,-1.5549 -2.598078,2.332344 -2.339187,-1.814549 -6.758649,2.850148 5.978927,-4.664698 1.559455,-2.590498 -1.559455,-3.887243 3.118909,1.813043 2.078766,0.259651 3.37932,-2.850149 0.258901,-3.369449 0.30001,0.326465 -0.0396,-0.844259 -1.559454,-1.296755 -2.078766,-6.737402 z" />
    <path
       style="fill:#00ffff;stroke:#000000;stroke-width:0.778587px;stroke-linecap:butt;stroke-linejoin:miter;stroke-opacity:1"
       d="m -96.345963,84.858638 6.757629,-2.850647 2.339187,1.814041 2.599098,-2.332344 3.898631,1.554909 0.779732,-5.183011 9.616638,-1.036606 -2.859008,-1.55488 -0.779723,-2.073212 -4.678363,-0.518303 -2.858998,-3.109789 -0.259931,3.36896 -3.37881,2.850648 -2.079276,-0.259162 -3.118909,-1.814051 1.559455,3.887263 -1.559455,2.591486 z"
       id="path3283" />
    <path
       style="fill:#aa4400;stroke:#000000;stroke-width:0.778587px;stroke-linecap:butt;stroke-linejoin:miter;stroke-opacity:1"
       d="m 74.674252,48.57765 -5.718506,1.037105 -3.37781,2.850149 4.157532,12.179544 -0.519312,2.591994 -9.617137,-9.589046 -3.898642,3.629099 -2.078766,5.700297 1.040143,5.184008 4.937265,1.29524 9.356727,0.25966 0.779722,1.813043 -8.056173,0.259651 -6.237819,1.814549 -3.118909,3.627603 2.339187,6.997042 5.977398,3.627603 9.356737,-6.219607 3.63822,-2.850138 0.866523,-3.515233 -1.646255,0.923228 -0.519312,-2.850148 -1.819865,-4.405048 2.339177,-2.851654 -2.858488,-5.700287 5.977397,5.700287 0.749272,0.165515 0.551282,-2.238209 2.078776,-7.514847 -0.779732,-7.774496 z"
       id="path5738" />
    <path
       style="fill:#00ffff;stroke:#000000;stroke-width:0.778587px;stroke-linecap:butt;stroke-linejoin:miter;stroke-opacity:1"
       d="m 85.590444,87.709295 -2.599108,-9.329406 7.017551,-0.518303 -7.277441,-2.591486 -3.638751,-2.591515 -0.779722,-2.073183 -2.339177,-0.518303 -5.977907,-5.701304 2.859008,5.701304 -2.339187,2.850657 1.819365,4.405527 0.519822,2.850657 4.158542,-2.332354 3.898641,1.036606 z"
       id="path3318" />
  </g>
</svg>
