<?xml version="1.0" encoding="UTF-8" standalone="no"?>
<!-- Created with Inkscape (http://www.inkscape.org/) -->

<svg
   width="400mm"
   height="319.99997mm"
   viewBox="0 0 400 319.99997"
   version="1.1"
   id="svg5"
   inkscape:version="1.3.2 (091e20e, 2023-11-25)"
   sodipodi:docname="abdomen.svg"
   xmlns:inkscape="http://www.inkscape.org/namespaces/inkscape"
   xmlns:sodipodi="http://sodipodi.sourceforge.net/DTD/sodipodi-0.dtd"
   xmlns="http://www.w3.org/2000/svg"
   xmlns:svg="http://www.w3.org/2000/svg">
  <sodipodi:namedview
     id="namedview7"
     pagecolor="#ffffff"
     bordercolor="#999999"
     borderopacity="1"
     inkscape:pageshadow="0"
     inkscape:pageopacity="0"
     inkscape:pagecheckerboard="0"
     inkscape:document-units="mm"
     showgrid="false"
     inkscape:zoom="1"
     inkscape:cx="329"
     inkscape:cy="477.5"
     inkscape:window-width="3760"
     inkscape:window-height="2102"
     inkscape:window-x="83"
     inkscape:window-y="30"
     inkscape:window-maximized="0"
     inkscape:current-layer="layer1"
     inkscape:snap-global="false"
     inkscape:showpageshadow="0"
     inkscape:deskcolor="#d1d1d1" />
  <defs
     id="defs2" />
  <g
     inkscape:label="Lager 1"
     inkscape:groupmode="layer"
     id="layer1">
    <path
       id="path2418"
       style="fill:#008000;stroke:#000000;stroke-width:0.778587px;stroke-linecap:butt;stroke-linejoin:miter;stroke-opacity:1"
       d="m 295.20763,64.74947 -0.22221,0.0026 v 13.901994 l 0.84232,1.785421 6.06475,1.162204 1.16737,3.257163 5.83065,2.092897 -0.23203,3.023071 5.13096,1.628841 0.46767,3.721737 3.73104,2.557984 -0.46612,3.024618 3.49953,3.48868 -0.9338,3.7207 3.03289,2.79105 1.63349,3.72173 v 4.88394 l -1.63349,0.93121 1.16582,2.79105 -2.33164,2.79104 1.86552,3.48868 -2.56522,3.48919 -0.93327,2.32492 v 3.48868 l -2.56574,1.39578 0.46612,2.79104 -3.03289,4.41989 -1.63246,1.86035 -3.96616,-0.46509 -0.46612,3.0241 -1.86604,2.09342 -2.56677,0.46457 -1.86552,1.16272 -1.86603,1.8619 -2.0991,-1.39578 -2.56729,2.55798 -1.30844,0.23048 v 12.89687 l 8.79894,-3.30729 14.29422,-6.73861 12.47572,-18.65881 4.67827,-15.8073 0.26045,-18.65881 -4.93872,-12.439036 -17.93378,-22.028629 z" />
    <path
       id="path2528"
       style="fill:#008000;stroke:#000000;stroke-width:0.778587px;stroke-linecap:butt;stroke-linejoin:miter;stroke-opacity:1"
       d="m 294.98542,64.752053 -10.17458,0.129709 -10.13684,0.127124 -15.33395,8.032583 -12.73618,16.846 -15.59439,30.578501 -5.45807,13.73611 -1.04024,14.77171 1.55959,7.7742 7.79746,8.55193 15.3355,9.32966 14.0348,3.8871 21.57232,-3.62303 3.11868,-0.524 7.0559,-2.65255 v -12.89689 l -2.65669,0.46767 -1.39991,1.62833 -5.83169,0.92914 -1.16582,1.16375 -0.70021,0.69815 -2.09962,-1.62884 -2.09909,4.6514 -6.5319,0.69815 -3.49902,0.93017 -3.03185,-0.93017 -3.73311,-0.23203 -5.13199,-1.8619 -2.56573,0.93121 -1.16582,-3.02411 -2.56729,-1.16272 -0.46611,-3.72174 -3.96462,2.09342 -5.59863,-3.72071 -2.09961,-3.48867 -3.73311,-4.41989 2.09962,-3.72173 -0.93328,-4.41834 1.16737,-3.02462 -2.09961,-6.04666 3.03186,-2.79104 v -4.65295 l 2.56676,-2.55747 1.3994,-4.88445 3.96513,-2.32647 v -5.11649 l 3.49901,-3.25716 0.23358,-4.88394 3.96565,-0.69763 1.3994,-4.884978 0.93379,-2.324407 0.23203,-1.628841 3.96668,-1.860352 1.63195,-3.024105 3.26646,-0.930693 1.16634,-4.651912 3.96513,-0.930691 5.13199,-1.395264 1.63349,-3.255616 2.33216,0.930693 3.96668,-2.326473 0.46612,0.465087 2.7988,2.791045 7.23211,-0.929659 1.0232,2.168343 z" />
    <path
       id="path1694"
       style="fill:#ff8080;stroke:#000000;stroke-width:0.778587px;stroke-linecap:butt;stroke-linejoin:miter;stroke-opacity:1"
       d="m 201.64021,29.504595 -27.29032,1.55494 -1.79937,2.69131 7.24968,-1.08159 24.59437,-0.23823 25.14368,1.67277 23.08748,4.13257 21.71754,4.67929 3.35742,2.45929 2.80913,4.09845 -19.7311,12.295377 -17.26458,24.181988 -18.08675,33.19901 -21.37492,10.24588 -19.31975,1.2299 -11.09855,-6.96805 -11.92072,5.32836 h -11.50937 l -7.39955,5.32784 -9.04338,2.05 8.63203,16.39435 0.82218,21.31239 -6.98769,6.96754 -10.13995,8.81238 -13.70149,10.45104 -14.387234,11.68094 -11.098549,10.99726 v 5.2e-4 l -6.576859,13.79864 -3.288688,13.11548 -4.521687,7.37784 -7.398515,-3.27938 -12.332065,-15.57425 -6.713802,-17.82888 -4.795573,-21.10776 -1.301728,-20.76669 0.890383,-18.57974 4.452959,-24.66 8.289417,-22.47407 8.838221,-16.73542 v -5.16e-4 l 9.659874,-14.822868 11.646318,-12.364619 6.029089,-4.747514 6.029605,-4.746478 17.058394,-10.52029 5.27306,-1.98334 13.97848,-5.25756 22.95001,-5.46478 10.36991,-1.54668 1.85881,-0.27698 0.42633,-0.62322 0.12919,-1.55495 -2.59933,0.1292 -18.45313,3.49849 -22.35161,4.66483 -23.13296,10.36629 -20.532076,15.289508 -17.933789,20.213754 -12.216826,20.473163 -9.356534,24.87859 -4.157369,23.06371 -0.422196,14.28388 0.681096,13.18628 1.192176,13.48393 1.926497,11.65303 4.549076,17.49247 6.108153,14.12472 11.435479,15.28899 12.215275,7.25693 8.161258,2.52388 3.015319,0.32607 -0.07597,-2.6572 -0.443383,-15.48381 5.198134,-16.32614 10.13633,-15.54892 15.85485,-12.17962 21.57181,-8.55193 7.53701,-10.62467 5.71851,-6.73913 10.13634,-5.44204 9.0966,-0.5178 8.83718,4.92425 6.10868,4.40541 3.24786,1.29501 4.28863,-1.03559 5.84822,-2.33216 h 10.39678 l 13.51442,6.99699 15.3355,5.18263 20.01221,-1.03715 10.91665,1.81436 13.51544,3.10989 11.95484,-0.25993 4.67826,-5.44205 -2.07842,-6.21977 -8.8377,-4.4049 -22.87096,3.62768 -15.07505,-2.84995 -16.89354,-9.32966 -9.87795,-11.14403 -13.77435,-6.73705 -16.3742,-0.25994 -14.81511,3.10989 -13.25501,8.29355 -13.77487,-2.07377 -6.49831,-7.77472 -1.29915,-9.06973 2.5983,-5.70198 11.95637,-6.21926 14.0348,6.73861 15.07557,3.62768 20.01222,-1.29501 17.87126,-5.3237 0.0625,-0.89607 5.45807,-13.73611 15.59491,-30.578501 12.73566,-16.846 15.33445,-8.032583 10.13633,-0.127643 10.39679,-0.131773 17.41289,9.329145 17.93379,22.028629 4.93871,12.439036 -0.26044,18.65881 -4.67827,15.8073 -12.47573,18.65881 -14.29422,6.73861 -4.56096,1.71462 7.18096,9.76375 10.28672,-5.12837 9.94616,-7.93388 10.85309,-20.70158 1.90117,-6.73964 0.53795,-0.9493 2.62206,-9.29556 2.77813,-4.90151 4.18423,-3.03237 4.19871,2.84117 0.99839,2.01487 -0.76481,-4.0411 -10.65568,-26.173598 -19.23293,-26.692945 -18.97404,-13.993972 -27.02987,-13.73457 -36.90783,-8.292 z" />
    <path
       id="path4935"
       style="fill:#552200;stroke:#000000;stroke-width:0.778587px;stroke-linecap:butt;stroke-linejoin:miter;stroke-opacity:1"
       d="m 240.36625,194.58354 -6.75713,0.5178 v 4.40655 l 2.33917,6.47774 3.11891,0.25965 -2.08027,3.36946 2.33917,3.62759 v 5.70181 l 3.89864,3.62759 1.81987,-2.07269 2.5996,-6.73891 -0.86654,-9.49036 -0.69292,0.42061 0.51931,3.88726 -3.11891,5.18249 -1.55945,-3.1098 0.51931,-3.62759 0.52083,-1.5549 -3.37933,-2.33236 -1.04013,-4.40504 3.63973,-0.5193 1.81836,4.92434 2.61787,-0.58004 -0.27869,-3.04755 -0.51931,-3.88725 z" />
    <path
       id="path4612"
       style="fill:#552200;stroke:#000000;stroke-width:0.778587px;stroke-linecap:butt;stroke-linejoin:miter;stroke-opacity:1"
       d="m 272.85438,201.32093 -7.53686,1.29676 -6.49823,3.88725 -5.19768,5.70029 -4.67836,5.96145 -3.63823,11.4021 1.03863,11.66175 4.15905,8.03415 9.35673,8.55195 10.91618,5.1825 8.57701,2.592 6.49823,0.25815 0.0762,-17.77658 -1.63561,5.59703 -9.87756,3.36945 -3.63822,-3.1098 2.8585,-11.14395 -3.63822,2.85014 -9.35674,6.21961 -5.97739,-3.62761 -2.33919,-6.99704 3.11891,-3.6276 6.23782,-1.81455 8.05617,-0.25965 -0.77972,-1.81304 -9.35673,-0.25966 -4.93726,-1.29524 -1.04015,-5.18401 2.07877,-5.7003 3.89864,-3.6291 9.61714,9.58905 0.51931,-2.592 -4.15753,-12.17954 3.37781,-2.85015 5.7185,-1.0371 3.89864,4.1469 0.77973,7.7745 -2.07878,7.51484 2.33919,1.5549 1.81835,-6.99705 4.6144,-1.84037 0.064,-14.74573 z" />
    <path
       id="path2866"
       style="fill:#1a2020;stroke:#000000;stroke-width:0.778587px;stroke-linecap:butt;stroke-linejoin:miter;stroke-opacity:1"
       d="m 321.19312,109.13487 -75.05227,3.40135 v 1.86087 l -3.96513,2.32647 -1.3994,4.88445 -2.56676,2.55747 v 4.65295 l -3.03186,2.79104 2.09961,6.04666 -1.16737,3.02462 0.93328,4.41834 -2.09962,3.72173 3.73311,4.41989 2.09961,3.48867 5.59863,3.72071 3.96462,-2.09342 0.46611,3.72174 2.56729,1.16272 1.16582,3.02411 2.56573,-0.93121 5.13199,1.8619 3.73311,0.23203 3.03185,0.93017 3.49902,-0.93017 6.5319,-0.69815 2.09909,-4.6514 2.09962,1.62884 0.70021,-0.69815 1.16582,-1.16375 5.83169,-0.92914 1.39991,-1.62833 3.96513,-0.69814 2.56729,-2.55799 2.0991,1.39578 1.86603,-1.8619 1.86552,-1.16272 2.56677,-0.46457 1.86604,-2.09341 0.46612,-3.02411 3.96616,0.46509 1.63246,-1.86035 3.03289,-4.41989 -0.46612,-2.79104 2.56574,-1.39578 v -3.48868 l 0.93327,-2.32492 2.56522,-3.48919 -1.86552,-3.48868 2.33164,-2.79104 -1.16582,-2.79105 1.63349,-0.93121 v -4.88393 l -1.63349,-3.72174 z" />
    <path
       id="path2226"
       style="fill:#ffe680;stroke:#000000;stroke-width:0.778587px;stroke-linecap:butt;stroke-linejoin:miter;stroke-opacity:1"
       d="m 158.49487,131.35045 -5.59821,2.9124 -6.35812,3.3072 -2.59808,5.7018 1.29904,9.06975 6.49823,7.7745 0.96096,0.14424 12.81372,1.92996 13.25537,-8.2938 14.81482,-3.10981 16.37428,0.25966 10.06031,4.92132 0.25128,-1.96185 -1.21528,-0.7562 -1.29904,-1.29675 -0.38986,-2.0727 1.19395,-0.85033 -1.08887,-1.20717 -0.6244,0.37353 -1.55946,0.12907 -1.47416,-1.96032 -45.0917,5.15971 0.0411,0.0395 0.52083,3.24038 -2.08029,2.97922 -3.63822,0.77746 -3.89863,-0.12908 -4.15905,-0.5178 -2.77778,-1.58374 -1.76962,-1.00825 -0.65029,-4.14691 1.81988,-2.72107 0.66246,-0.31888 0.0228,-2.95341 -2.24475,0.68179 h -3.11891 l -1.69043,-2.46292 0.91069,-2.5905 3.63822,-1.68548 h 2.5524 0.3061 l 0.20406,0.3052 4.92204,0.14881 0.20255,-1.36054 3.89863,-0.64837 3.50878,1.81455 0.25432,0.42972 4.66922,0.14122 10.8035,0.32343 -9.09936,-2.18962 z" />
    <path
       id="path6051"
       style="fill:#ffe680;stroke:#000000;stroke-width:0.778587px;stroke-linecap:butt;stroke-linejoin:miter;stroke-opacity:1"
       d="m 168.04348,3.5100655 -14.15084,0.54968 -19.84954,3.66555 -17.64285,5.6805395 -17.642848,7.32959 -18.19416,10.26174 -18.0114,12.82792 -15.98897,15.57481 -14.51939,19.607828 -9.37195,17.775048 -7.3526,18.508479 -5.6971798,24.73718 -4.0433,21.62281 -2.02091,24.00681 0.36702,21.80504 2.38944,18.87442 4.0433098,17.4091 9.18922,22.72219 10.10904,14.47697 10.84308,11.36109 13.78382,8.97864 16.72302,7.51332 18.19567,4.58118 19.480998,3.11588 13.04825,0.18221 7.90236,-0.18221 h 21.87044 l 0.0609,-7.92179 -11.82232,-2.15773 -6.98404,-1.46531 -4.22759,-3.48182 -3.30775,-3.66555 -3.12195,-2.18962 2.82346,3.40286 4.89309,5.7504 -1.65386,1.64904 -4.04332,-0.7319 -5.88146,-1.46682 -9.37348,-2.19873 -10.843088,-3.29809 -7.16679,-2.5662 -12.31421,-5.13085 -6.98404,-4.94714 1.28685,-1.83278 5.14591,-0.54968 8.2709,0.73342 h 11.76138 l 8.270908,-0.73342 7.16679,-0.18373 0.83455,2.30958 1.55488,4.65406 3.03515,2.24884 -1.93256,-2.24884 -1.65388,-4.39745 0.36854,-2.7484 3.67477,-1.46683 7.16832,-0.91563 9.55623,-2.56619 8.63792,-4.39745 7.15461,-3.96318 0.10508,-13.59323 -4.68751,5.27969 -10.65881,7.87927 -18.0114,6.96363 -18.56116,1.64906 -15.621968,-1.83278 -10.47606,-3.29809 -19.11246,-10.99515 -16.5418,-22.17251 -7.71808,-22.72371 -4.5946,-24.9209 -0.36703,-27.30337 2.75646,-26.93743 7.35107,-23.27187 9.74049,-21.624341 13.04826,-20.155989 20.76786,-21.074665 32.162228,-16.30822 24.25988,-6.41396 18.0251,-2.96706 10.07098,-1.65816 19.79928,-2.06965 15.72401,-0.59069 18.20632,1.17529 20.04753,2.13343 22.91515,3.61089 25.91375,6.96364 19.84803,8.24522 19.29824,12.82792 13.04826,13.559824 13.04825,19.058153 9.18922,18.874408 6.79977,19.05663 3.66715,18.59503 0.56042,2.84559 2.0209,17.4091 -0.73404,22.53845 -3.26663,22.79356 -0.40966,2.86077 -9.37348,26.20401 -10.65882,15.02665 -14.88639,12.82792 -15.98899,6.77991 -18.01139,2.38247 -16.38342,-1.07963 0.91678,6.04042 0.76451,0.17007 0.55129,2.7484 -0.63353,1.57768 0.48886,3.21002 1.24725,-3.87206 2.38945,-2.74842 6.0642,0.54968 10.2918,0.73342 12.12993,-0.73342 11.21164,-0.18373 1.46959,1.65057 -6.24848,4.21371 -12.3142,5.86428 -16.9073,5.13087 -7.40893,2.06814 2.07876,13.6904 14.51938,-1.4653 19.481,-4.5812 18.37842,-6.77989 9.00494,-5.86429 15.07067,-11.72704 9.37348,-11.9123 7.90236,-15.20886 6.0642,-15.02665 4.04332,-16.85791 1.83815,-15.3926 0.73556,-20.89092 -0.18427,-16.67569 -1.47114,-17.4076 -2.20515,-10.26172 -2.20518,-10.26173 -6.06421,-21.44061 L 377.7414,97.14873 368.00091,79.191455 356.05373,62.6995 342.26992,48.588485 l -16.17173,-13.74355 -21.87044,-13.19388 -20.58359,-8.61268 -22.23898,-6.4124395 -20.76633,-2.74992 -23.34157,-0.36595 -26.83207,0.36595 z" />
    <path
       id="path6049"
       style="fill:#ffe680;stroke:#000000;stroke-width:0.778587px;stroke-linecap:butt;stroke-linejoin:miter;stroke-opacity:1"
       d="m 199.47032,26.415895 -24.80986,0.9157 -20.96719,2.78795 -9.35705,1.24333 -21.8705,6.04821 -19.66495,8.24549 -17.827336,10.07949 -15.253332,13.925765 -13.601237,18.874301 -9.556006,17.409269 -8.822201,25.10441 -4.041613,16.85944 -1.471229,27.11979 1.838132,22.90558 4.410064,19.97398 6.984071,19.60758 8.822201,13.74387 12.312943,9.71207 14.150557,6.77995 20.400826,2.19831 11.39465,0.18397 17.09146,-4.94698 13.0483,-9.16276 9.35499,-9.18031 0.16484,-21.45451 -2.02261,12.99042 -7.53856,10.36526 -16.89354,9.58908 -13.12582,2.74351 -13.124259,0.36638 -4.809527,-0.25993 -4.807458,-3.36776 -1.040246,-3.88762 0.779798,-4.40644 2.338875,-8.8098 4.419369,-10.36681 4.678788,-8.55194 7.53648,-8.55193 11.17658,-5.18263 20.01274,-1.81435 7.16545,2.58278 3.49023,4.4142 1.78955,8.69353 0.16898,-22.16506 -1.69808,-0.39325 -3.63802,-4.40542 -0.65061,-5.44204 4.28863,-7.9034 1.85053,-1.73426 0.0305,-4.04058 -1.10123,0.59066 -5.71851,6.73913 -7.53701,10.62467 -21.57181,8.55193 -15.85485,12.17962 -10.136325,15.54892 -5.198134,16.32614 0.443383,15.48381 0.07597,2.6572 -3.015319,-0.32607 -8.161258,-2.52388 -12.21529,-7.25693 -11.435479,-15.28899 -6.108153,-14.12472 -4.549076,-17.49247 -1.926497,-11.65303 -1.192176,-13.48393 -0.681096,-13.18628 0.422196,-14.28388 4.157369,-23.06371 9.356534,-24.87859 12.216826,-20.473163 17.933789,-20.213754 20.532076,-15.289508 23.13296,-10.36629 22.35161,-4.66483 6.85901,-1.29966 11.59361,-2.19883 2.59984,-0.1292 -0.12919,1.55495 -0.42633,0.62322 3.77858,-0.56328 1.47588,-0.22014 1.79937,-2.69131 27.29032,-1.55494 39.5056,3.62923 36.90783,8.292 27.02987,13.73457 18.97404,13.993972 19.23293,26.692945 10.65568,26.173598 1.18184,4.88239 1.84588,3.72432 5.47047,23.80165 0.49713,23.80164 -0.99426,23.80165 -5.47098,20.82612 -9.44904,18.3472 -11.43806,7.93388 -11.43858,-0.99167 -7.95713,-8.42997 -3.97857,-12.89224 -4.97283,-15.86776 -0.51883,-1.17564 -4.6886,1.01389 -9.63765,-0.10904 7.22849,5.40536 5.45807,5.96139 4.67827,9.32914 1.29914,14.5123 -0.2589,10.36629 -6.23786,5.44205 -18.71307,4.14548 -3.33261,-0.13229 0.48317,3.17965 3.95015,1.0542 18.0113,-0.18397 11.39466,-1.28157 13.96658,-5.68079 12.13002,-9.16224 8.45323,-11.36261 8.27132,-18.50688 3.23443,-12.29176 0.62425,-2.36885 2.75643,-14.10973 0.55293,-18.32446 -0.36845,-20.70727 -1.44384,-10.19472 -0.76119,-5.38004 -4.41059,-14.6606 -6.2482,-16.49202 -8.08684,-17.591687 -11.02723,-16.675468 -15.80627,-15.02647 -14.51798,-9.71207 -19.84943,-10.07794 -29.9558,-8.42894 -29.95683,-4.21525 z" />
    <path
       id="path5525"
       style="fill:#ffe680;stroke:#000000;stroke-width:0.778587px;stroke-linecap:butt;stroke-linejoin:miter;stroke-opacity:1"
       d="m 153.37029,139.43018 0.83613,1.24954 0.38964,2.20348 -1.03973,2.07274 -0.74363,0.22635 -0.0227,2.9533 3.10524,-1.49448 9.22735,1.42472 3.59719,3.4587 45.09182,-5.15937 -0.0853,-0.11266 0.51934,-1.81436 1.68879,-0.77773 1.81953,0.90693 0.39015,2.8515 -0.67489,0.40359 1.08882,1.20717 0.62632,-0.44442 2.07843,0.64647 1.29914,1.55494 0.5209,2.33268 -0.26045,1.42575 h -1.68878 l -0.86507,-0.53898 -0.25115,1.96163 3.71399,1.81591 9.87795,11.14403 16.89354,9.32966 15.07505,2.84995 22.87096,-3.62768 8.8377,4.4049 2.07842,6.21977 -4.67826,5.44205 -11.95483,0.25993 -13.51597,-3.10989 -10.91613,-1.81436 -20.01221,1.03715 -15.3355,-5.18263 -13.51442,-6.99699 h -3.55741 l -0.017,1.97973 -0.015,1.77663 h 2.5492 l 4.15892,1.94355 2.33939,2.20348 1.5596,2.26705 1.29863,3.56361 0.26045,4.14703 -0.5209,3.36827 -1.7539,2.07378 -2.53421,2.33267 -3.11919,1.6185 -4.43901,0.75758 -0.0258,3.14038 6.96857,0.86868 h 0.003 l 14.25133,0.16071 -3.11454,-8.34057 -4.2261,-9.16275 1.28571,-3.48144 2.94039,0.1819 2.02262,2.93212 6.98252,13.56145 1.36167,4.39301 0.20515,0.002 2.9714,0.0331 -0.28629,-0.44494 2.08049,-3.3693 -3.11918,-0.25941 -2.3394,-6.47816 v -4.40645 l 6.75721,-0.5178 5.45807,1.03715 0.51935,3.8871 3.63957,-4.66432 4.15788,1.29501 5.19917,-2.59208 4.41782,0.77773 3.37964,1.03714 -0.26045,2.84996 -5.71852,2.59209 -4.15788,3.3693 -4.93872,0.77721 -2.59933,3.10989 0.17932,2.14096 5.74745,0.0656 3.42977,-3.76153 6.49831,-3.88711 7.53701,-1.29656 13.255,4.66432 6.28644,4.70152 9.63869,0.10904 4.6886,-1.01441 -4.95163,-11.2205 -0.1695,-9.91723 3.15329,-7.93388 1.64848,-0.82217 -7.18044,-9.76375 -11.29388,4.24574 -24.691,4.14703 -14.0348,-3.8871 -15.33602,-9.32966 -7.79694,-8.55194 -1.55959,-7.7742 0.5209,-7.39076 -3.45871,-0.10284 -0.44028,1.14309 -1.94924,1.03714 -1.94923,-1.29501 0.31833,-1.00666 -16.67134,-0.50126 h -0.006 -0.006 l -13.26431,0.85938 -5.97276,-1.4366 -0.003,-0.002 -10.80348,-0.32298 -2.96364,-0.0899 -1.70532,-0.0517 1.43454,2.42052 -0.39016,2.4629 -3.24838,0.64699 -2.98948,0.13022 -1.94924,-1.03662 -1.0387,-2.72128 0.31678,-2.13786 -3.60133,-0.10955 z" />
    <path
       style="fill:#ffe680;stroke:#000000;stroke-width:0.778587px;stroke-linecap:butt;stroke-linejoin:miter;stroke-opacity:1"
       d="m 225.48898,135.098 -17.87129,5.32371 -6.74189,0.43579 16.67733,0.50109 0.46143,-1.45619 2.20823,-0.5178 1.55945,1.5549 -0.20864,0.54057 3.45851,0.10326 z"
       id="path5266" />
    <path
       id="path3886"
       style="fill:#ffe680;stroke:#000000;stroke-width:0.778587px;stroke-linecap:butt;stroke-linejoin:miter;stroke-opacity:1"
       d="m 170.71009,170.4826 -9.09631,0.51779 -9.0354,4.85146 -0.0304,4.04062 4.64789,-4.35645 5.84796,-2.85015 11.30605,1.29525 3.89864,3.88724 2.72904,6.99705 -1.69041,7.38578 -8.57701,6.34867 -12.73453,2.46293 -5.57993,-1.2922 -0.0716,9.32484 15.79709,0.17916 7.64194,-9.32332 9.1892,-7.33111 4.04333,-0.91562 0.73403,2.19871 -10.87658,15.49434 13.21118,0.15033 6.71602,-1.4881 6.84088,0.85187 0.0265,-3.14018 -0.49801,0.085 -2.59957,-0.19438 -2.59961,-0.19437 -2.14425,-0.84275 -2.14426,-0.84122 -2.79299,-2.46294 -1.49551,-2.97922 -1.03861,-2.78636 v -4.08161 l 1.88385,-3.23887 2.14422,-2.98072 3.05345,-2.39765 3.57424,-1.36054 h 3.7037 1.15438 l 0.0318,-3.75666 h -6.83937 l -5.84794,2.33234 -4.2885,1.0356 -3.24836,-1.29525 -6.10837,-4.40504 z" />
    <path
       style="fill:#ffe680;stroke:#000000;stroke-width:0.778587px;stroke-linecap:butt;stroke-linejoin:miter;stroke-opacity:1"
       d="m 185.38481,277.54898 3.62146,3.85839 4.03265,4.48554 2.80063,6.86494 0.32285,6.51265 -1.4696,8.79642 0.36701,3.4803 -2.20515,-1.64904 -6.06422,-8.24522 -8.05768,-4.66014 5.2997,4.11046 5.06214,5.39811 0.4523,2.66489 -1.47113,0.91564 -3.12348,-0.36596 -4.41185,-0.91714 -4.96162,0.73342 h -7.71808 l -13.04978,-0.36596 -3.24683,-0.59219 -0.0609,7.92179 11.02736,-0.91715 h 7.71808 l 8.82219,-1.64904 9.74051,0.36746 9.55622,1.64905 9.00646,-0.36747 8.45366,-1.28158 7.7196,-0.18374 13.96656,2.015 10.66033,0.73341 22.42021,0.36595 19.66528,-0.54968 -2.07877,-13.6904 -6.37488,1.77963 -9.18921,1.46682 -0.73556,-1.83277 7.35106,-5.86428 6.61702,-6.96364 0.40662,-1.2588 -0.48885,-3.21002 -1.94019,4.83629 -9.1892,8.97863 -6.24848,3.84777 -5.32865,1.83277 -9.55775,1.64905 -12.31269,0.73341 -7.35106,0.36595 -7.7196,-0.73341 -6.06421,0.18373 -4.96315,1.46684 -1.83814,-1.28311 1.83814,-3.84776 2.02242,-2.93215 0.71423,-1.06139 -3.4707,1.97702 -4.41185,6.04801 -2.88438,1.76142 -0.79496,-2.66035 -0.71881,-6.34107 -0.11422,-3.7111 0.002,-4.43846 -0.67617,2.13495 -0.26042,4.6647 0.77973,6.99705 -1.29904,3.88725 -4.93883,1.29525 -2.8585,-2.59201 v -3.1098 l 1.55945,-8.03264 -0.77973,-7.2567 -3.89863,-8.03415 -6.49824,-5.70029 z"
       id="path3523" />
    <path
       style="fill:#ffe680;stroke:#000000;stroke-width:0.778587px;stroke-linecap:butt;stroke-linejoin:miter;stroke-opacity:1"
       d="m 212.58997,209.78026 0.74623,0.0926 9.35672,6.47924 6.75714,7.7745 4.15906,9.3294 -0.77974,12.4392 -3.11891,5.95995 -0.26041,3.6291 2.8585,3.1098 3.11891,1.0356 2.33918,0.77744 8.83741,4.6647 v 3.1098 l -7.27796,0.25966 -6.49672,0.5178 -1.44371,0.9794 7.52924,-0.56638 h 4.97686 l -1.59905,0.94599 -2.20517,1.28158 -3.86056,4.76492 -0.18732,0.78504 3.67934,-4.08313 4.59461,-2.93214 4.41185,-0.73342 9.00494,5.3146 10.84309,4.94713 12.3142,2.01651 4.19712,0.9293 -0.91678,-6.04042 -3.09759,-0.20347 -16.54027,-5.13087 -12.68123,-9.52831 -10.65881,-11.91231 -2.38944,-8.24522 1.10258,-5.13086 1.83815,0.54968 5.51292,10.81142 4.96314,5.31459 8.82067,7.51333 12.8655,5.86276 9.09784,2.42802 -0.48276,-3.17966 -3.16612,-0.12603 -8.57701,-2.592 -10.91618,-5.1825 -9.35673,-8.55195 -4.15905,-8.03415 -1.03863,-11.66175 3.63823,-11.4021 4.67836,-5.96145 1.7681,-1.93906 -5.74746,-0.0653 0.0807,0.96877 -2.07876,2.59049 -2.5996,6.73892 -1.81987,2.07269 -3.89864,-3.62759 v -5.70181 l -2.05135,-3.18268 -3.17831,-0.0349 2.49909,8.06756 2.57219,10.44547 0.91983,5.4968 -2.20668,2.56468 -2.20517,-1.83126 -2.94074,-5.68054 -2.57218,-10.26174 -3.31841,-8.88449 z"
       id="path3521" />
    <path
       style="fill:#ffe680;stroke:#000000;stroke-width:0.778587px;stroke-linecap:butt;stroke-linejoin:miter;stroke-opacity:1"
       d="m 152.32406,209.09543 -0.0975,12.84007 0.29087,1.41368 -0.31676,2.04081 -0.16447,21.45427 2.22344,-2.18202 6.06573,-14.10951 6.24848,-5.13085 2.20516,1.28309 -1.28685,3.48182 -3.67478,7.69554 -6.61701,12.64419 -5.2388,5.90073 -0.10355,13.5917 1.11628,-0.61801 4.21237,0.97182 4.05701,2.14405 3.67629,4.0315 2.02089,7.14586 1.4224,1.95122 -1.97368,-8.36518 -2.38943,-4.58118 -5.94543,-3.89788 h -0.002 l -2.41685,0.15793 -2.08029,-1.0356 1.55946,-2.85166 6.75865,-3.88724 6.49672,-1.5549 2.33918,-2.07271 0.77973,-3.1098 -3.89863,-6.73739 -0.77974,-5.7018 0.52083,-9.06975 5.19768,-9.3294 4.93877,-6.47924 9.61564,-6.47926 4.98294,-1.10392 -13.21424,-0.15033 -0.70054,0.99915 -7.71961,10.26172 -9.55622,8.06301 -0.73558,-6.41396 3.30776,-7.32959 4.67227,-5.7018 z"
       id="path1733" />
    <path
       id="path5569"
       style="fill:#008000;stroke:#000000;stroke-width:0.791426px;stroke-linecap:butt;stroke-linejoin:miter;stroke-opacity:1"
       d="m 167.43279,0.40177547 -14.37165,0.5588 -20.15565,3.72932003 -17.91698,5.7792495 -17.916978,7.45866 -18.47588,10.44091 -18.29009,13.05114 -16.23721,15.84812 -14.74477,19.951003 -9.51816,18.084822 -7.46528,18.83191 -5.7855198,25.17145 -4.10575,22.00092 -2.05287996,24.42438 0.37311,22.18769 2.42598996,19.20545 4.10575,17.71278 9.3323698,23.11852 10.26438,14.73055 11.0106,11.56002 13.99854,9.13502 16.98345,7.64543 18.47587,4.66015 19.784068,3.17053 13.2508,0.18688 8.02571,-0.18688 h 22.20853 l 11.19792,-0.93232 h 7.83991 l 8.95773,-1.67789 9.89127,0.372 9.70546,1.67944 9.14505,-0.37355 0.0746,-2.35815 -0.0731,0.0118 -9.00645,0.36748 -9.55624,-1.64906 -9.7405,-0.36744 -8.82219,1.64902 h -7.71809 l -11.02735,0.91717 h -21.87044 l -7.90236,0.18218 -13.04825,-0.18218 -19.480998,-3.11587 -18.19566,-4.58119 -16.72303,-7.51333 -13.78381,-8.97864 -10.84309,-11.36109 -10.10904,-14.47697 -9.18922,-22.72219 -4.0433098,-17.40909 -2.38944,-18.87444 -0.36701,-21.80504 2.0209,-24.0068 4.0433,-21.62282 5.6971798,-24.73717 7.3526,-18.508482 9.37195,-17.775049 14.51939,-19.607834 15.98897,-15.57481 18.0114,-12.82791 18.19416,-10.26174 17.642848,-7.32959 17.64285,-5.6805395 19.84954,-3.66556 14.15084,-0.54968 22.42173,0.36594 26.83208,-0.36594 0.0533,0.002 0.099,-3.10980003 -27.24781,0.37202 z"
       sodipodi:nodetypes="ccccccccccccccccccccccccccccccccccccccccccccccccccccccccccccccccccccccccc" />
    <path
       id="path6205"
       style="fill:#008000;stroke:#000000;stroke-width:0.791426px;stroke-linecap:butt;stroke-linejoin:miter;stroke-opacity:1"
       d="m 217.44956,0.40177547 -0.099,3.10980003 23.28827,0.36444 20.76634,2.74992 22.23898,6.4124395 20.5836,8.61268 21.87044,13.19388 16.17172,13.74355 13.7838,14.111016 11.94721,16.491954 9.74048,17.957275 6.79979,17.77506 6.0642,21.4406 4.41033,20.52346 1.47115,17.40759 0.18419,16.67569 -0.73554,20.89093 -1.83817,15.39259 -4.04332,16.85792 -6.06419,15.02665 -7.90235,15.20886 -9.3735,11.9123 -15.07067,11.72704 -9.00492,5.86427 -18.37844,6.77993 -19.48098,4.58117 -14.5194,1.46531 -19.66525,0.54969 -22.42022,-0.36595 -10.66034,-0.73342 -13.96654,-2.01501 -7.71962,0.18365 -8.38056,1.27098 -0.0746,2.35815 8.58461,-1.30589 7.83841,-0.18512 14.18433,2.04991 10.8248,0.74556 22.76898,0.37353 19.96985,-0.55876 14.74477,-1.49265 19.78254,-4.66014 18.66318,-6.89988 9.14505,-5.96603 15.30519,-11.93202 9.51817,-12.12031 8.02418,-15.47461 6.15864,-15.28935 4.10726,-17.15398 1.86558,-15.66138 0.74621,-21.25536 -0.18566,-16.96724 -1.49399,-17.71279 -4.47885,-20.88182 -6.15865,-21.81415 L 380.3807,95.677376 370.48941,77.405781 358.35799,60.625318 344.36097,46.268315 327.93795,32.284845 305.7279,18.860165 284.82449,10.097145 262.24286,3.5708255 241.15215,0.77382547 Z" />
    <path
       id="path3691"
       style="fill:#552200;stroke:#000000;stroke-width:0.778587px;stroke-linecap:butt;stroke-linejoin:miter;stroke-opacity:1"
       d="m 139.7814,206.24528 -20.01249,1.81456 -2.63919,19.56835 0.0396,0.12604 1.55945,1.29676 -0.26041,-9.58906 2.5996,-3.88724 6.75713,-1.29525 3.89864,1.81304 -0.2589,6.2196 -5.71851,9.58905 5.71851,-5.44215 7.53686,-5.95994 4.41795,5.70029 -1.55945,7.51636 -12.99496,0.77744 8.57701,4.6647 0.26041,3.36794 -3.63973,5.18401 -6.49673,2.85015 -8.05768,-5.1825 0.26041,4.92285 -5.71851,0.16853 -1.43,10.60947 13.12591,-2.74386 16.89359,-9.58904 7.53837,-10.365 2.33919,-15.0312 -2.08029,-10.10685 -3.4905,-4.41415 z" />
    <path
       id="path1307"
       style="fill:#800000;stroke:#000000;stroke-width:0.820917px;stroke-linecap:butt;stroke-linejoin:miter;stroke-opacity:1"
       d="m 204.39457,32.431025 -24.59437,0.23823 -8.72556,1.30173 -5.63739,0.84026 -10.36991,1.54668 -22.95001,5.46478 -13.97848,5.25756 -5.27306,1.98334 -17.058394,10.52029 -6.029605,4.746478 -6.029089,4.747514 -11.646318,12.364619 -9.659874,14.822868 v 5.16e-4 l -8.838221,16.73542 -8.289417,22.47407 -4.452959,24.66 -0.890383,18.57974 1.301728,20.76669 4.795573,21.10776 6.713802,17.82888 12.332065,15.57425 7.398515,3.27938 4.521687,-7.37784 3.288688,-13.11548 6.576859,-13.79864 v -5.2e-4 l 11.098549,-10.99726 14.387234,-11.68094 13.70149,-10.45104 10.13995,-8.81238 6.98769,-6.96754 -0.82218,-21.31239 -8.63203,-16.39435 9.04338,-2.05 7.39955,-5.32784 h 11.50937 l 11.92072,-5.32836 11.09855,6.96805 19.31975,-1.2299 21.37492,-10.24588 18.08675,-33.19901 17.26458,-24.181988 19.7311,-12.295377 -2.80913,-4.09845 -3.35742,-2.45929 -21.71754,-4.67929 -23.08748,-4.13257 z" />
    <path
       style="fill:#ff0000;fill-opacity:1;stroke:#000000;stroke-width:0.993187px;stroke-linecap:butt;stroke-linejoin:miter;stroke-opacity:1"
       d="m 301.60231,188.64403 3.15296,-7.93386 11.93566,-5.9504 9.94638,-7.93386 11.43834,-21.81814 4.47586,-15.86772 2.77794,-4.90195 4.18456,-3.03192 4.19875,2.8407 3.26102,6.58077 5.47051,23.80159 0.49731,23.80159 -0.99461,23.8016 -5.47053,20.82639 -9.44906,18.34707 -11.43835,7.93388 -11.43835,-0.99177 -7.95708,-8.42974 -3.97858,-12.89251 -4.97317,-15.86772 -5.47051,-12.39667 z"
       id="path1422"
       sodipodi:nodetypes="cccccccccccccccccccccc" />
    <path
       style="fill:#ffeeee;stroke:#000000;stroke-width:0.778587px;stroke-linecap:butt;stroke-linejoin:miter;stroke-opacity:1"
       d="m 159.01469,144.43802 -1.03964,-2.72108 0.51982,-3.49852 3.89863,-0.64787 3.50878,1.81405 1.68941,2.85065 -0.38987,2.46192 -3.24886,0.64788 -2.98895,0.12959 z"
       id="path2312" />
    <path
       style="fill:#ffeeee;stroke:#000000;stroke-width:0.778587px;stroke-linecap:butt;stroke-linejoin:miter;stroke-opacity:1"
       d="m 150.56764,145.86335 2.98895,-0.90703 1.03964,-2.0732 -0.38986,-2.20276 -1.03964,-1.55491 h -2.85901 l -3.63873,1.68447 -0.90967,2.5915 1.68941,2.46193 z"
       id="path2540" />
    <path
       style="fill:#ffeeee;stroke:#000000;stroke-width:0.778587px;stroke-linecap:butt;stroke-linejoin:miter;stroke-opacity:1"
       d="m 159.66445,158.43212 -4.15854,-0.5183 -4.54841,-2.59149 -0.64978,-4.14641 1.81937,-2.72107 3.76869,-1.81406 9.22677,1.42533 3.63873,3.49853 0.51981,3.23937 -2.07927,2.98023 -3.63873,0.77745 z"
       id="path2608" />
    <path
       style="fill:#ffeeee;stroke:#000000;stroke-width:0.778587px;stroke-linecap:butt;stroke-linejoin:miter;stroke-opacity:1"
       d="m 218.01406,139.9029 2.20922,-0.5183 1.55946,1.5549 -0.64978,1.68448 -1.94933,1.0366 -1.94929,-1.29576 z"
       id="path2643" />
    <path
       style="fill:#ffeeee;stroke:#000000;stroke-width:0.778587px;stroke-linecap:butt;stroke-linejoin:miter;stroke-opacity:1"
       d="m 218.14402,147.41825 -0.38986,-2.85065 -1.81936,-0.90702 -1.68942,0.77744 -0.51982,1.81405 1.55946,2.0732 1.55944,-0.12958 z"
       id="path2711" />
    <path
       style="fill:#ffeeee;stroke:#000000;stroke-width:0.778587px;stroke-linecap:butt;stroke-linejoin:miter;stroke-opacity:1"
       d="m 217.36428,149.88017 1.81935,-1.29575 2.07929,0.64788 1.29954,1.5549 0.51983,2.33235 -0.25994,1.42532 h -1.68942 l -2.07926,-1.29575 -1.29954,-1.29574 z"
       id="path2746" />
    <path
       style="fill:#ffeeee;stroke:#000000;stroke-width:0.778587px;stroke-linecap:butt;stroke-linejoin:miter;stroke-opacity:1"
       d="m 163.04327,172.68537 11.30605,1.29575 3.89864,3.88724 2.72904,6.99705 -1.6894,7.38578 -8.57701,6.34918 -12.73554,2.46191 -7.27745,-1.68447 -3.63874,-4.40555 -0.64977,-5.44215 4.28851,-7.90407 6.49771,-6.09002 z"
       id="path2781" />
    <path
       style="fill:#ffeeee;stroke:#000000;stroke-width:0.778587px;stroke-linecap:butt;stroke-linejoin:miter;stroke-opacity:1"
       d="m 195.66188,203.78336 -2.79402,-2.46193 -1.49449,-2.98023 -1.03963,-2.78585 -1e-5,-4.08161 1.88436,-3.23938 2.14425,-2.98022 3.05392,-2.39714 3.57374,-1.36054 h 3.70373 3.7037 l 4.15854,1.94363 2.33919,2.20278 1.55947,2.26756 1.29953,3.56331 0.25993,4.1464 -0.51982,3.36895 -1.75439,2.0732 -2.53411,2.33234 -3.11891,1.61969 -4.93829,0.84224 -2.59907,-0.19437 -2.59908,-0.19438 -2.14424,-0.84224 z"
       id="path2816"
       sodipodi:nodetypes="ccccccccccccccccccccccccc" />
    <path
       id="path4197"
       style="fill:#552200;stroke:#000000;stroke-width:0.778587px;stroke-linecap:butt;stroke-linejoin:miter;stroke-opacity:1"
       d="m 286.10975,205.98563 -0.064,14.74573 0.5848,-0.23232 4.41795,2.07269 1.04014,7.7745 -4.85045,6.52784 2.02547,0.72127 9.84253,1.04319 -0.77974,9.32939 -4.41946,4.40656 -7.79727,-4.92435 -0.18275,0.62257 -0.0762,17.77658 18.71346,-4.1454 6.23782,-5.44215 0.2589,-10.3665 -1.29904,-14.5119 -4.67837,-9.32939 -5.45809,-5.96146 z" />
    <path
       id="path4404"
       style="fill:#552200;stroke:#000000;stroke-width:0.778587px;stroke-linecap:butt;stroke-linejoin:miter;stroke-opacity:1"
       d="m 259.34012,193.54644 -5.19919,2.592 -4.15755,-1.29525 -3.63973,4.6647 0.27869,3.04755 2.06049,-0.45705 4.41946,-3.6276 3.63823,-0.25965 -1.04014,2.592 -3.63822,0.25965 -5.28449,3.20698 0.86654,9.49036 2.07876,-2.59049 -0.26041,-3.1098 2.5996,-3.1098 4.93877,-0.77745 4.15755,-3.36945 5.7185,-2.592 0.26041,-2.85015 -3.37933,-1.03711 z" />
    <path
       style="fill:#aa4400;stroke:#000000;stroke-width:0.778587px;stroke-linecap:butt;stroke-linejoin:miter;stroke-opacity:1"
       d="m 289.25912,237.59534 0.74927,0.26573 -7.01755,0.51931 2.5996,9.3294 -4.67837,-8.8116 -3.89864,-1.03711 -2.5128,1.40913 -0.86652,3.51523 -2.8585,11.14395 3.63822,3.1098 9.87756,-3.36945 1.81836,-6.2196 7.79727,4.92435 4.41946,-4.40656 0.77974,-9.32939 z"
       id="path6126" />
    <path
       style="fill:#aa4400;stroke:#000000;stroke-width:0.778587px;stroke-linecap:butt;stroke-linejoin:miter;stroke-opacity:1"
       d="m 286.63058,220.49904 -5.1992,2.07269 -1.81835,6.99705 -2.33919,-1.5549 -0.55128,2.23821 1.58992,0.3538 0.77973,2.07269 3.63973,2.592 4.50628,1.60349 4.85045,-6.52784 -1.04014,-7.7745 z"
       id="path4016" />
    <path
       style="fill:#aa4400;stroke:#000000;stroke-width:0.778587px;stroke-linecap:butt;stroke-linejoin:miter;stroke-opacity:1"
       d="m 243.48516,213.76064 3.11891,-5.183 -0.51982,-3.88726 5.9779,-3.6281 3.63872,-0.25913 1.03964,-2.5915 -3.63872,0.25914 -4.41846,3.6281 -4.67836,1.03659 -1.81937,-4.92384 -3.63872,0.5183 1.03964,4.40554 3.37882,2.33236 -0.51982,1.5549 -0.51982,3.6281 z"
       id="path4369" />
    <path
       id="path4640"
       style="fill:#808000;stroke:#000000;stroke-width:0.778587px;stroke-linecap:butt;stroke-linejoin:miter;stroke-opacity:1"
       d="m 198.78044,208.05958 0.0114,4.53513 1.20819,-0.20723 13.22917,1.85209 7.9375,6.08541 6.08542,7.9375 2.38125,7.40834 -0.79375,7.40833 -2.11667,4.49792 -4.7625,2.11666 -7.9375,0.26459 -6.87917,-2.91042 -4.23333,-0.26458 -4.03231,0.72399 0.007,2.89181 3.79357,-0.6165 9.09763,3.62768 3.63854,6.997 -2.85874,7.7742 -10.65723,4.66483 -2.95744,0.13384 0.0992,39.77587 4.93871,-1.29553 1.29915,-3.8871 -0.7798,-6.99699 0.26045,-4.66483 4.67827,-14.77171 5.71696,-4.66431 5.97897,-2.33268 5.19761,-0.77721 6.49831,-4.40645 6.49676,-0.5178 7.27759,-0.25993 v -3.10989 l -8.83718,-4.66431 -2.33939,-0.77774 -3.11868,-1.03559 -2.85874,-3.10989 0.26045,-3.62872 3.11919,-5.96036 0.7798,-12.43903 -4.15944,-9.32915 -6.75669,-7.77472 -9.35705,-6.47919 z" />
    <path
       style="fill:#008000;fill-opacity:1;stroke:#000000;stroke-width:0.778587px;stroke-linecap:butt;stroke-linejoin:miter;stroke-opacity:1"
       d="m 160.87633,228.72038 9.55674,-8.06286 7.71891,-10.26182 11.57837,-16.4922 -0.73513,-2.19896 -4.04325,0.91624 -9.18917,7.32986 -12.3135,15.02623 -3.3081,7.32989 z"
       id="path4901" />
    <path
       id="path5068"
       style="fill:#008000;stroke:#000000;stroke-width:0.778587px;stroke-linecap:butt;stroke-linejoin:miter;stroke-opacity:1"
       d="m 199.31839,21.879215 -15.72514,0.59066 -19.79879,2.06913 -28.09648,4.62556 -24.2595,6.41356 -32.161856,16.30908 -20.767725,21.073649 -13.048816,20.15691 -9.740489,21.622966 -7.350975,23.27248 -2.756937,26.93738 0.367419,27.30376 4.594553,24.92147 7.718909,22.72265 16.540591,22.17281 19.113561,10.99468 10.475849,3.2985 15.621266,1.83245 18.56217,-1.649 18.01079,-6.9634 10.65982,-7.87962 9.92394,-11.17813 6.61613,-12.64419 3.67575,-7.69617 1.28674,-3.48196 -2.20555,-1.28261 -6.24871,5.13095 -6.06475,14.11025 -11.57862,11.36107 -13.0483,9.16223 -17.09198,4.94802 -11.39465,-0.18345 -20.399791,-2.19883 -14.151592,-6.78047 -12.313459,-9.71207 -8.821685,-13.74335 -6.983552,-19.60758 -4.410583,-19.97398 -1.838132,-22.90558 1.470194,-27.12031 4.043164,-16.85892 8.821685,-25.10492 9.557038,-17.408243 13.599686,-18.874298 15.254367,-13.926794 17.82682,-10.07846 19.66495,-8.24653 21.86998,-6.04717 30.32425,-4.03128 24.81089,-0.91622 24.44346,1.09967 29.95632,4.21473 29.95682,8.42894 19.84892,10.07897 14.51849,9.71208 15.80576,15.02595 11.02671,16.675468 8.08633,17.591687 6.24872,16.49202 4.4111,14.66009 2.20503,15.57579 0.36794,20.70675 -0.55139,18.32498 -2.75694,14.10973 -3.8592,14.66009 -8.27029,18.50791 -8.45426,11.36107 -12.1295,9.16223 -13.96762,5.68079 -11.39465,1.28261 -18.01079,0.18345 -13.04882,-3.48196 -12.86484,-5.86372 -8.82117,-7.51324 -4.96249,-5.31389 -5.51336,-10.81175 -1.83813,-0.54983 -1.10226,5.13095 2.389,8.24653 10.6593,11.9109 12.6814,9.52862 16.54007,5.13095 19.4815,1.28261 18.01079,-2.38228 15.9892,-6.77995 14.88643,-12.82713 10.6593,-15.02647 9.37307,-26.20409 3.67575,-25.65476 0.73484,-22.53919 -2.02159,-17.40824 -4.22713,-21.44004 -6.8001,-19.05775 -9.1891,-18.8743 -13.0483,-19.05775 -13.04882,-13.559895 -19.29701,-12.82764 -19.84892,-8.24601 -25.91314,-6.9634 -22.9154,-3.61115 -20.04736,-2.13217 z" />
    <path
       style="fill:#008000;stroke:#000000;stroke-width:0.778587px;stroke-linecap:butt;stroke-linejoin:miter;stroke-opacity:1"
       d="m 237.88162,236.59997 2.20542,-2.56545 -0.91894,-5.49741 -2.57297,-10.44504 -3.85945,-12.46078 -6.98377,-13.56025 -2.02161,-2.93195 -2.94055,-0.18324 -1.28649,3.48168 4.22704,9.16234 6.43242,17.22519 2.57296,10.2618 2.94055,5.68065 z"
       id="path5103" />
    <path
       id="path5169"
       style="fill:#008000;stroke:#000000;stroke-width:0.778587px;stroke-linecap:butt;stroke-linejoin:miter;stroke-opacity:1"
       d="m 167.59118,268.18163 -9.53796,0.61953 5.94695,3.89786 2.38943,4.58119 1.97369,8.3652 2.77169,3.80219 4.28697,4.97752 3.31081,2.56768 8.05768,4.66015 6.06422,8.24522 2.20514,1.64905 -0.36701,-3.48029 1.46961,-8.79643 -0.32284,-6.51265 -2.80063,-6.86494 -4.03266,-4.48555 -3.62146,-3.85837 -4.53827,-1.85102 -7.01754,-2.85164 z" />
    <path
       style="fill:#008000;stroke:#000000;stroke-width:0.778587px;stroke-linecap:butt;stroke-linejoin:miter;stroke-opacity:1"
       d="m 189.54657,309.16565 -0.45214,-2.66435 -5.06137,-5.39848 -8.61184,-6.6779 -4.28561,-4.97688 -4.19442,-5.75367 -2.02162,-7.14661 -3.67566,-4.03141 -4.0579,-2.14386 -4.21237,-0.97134 -8.27026,4.58115 -8.63782,4.39793 -9.55674,2.56546 -7.16757,0.91624 -3.67566,1.46596 -0.36757,2.7487 1.65405,4.39792 3.30811,3.84818 4.96215,3.4817 3.3081,3.66491 4.22703,3.4817 6.98376,1.46597 15.07026,2.74868 13.04863,0.36651 h 7.7189 l 4.96216,-0.73298 4.4108,0.91623 3.12432,0.36649 z"
       id="path5204"
       sodipodi:nodetypes="ccccccccccccccccccccccccccccc" />
    <path
       id="path5239"
       style="fill:#008000;stroke:#000000;stroke-width:0.778587px;stroke-linecap:butt;stroke-linejoin:miter;stroke-opacity:1"
       d="m 113.45952,283.51043 -7.16679,0.18365 -8.270908,0.73343 h -11.76139 l -8.2709,-0.73343 -5.1459,0.54968 -1.28685,1.83277 6.98405,4.94716 12.3142,5.13085 7.16679,2.56618 10.843088,3.29809 9.37348,2.19874 5.88146,1.46681 4.04331,0.7319 1.65388,-1.64902 -4.8931,-5.75041 -2.82346,-3.40286 -1.83967,-1.2907 -1.37367,-1.59892 -3.03819,-2.25037 -1.55488,-4.65406 z" />
    <path
       id="path5274"
       style="fill:#008000;stroke:#000000;stroke-width:0.778587px;stroke-linecap:butt;stroke-linejoin:miter;stroke-opacity:1"
       d="m 238.9149,269.37209 -7.52923,0.56637 -5.05453,3.42717 -5.19768,0.77743 -5.97891,2.33236 -5.717,4.6647 -4.00218,12.63661 -0.002,4.43844 0.11434,3.71111 0.71881,6.34108 0.79495,2.66034 2.88438,-1.76143 4.41187,-6.04801 3.47068,-1.977 1.54879,-2.30353 4.98754,-4.56749 5.31188,-4.07858 3.5438,-6.92264 1.75288,-4.93651 1.06601,-1.18287 0.18743,-0.78506 3.86057,-4.76492 2.20516,-1.28156 1.59908,-0.94601 z" />
    <path
       style="fill:#008000;stroke:#000000;stroke-width:0.778587px;stroke-linecap:butt;stroke-linejoin:miter;stroke-opacity:1"
       d="m 217.11408,302.20231 -2.02162,2.93193 -1.8378,3.84818 1.8378,1.28273 4.96217,-1.46597 6.06486,-0.18336 7.71891,0.73299 7.35132,-0.36651 12.31351,-0.73298 9.55675,-1.64924 5.32971,-1.83243 6.24864,-3.84821 9.18916,-8.97908 2.573,-6.41363 -0.55135,-2.7487 -4.96217,-1.09948 -12.3135,-2.01571 -10.84323,-4.94767 -9.00539,-5.31414 -4.4108,0.73298 -4.59459,2.93196 -4.74576,5.26704 -1.75329,4.93632 -3.54386,6.92291 -5.31179,4.0785 -4.98669,4.56655 z"
       id="path5309"
       sodipodi:nodetypes="ccccccccccccccccccccccccccc" />
    <path
       style="fill:#008000;stroke:#000000;stroke-width:0.778587px;stroke-linecap:butt;stroke-linejoin:miter;stroke-opacity:1"
       d="m 272.61672,306.23373 -0.73513,-1.83247 7.35133,-5.86389 6.61622,-6.96337 1.65403,-5.1309 2.3892,-2.74873 6.06484,0.54975 10.2919,0.73298 12.1297,-0.73298 11.21079,-0.18336 1.47028,1.6492 -6.24864,4.21469 -12.31348,5.86389 -16.9081,5.1309 -13.78377,3.84821 z"
       id="path5344" />
    <path
       id="path959"
       style="fill:#808000;stroke:#000000;stroke-width:0.778587px;stroke-linecap:butt;stroke-linejoin:miter;stroke-opacity:1"
       d="m 198.78044,208.05958 -11.69593,2.59054 -9.61595,6.47971 -4.93872,6.47919 -5.19761,9.32915 -0.5209,9.06973 0.7798,5.70198 3.89847,6.73705 -0.77928,3.10989 -2.33939,2.07274 -6.49677,1.55495 -6.75876,3.8871 -1.55907,2.85202 2.07997,1.0356 11.95483,-0.77773 6.23786,4.66483 7.01766,2.85151 5.71851,2.33267 6.49831,5.69991 3.89847,8.03413 0.7798,7.25693 -1.55959,8.03258 v 3.10989 l 2.85874,2.59209 -0.0992,-39.77587 -2.75952,0.12558 -7.53856,-3.62717 -5.45807,-5.70198 1.3007,-7.77472 7.01766,-4.4049 7.38146,-1.19786 -0.007,-2.89181 -6.28644,1.12809 -11.37708,3.43958 -6.61459,-0.52916 -3.96875,-6.35 0.26459,-8.99584 3.96875,-8.99583 7.40833,-7.67292 8.46667,-5.55625 8.05222,-1.38027 z" />
    <path
       id="path4578"
       style="fill:#00ffff;fill-opacity:1;stroke:#000000;stroke-width:0.778587px;stroke-linecap:butt;stroke-linejoin:miter;stroke-opacity:1"
       d="m 202.67943,249.78262 -6.91276,1.12189 v 8.01192 l 0.18707,-0.11731 4.80074,-0.77876 3.90725,1.55804 1.56322,3.00551 -1.22784,3.33985 -4.5775,2.00349 -2.45618,0.11162 -2.19676,-1.0573 v 5.9247 l 0.41496,0.19948 5.718,-0.2589 10.65619,-4.66484 2.85926,-7.7742 -3.63905,-6.99699 z" />
    <path
       id="path4252"
       style="fill:#552200;stroke:#000000;stroke-width:0.778587px;stroke-linecap:butt;stroke-linejoin:miter;stroke-opacity:1"
       d="m 119.76891,208.05984 -11.1766,5.18249 -7.53686,8.55196 -4.678358,8.55194 -4.41946,10.3665 -2.33919,8.81009 -0.77972,4.40656 1.04013,3.88725 4.80781,3.36795 4.80934,0.25965 13.124398,-0.36595 1.43,-10.60947 -3.11891,0.0911 0.77973,-6.21959 -3.63822,7.77449 -3.11892,1.29525 -6.498218,-2.5905 2.599588,-5.184 3.37781,-3.88725 -5.197668,2.0742 -2.33919,-1.29675 2.33919,-5.95994 4.159038,-1.0371 7.53686,2.0742 -3.37932,-4.92435 -3.89864,-4.40505 2.33919,-4.40655 5.97891,-3.88726 3.11891,1.03711 2.03918,6.61136 z" />
    <path
       id="path3522"
       style="fill:#aa4400;stroke:#000000;stroke-width:0.778587px;stroke-linecap:butt;stroke-linejoin:miter;stroke-opacity:1"
       d="m 127.82508,214.27944 -6.75713,1.29525 -2.5996,3.88724 0.26041,9.58906 0.0396,0.84426 2.56,2.78333 4.67836,0.5178 0.77974,2.0742 2.85849,1.5549 -9.61714,1.03559 -0.66704,4.43238 0.14773,3.08398 8.05768,5.1825 6.49673,-2.85015 3.63973,-5.18401 -0.26041,-3.36794 -8.57701,-4.6647 12.99496,-0.77744 1.55945,-7.51636 -4.41795,-5.70029 -7.53686,5.95994 -5.71851,5.44215 5.71851,-9.58905 0.2589,-6.2196 z" />
    <path
       id="path5497"
       style="fill:#aa4400;stroke:#000000;stroke-width:0.778587px;stroke-linecap:butt;stroke-linejoin:miter;stroke-opacity:1"
       d="m 111.97163,219.97973 -5.97891,3.88725 -2.33919,4.40655 3.89864,4.40505 3.37932,4.92435 -7.53686,-2.0742 -4.159038,1.0371 -2.33919,5.95994 2.33919,1.29676 5.197668,-2.0742 -3.37781,3.88724 -2.599588,5.18401 6.498218,2.5905 3.11892,-1.29525 3.63822,-7.7745 -0.77973,6.2196 8.83742,-0.25965 -0.26041,-4.92285 -0.14773,-3.08398 -0.11269,0.75163 -3.89864,-1.5549 -2.59807,2.33235 -2.33919,-1.81455 -6.75865,2.85014 5.97893,-4.66469 1.55945,-2.5905 -1.55945,-3.88724 3.11891,1.81304 2.07876,0.25965 3.37932,-2.85015 0.2589,-3.36945 0.30001,0.32647 -0.0396,-0.84426 -1.55945,-1.29676 -2.07877,-6.7374 z" />
    <path
       style="fill:#00ffff;stroke:#000000;stroke-width:0.778587px;stroke-linecap:butt;stroke-linejoin:miter;stroke-opacity:1"
       d="m 103.65404,244.85862 6.75763,-2.85064 2.33919,1.81404 2.59909,-2.33235 3.89863,1.55491 0.77974,-5.18301 9.61663,-1.0366 -2.859,-1.55488 -0.77973,-2.07322 -4.67836,-0.5183 -2.859,-3.10979 -0.25993,3.36896 -3.37881,2.85065 -2.07927,-0.25916 -3.11891,-1.81405 1.55945,3.88726 -1.55945,2.59149 z"
       id="path3283" />
    <path
       style="fill:#aa4400;stroke:#000000;stroke-width:0.778587px;stroke-linecap:butt;stroke-linejoin:miter;stroke-opacity:1"
       d="m 274.67425,208.57764 -5.7185,1.0371 -3.37781,2.85015 4.15753,12.17954 -0.51931,2.592 -9.61714,-9.58905 -3.89864,3.6291 -2.07877,5.7003 1.04015,5.18401 4.93726,1.29524 9.35673,0.25966 0.77972,1.81304 -8.05617,0.25965 -6.23782,1.81455 -3.11891,3.6276 2.33919,6.99704 5.97739,3.62761 9.35674,-6.21961 3.63822,-2.85014 0.86652,-3.51523 -1.64625,0.92323 -0.51931,-2.85015 -1.81987,-4.40505 2.33918,-2.85165 -2.85849,-5.70029 5.9774,5.70029 0.74927,0.16551 0.55128,-2.23821 2.07878,-7.51484 -0.77973,-7.7745 z"
       id="path5738" />
    <path
       style="fill:#00ffff;stroke:#000000;stroke-width:0.778587px;stroke-linecap:butt;stroke-linejoin:miter;stroke-opacity:1"
       d="m 285.59045,247.70928 -2.59911,-9.32941 7.01755,-0.5183 -7.27744,-2.59148 -3.63875,-2.59152 -0.77972,-2.07318 -2.33918,-0.51831 -5.97791,-5.7013 2.85901,5.7013 -2.33919,2.85066 1.81937,4.40553 0.51982,2.85066 4.15854,-2.33236 3.89864,1.03661 z"
       id="path3318" />
    <path
       id="path3045"
       style="fill:#00ffff;fill-opacity:1;stroke:#000000;stroke-width:0.778587px;stroke-linecap:butt;stroke-linejoin:miter;stroke-opacity:1"
       d="m 195.76667,250.90451 -4.26331,0.69195 -7.01766,4.40542 -1.29966,7.77472 5.45807,5.70146 7.12256,3.42821 v -5.9247 l -1.04076,-0.50126 -2.34456,-2.44895 0.5581,-3.33984 2.82722,-1.77509 z" />
    <path
       style="fill:#ffff00;stroke:#000000;stroke-width:0.334442px;stroke-linecap:butt;stroke-linejoin:miter;stroke-opacity:1"
       d="m 200.41951,267.92739 4.57739,-2.00372 1.22808,-3.33953 -1.56302,-3.00559 -3.90753,-1.55845 -4.80069,0.77922 -3.01439,1.89241 -0.55821,3.33954 2.34452,2.44899 3.23767,1.55845 z"
       id="path2872" />
    <path
       style="fill:#ffff44;fill-opacity:1;stroke:#000000;stroke-width:0.264583px;stroke-linecap:butt;stroke-linejoin:miter;stroke-opacity:1"
       d="m 202.91042,246.78332 -10.31875,1.85208 -11.37708,3.43958 -6.61459,-0.52916 -3.96875,-6.35 0.26459,-8.99584 3.96875,-8.99583 7.40833,-7.67292 8.46667,-5.55625 9.26041,-1.5875 13.22917,1.85209 7.9375,6.08541 6.08542,7.9375 2.38125,7.40834 -0.79375,7.40833 -2.11667,4.49792 -4.7625,2.11666 -7.9375,0.26459 -6.87917,-2.91042 z"
       id="path3452" />
  </g>
</svg>
